<svg xmlns="http://www.w3.org/2000/svg" xmlns:xlink="http://www.w3.org/1999/xlink" xmlns:lucid="lucid" width="1526" height="928.4"><g transform="translate(-520 -97.60000000000002)" lucid:page-tab-id="0_0"><path d="M928 140c17.67 0 32 17.9 32 40s-14.33 40-32 40h-96c-17.67 0-32-17.9-32-40s14.33-40 32-40z" stroke="#333" fill="#ff9e56"/><use xlink:href="#a" transform="matrix(1,0,0,1,805,145) translate(56.847 42.56)"/><path d="M1760 125.6c0-4.42 3.58-8 8-8h128c4.42 0 8 3.58 8 8v98.08c-24.05-17.72-39.02-17.72-48.1-17.72-14.4 0-33.55 17.72-47.95 17.72-8.93 0-24.05 0-47.95-17.72z" stroke="#fff" fill="#0c7cba"/><path d="M1768 134.96c0-4.42 3.58-8 8-8h128c4.42 0 8 3.58 8 8v98.08c-24.05-17.72-39.02-17.72-48.1-17.72-14.4 0-33.55 17.72-47.95 17.72-8.93 0-24.05 0-47.95-17.72z" stroke="#fff" fill="#0c7cba"/><path d="M1776 144.32c0-4.42 3.58-8 8-8h128c4.42 0 8 3.58 8 8v98.08c-24.05-17.72-39.02-17.72-48.1-17.72-14.4 0-33.55 17.72-47.95 17.72-8.93 0-24.05 0-47.95-17.72z" stroke="#fff" fill="#0c7cba"/><use xlink:href="#b" transform="matrix(1,0,0,1,1781.0000000000002,141.32000000000002) translate(36.894999999999996 47.06)"/><path d="M760 547.9c0-4.42 3.58-8 8-8h224c4.42 0 8 3.58 8 8v104c0 4.4-3.58 8-8 8H768c-4.42 0-8-3.6-8-8z" stroke="#333" stroke-width="2" fill="#0c7cba"/><use xlink:href="#c" transform="matrix(1,0,0,1,765.0000000000002,544.8962048656474) translate(79.176 49.24)"/><use xlink:href="#d" transform="matrix(1,0,0,1,765.0000000000002,544.8962048656474) translate(58.431 75.88)"/><path d="M1360 307.9c0-4.42 3.58-8 8-8h224c4.42 0 8 3.58 8 8v104c0 4.4-3.58 8-8 8h-224c-4.42 0-8-3.6-8-8z" stroke="#333" stroke-width="2" fill="#0c7cba"/><use xlink:href="#e" transform="matrix(1,0,0,1,1364.9999999999993,304.8962048656474) translate(68.745 35.92)"/><use xlink:href="#f" transform="matrix(1,0,0,1,1364.9999999999993,304.8962048656474) translate(65.325 62.56)"/><use xlink:href="#g" transform="matrix(1,0,0,1,1364.9999999999993,304.8962048656474) translate(27.408000000000015 89.19999999999999)"/><path d="M1720 547.8c0-4.43 3.58-8 8-8h224c4.42 0 8 3.57 8 8v104c0 4.4-3.58 8-8 8h-224c-4.42 0-8-3.6-8-8z" stroke="#333" stroke-width="2" fill="#0c7cba"/><use xlink:href="#h" transform="matrix(1,0,0,1,1725,544.7924097312948) translate(42.852000000000004 35.92)"/><use xlink:href="#f" transform="matrix(1,0,0,1,1725,544.7924097312948) translate(65.325 62.56)"/><use xlink:href="#g" transform="matrix(1,0,0,1,1725,544.7924097312948) translate(27.408000000000015 89.19999999999999)"/><path d="M1081.7 600.4h-80.2v-1h80.2zm98.8-12.47l-.42 3.2-1.24 3-2 2.6-2.6 2-3 1.25-3.2.42h-68.35v-1h68.27l3-.4 2.77-1.14 2.4-1.84 1.82-2.38 1.14-2.76.4-3.02v-30.58h1zM1001.5 600.4h-.5v-1h.5zM1184.64 556.78h-9.28l4.64-14.27z" fill="#333"/><path d="M1185.32 557.28h-10.64l5.32-16.38zm-9.27-1h7.9l-3.95-12.15z" fill="#333"/><use xlink:href="#i" transform="matrix(1,0,0,1,1081.694943783305,586.5762048656474) translate(0.005000000000000782 20.88)"/><path d="M1480.5 522.4h-1V487h1zm0-62.04h-1V421.4h1zM1480.5 421.4h-1v-.5h1zM1480 537.17l-4.64-14.26h9.28z" fill="#333"/><path d="M1480 538.8l-5.32-16.4h10.64zm-3.95-15.4l3.95 12.16 3.95-12.15z" fill="#333"/><use xlink:href="#j" transform="matrix(1,0,0,1,1470.9999999999993,460.35514508129717) translate(0.005000000000000782 20.88)"/><path d="M1258.52 360.5h-66.5l-3 .4-2.76 1.14-2.4 1.83-1.82 2.4-1.14 2.75-.4 3v46.38h-1v-46.43l.42-3.2 1.24-3 2-2.6 2.6-2 3-1.25 3.2-.42h66.56zm84.1 0h-66.1v-1h66.1z" fill="#333"/><path d="M1180.5 418.9h-1v-.52h1zM1357.38 360l-14.26 4.64v-9.27z" fill="#333"/><path d="M1359 360l-16.38 5.32v-10.64zm-15.38 3.95l12.14-3.95-12.14-3.95z" fill="#333"/><use xlink:href="#k" transform="matrix(1,0,0,1,1258.5170775266658,346.68086495945295) translate(0.005000000000000782 20.88)"/><path d="M1060 427.9c0-4.42 3.58-8 8-8h224c4.42 0 8 3.58 8 8v104c0 4.4-3.58 8-8 8h-224c-4.42 0-8-3.6-8-8z" stroke="#333" stroke-width="2" fill="#0c7cba"/><use xlink:href="#l" transform="matrix(1,0,0,1,1072.000000000001,431.8962048656474) translate(16.49700000000003 28.919999999999998)"/><use xlink:href="#m" transform="matrix(1,0,0,1,1072.000000000001,431.8962048656474) translate(77.922 55.56)"/><use xlink:href="#n" transform="matrix(1,0,0,1,1072.000000000001,431.8962048656474) translate(72.711 82.2)"/><path d="M1400 547.8c0-4.43 3.58-8 8-8h144c4.42 0 8 3.57 8 8v104c0 4.4-3.58 8-8 8h-144c-4.42 0-8-3.6-8-8z" stroke="#333" stroke-width="2" fill="#0c7cba"/><use xlink:href="#e" transform="matrix(1,0,0,1,1412,551.7924097312948) translate(21.245000000000005 28.919999999999998)"/><use xlink:href="#o" transform="matrix(1,0,0,1,1412,551.7924097312948) translate(32.315000000000005 55.56)"/><use xlink:href="#n" transform="matrix(1,0,0,1,1412,551.7924097312948) translate(32.711 82.2)"/><path d="M1720 307.9c0-4.42 3.58-8 8-8h224c4.42 0 8 3.58 8 8v104c0 4.4-3.58 8-8 8h-224c-4.42 0-8-3.6-8-8z" stroke="#333" stroke-width="2" fill="#0c7cba"/><use xlink:href="#p" transform="matrix(1,0,0,1,1732,311.8962048656474) translate(35.852000000000004 28.919999999999998)"/><use xlink:href="#q" transform="matrix(1,0,0,1,1732,311.8962048656474) translate(89.384 55.56)"/><use xlink:href="#n" transform="matrix(1,0,0,1,1732,311.8962048656474) translate(73.211 82.2)"/><path d="M1631 600.3h-69.5v-1h69.5zm71.62 0H1649v-1h53.62zM1561.5 600.3h-.5v-1h.5zM1717.38 599.8l-14.26 4.63v-9.27z" fill="#333"/><path d="M1719 599.8l-16.38 5.32v-10.65zm-15.38 3.94l12.14-3.95-12.14-3.95z" fill="#333"/><use xlink:href="#r" transform="matrix(1,0,0,1,1631,586.4724097312948) translate(0.005000000000000782 20.88)"/><path d="M1840.5 538.3h-1v-45.14h1zm0-71.78h-1v-29.24h1z" fill="#333"/><path d="M1840.5 538.8h-1v-.52h1zM1844.64 436.78h-9.28l4.64-14.26z" fill="#333"/><path d="M1845.32 437.28h-10.64l5.32-16.38zm-9.27-1h7.9l-3.95-12.15z" fill="#333"/><use xlink:href="#s" transform="matrix(1,0,0,1,1831,466.5243072984711) translate(0.005000000000000782 20.88)"/><path d="M1651.24 179.92l3 1.24 2.6 2 2 2.6 1.24 3 .42 3.2v155.9l.4 3.02 1.14 2.76 1.83 2.38 2.4 1.84L1669 359l3 .4h46.48v1h-46.53l-3.2-.42-3-1.25-2.6-2-2-2.6-1.25-3-.42-3.2v-155.9l-.4-3-1.14-2.77-1.83-2.4-2.4-1.82-2.75-1.14-3-.4h-317.2v-1h317.25zm-674.36.58v-1h335.9v1zM1719 360.4h-.5v-1h.5zM976.38 184.64L962.12 180l14.26-4.64z" fill="#333"/><path d="M976.88 185.32L960.5 180l16.38-5.32zM963.74 180l12.14 3.95v-7.9z" fill="#333"/><use xlink:href="#t" transform="matrix(1,0,0,1,1312.7892175865093,166.68) translate(0.005000000000000782 20.88)"/><path d="M660 647.8c0 6.62-26.86 12-60 12s-60-5.38-60-12v-96c0-6.64 26.86-12 60-12s60 5.36 60 12z" stroke="#333" fill="#ff9e56"/><path d="M660 551.8c0 6.62-26.86 12-60 12s-60-5.38-60-12" stroke="#333" fill="none"/><use xlink:href="#u" transform="matrix(1,0,0,1,545,568.7924097312948) translate(27.577 50.56)"/><path d="M900 828c0-4.42 3.58-8 8-8h128c4.42 0 8 3.58 8 8v98.08c-24.05-17.72-39.02-17.72-48.1-17.72-14.4 0-33.55 17.72-47.95 17.72-8.93 0-24.05 0-47.95-17.72z" stroke="#fff" fill="#0c7cba"/><path d="M908 837.36c0-4.42 3.58-8 8-8h128c4.42 0 8 3.58 8 8v98.08c-24.05-17.72-39.02-17.72-48.1-17.72-14.4 0-33.55 17.72-47.95 17.72-8.93 0-24.05 0-47.95-17.72z" stroke="#fff" fill="#0c7cba"/><path d="M916 846.72c0-4.42 3.58-8 8-8h128c4.42 0 8 3.58 8 8v98.08c-24.05-17.72-39.02-17.72-48.1-17.72-14.4 0-33.55 17.72-47.95 17.72-8.93 0-24.05 0-47.95-17.72z" stroke="#fff" fill="#0c7cba"/><use xlink:href="#v" transform="matrix(1,0,0,1,921.0000000000005,843.72) translate(8.490221111111126 42.984453333333335)"/><use xlink:href="#w" transform="matrix(1,0,0,1,921.0000000000005,843.72) translate(91.68154444444444 42.984453333333335)"/><path d="M742.62 599.9h-65.74" stroke="#333" fill="none"/><path d="M757.38 599.9l-14.26 4.63v-9.27zM662.12 599.9l14.26-4.64v9.27z" stroke="#333" fill="#333"/><path d="M1840 282.5v-28.47" stroke="#333" fill="none"/><path d="M1840 297.28l-4.64-14.27h9.28zM1840 239.26l4.64 14.27h-9.28z" stroke="#333" fill="#333"/><path d="M700 828c0-4.42 3.58-8 8-8h128c4.42 0 8 3.58 8 8v98.08c-24.05-17.72-39.02-17.72-48.1-17.72-14.4 0-33.55 17.72-47.95 17.72-8.93 0-24.05 0-47.95-17.72z" stroke="#fff" fill="#0c7cba"/><path d="M708 837.36c0-4.42 3.58-8 8-8h128c4.42 0 8 3.58 8 8v98.08c-24.05-17.72-39.02-17.72-48.1-17.72-14.4 0-33.55 17.72-47.95 17.72-8.93 0-24.05 0-47.95-17.72z" stroke="#fff" fill="#0c7cba"/><path d="M716 846.72c0-4.42 3.58-8 8-8h128c4.42 0 8 3.58 8 8v98.08c-24.05-17.72-39.02-17.72-48.1-17.72-14.4 0-33.55 17.72-47.95 17.72-8.93 0-24.05 0-47.95-17.72z" stroke="#fff" fill="#0c7cba"/><use xlink:href="#x" transform="matrix(1,0,0,1,721.0000000000005,843.72) translate(13.789493888888899 42.984453333333335)"/><use xlink:href="#w" transform="matrix(1,0,0,1,721.0000000000005,843.72) translate(86.38227166666667 42.984453333333335)"/><path d="M880 661.4V748c0 6.63-5.37 12-12 12h-76c-6.63 0-12 5.37-12 12v31.12" stroke="#333" fill="none"/><path d="M880.5 661.4h-1v-.5h1z" fill="#333"/><path d="M780 817.88l-4.64-14.26h9.28z" stroke="#333" fill="#333"/><path d="M880.5 747.97l.4 3 1.14 2.77 1.83 2.4 2.4 1.82 2.75 1.14 3 .4h74.5l3.22.42 3 1.24 2.6 2 2 2.6 1.24 3 .42 3.2v31.16h-1v-31.1l-.4-3-1.14-2.76-1.83-2.4-2.4-1.82-2.75-1.14-3-.4h-74.5l-3.22-.42-3-1.24-2.6-2-2-2.6-1.24-3-.42-3.2V661.4h1zM880.5 661.4h-1v-.5h1zM978.5 817.88l-4.64-14.26h9.28z" fill="#333"/><path d="M978.5 819.5l-5.32-16.38h10.64zm-3.95-15.38l3.95 12.14 3.95-12.14zM1991.24 359.82l3 1.24 2.6 2 2 2.6 1.24 3 .42 3.2v636.17l-.42 3.2-1.24 3-2 2.6-2.6 2-3 1.25-3.2.42H791.96l-3.2-.42-3-1.24-2.6-2-2-2.6-1.25-3-.42-3.2v-51.6h1v51.53l.4 3 1.14 2.77 1.83 2.4 2.4 1.82 2.75 1.14 3 .4h1195.95l3-.4 2.77-1.14 2.4-1.83 1.82-2.4 1.14-2.75.4-3V371.92l-.4-3.02-1.14-2.74-1.83-2.4-2.4-1.83-2.75-1.14-3-.4h-26.48v-1h26.53z" fill="#333"/><path d="M1961.5 360.4h-.5v-1h.5zM784.64 955.93h-9.28l4.64-14.27z" fill="#333"/><path d="M785.32 956.43h-10.64l5.32-16.4zm-9.27-1h7.9L780 943.28zM2031.24 359.82l3 1.24 2.6 2 2 2.6 1.24 3 .42 3.2v596.2l-.42 3.23-1.24 3-2 2.58-2.6 2-3 1.24-3.2.42H991.96l-3.2-.42-3-1.24-2.6-2-2-2.6-1.25-3-.42-3.2v-11.65h1V968l.4 3.03 1.14 2.75 1.83 2.4 2.4 1.82 2.75 1.15 3 .4h1035.95l3-.4 2.77-1.14 2.4-1.83 1.82-2.4 1.14-2.74.4-3.02V371.94l-.4-3.02-1.14-2.74-1.83-2.4-2.4-1.83-2.75-1.14-3-.4h-66.48v-1h66.53z" fill="#333"/><path d="M1961.5 360.4h-.5v-1h.5zM984.64 955.93h-9.28l4.64-14.27z" fill="#333"/><path d="M985.32 956.43h-10.64l5.32-16.4zm-9.27-1h7.9L980 943.28z" fill="#333"/><path d="M760 308.1c0-4.4 3.58-8 8-8h224c4.42 0 8 3.6 8 8v104c0 4.42-3.58 8-8 8H768c-4.42 0-8-3.58-8-8z" stroke="#333" stroke-width="2" fill="#0c7cba"/><use xlink:href="#y" transform="matrix(1,0,0,1,772,312.1037951343526) translate(91.87700000000001 42.24)"/><use xlink:href="#z" transform="matrix(1,0,0,1,772,312.1037951343526) translate(36.29299999999999 68.88)"/><path d="M880 221v61.72" stroke="#333" fill="none"/><path d="M880.5 221h-1v-.5h1z" fill="#333"/><path d="M880 297.5l-4.64-14.28h9.28z" stroke="#333" fill="#333"/><path d="M880.5 522.5h-1v-29.18h1zm0-55.82h-1V421.6h1z" fill="#333"/><path d="M880.5 421.62h-1v-.52h1zM880 537.28L875.36 523h9.28z" fill="#333"/><path d="M880 538.9l-5.32-16.4h10.64zm-3.95-15.4l3.95 12.16 3.95-12.15z" fill="#333"/><g><use xlink:href="#A" transform="matrix(1,0,0,1,871.0000000000001,466.68) translate(0.005000000000000782 20.88)"/></g><path d="M1060 667.8c0-4.43 3.58-8 8-8h224c4.42 0 8 3.57 8 8v104c0 4.4-3.58 8-8 8h-224c-4.42 0-8-3.6-8-8z" stroke="#333" stroke-width="2" fill="#0c7cba"/><g><use xlink:href="#B" transform="matrix(1,0,0,1,1065.0000000000005,664.7924097312948) translate(79.36500000000001 49.24)"/><use xlink:href="#C" transform="matrix(1,0,0,1,1065.0000000000005,664.7924097312948) translate(34.266000000000005 75.88)"/></g><path d="M880.5 707.76l.4 3.02 1.14 2.75 1.83 2.4 2.4 1.83 2.75 1.14 3 .4h67.12v1h-67.17l-3.2-.43-3-1.24-2.6-2-2-2.6-1.25-3-.42-3.2V661.4h1zm162.12 11.53v1h-65.48v-1zM880.5 661.4h-1v-.5h1zM1057.38 719.8l-14.26 4.63v-9.27z" fill="#333"/><path d="M1059 719.8l-16.38 5.32v-10.65zm-15.38 3.94l12.14-3.95-12.14-3.95z" fill="#333"/><g><use xlink:href="#D" transform="matrix(1,0,0,1,959.1449500997875,706.4724097312948) translate(0.005000000000000782 20.88)"/></g><defs><path fill="#333" d="M250 13C136 13 85-61 85-199v-344h91v333c0 101 30 144 102 144 56 0 95-27 147-92v-385h91V0h-76l-7-85h-3c-51 59-105 98-180 98" id="E"/><path fill="#333" d="M234 13C157 13 83-19 31-62l45-60c47 38 96 64 161 64 72 0 107-38 107-85 0-55-64-80-124-103-76-28-162-65-162-157 0-86 69-154 187-154 67 0 126 28 169 61l-44 59c-38-28-76-48-125-48-68 0-99 36-99 78 0 52 59 71 120 94 79 30 166 62 166 165 0 88-70 161-198 161" id="F"/><path fill="#333" d="M311 13C167 13 51-92 51-271c0-176 119-286 245-286 154-3 234 132 212 307H142c6 116 77 190 180 190 53 0 96-16 136-43l33 60c-48 31-106 56-180 56zM141-315h291c0-110-50-169-135-169-77 0-145 62-156 169" id="G"/><path fill="#333" d="M92 0v-543h75l8 99h3c50-86 117-137 212-101l-17 80c-18-7-31-9-53-9-45 0-101 32-137 125V0H92" id="H"/><g id="a"><use transform="matrix(0.018,0,0,0.018,0,0)" xlink:href="#E"/><use transform="matrix(0.018,0,0,0.018,10.925999999999998,0)" xlink:href="#F"/><use transform="matrix(0.018,0,0,0.018,19.349999999999998,0)" xlink:href="#G"/><use transform="matrix(0.018,0,0,0.018,29.321999999999992,0)" xlink:href="#H"/></g><path fill="#fff" d="M100 0v-733h112c65 181 131 360 193 545h5c59-186 126-364 190-545h112V0h-87c2-212-8-425 12-622h-4C570-437 502-256 436-74h-62c-66-182-134-363-197-548h-4c18 198 9 411 11 622h-84" id="I"/><path fill="#fff" d="M303 13C170 13 51-91 51-271c0-181 119-286 252-286s252 105 252 286C555-91 436 13 303 13zm0-76c94 0 158-83 158-208s-64-210-158-210-157 85-157 210S209-63 303-63" id="J"/><path fill="#fff" d="M277 13C141 13 53-90 53-271c-5-249 231-368 388-222-8-95-4-201-5-303h91V0h-74c-4-21-4-46-11-64-43 42-100 77-165 77zm20-76c50 0 94-25 139-75v-285c-123-120-291-42-289 151 0 131 54 209 150 209" id="K"/><path fill="#fff" d="M311 13C167 13 51-92 51-271c0-176 119-286 245-286 154-3 234 132 212 307H142c6 116 77 190 180 190 53 0 96-16 136-43l33 60c-48 31-106 56-180 56zM141-315h291c0-110-50-169-135-169-77 0-145 62-156 169" id="L"/><path fill="#fff" d="M241 5C155 32 92-8 92-108v-688h91v694c3 37 15 43 45 37" id="M"/><path fill="#fff" d="M234 13C157 13 83-19 31-62l45-60c47 38 96 64 161 64 72 0 107-38 107-85 0-55-64-80-124-103-76-28-162-65-162-157 0-86 69-154 187-154 67 0 126 28 169 61l-44 59c-38-28-76-48-125-48-68 0-99 36-99 78 0 52 59 71 120 94 79 30 166 62 166 165 0 88-70 161-198 161" id="N"/><g id="b"><use transform="matrix(0.018,0,0,0.018,0,0)" xlink:href="#I"/><use transform="matrix(0.018,0,0,0.018,14.616,0)" xlink:href="#J"/><use transform="matrix(0.018,0,0,0.018,25.524,0)" xlink:href="#K"/><use transform="matrix(0.018,0,0,0.018,36.684,0)" xlink:href="#L"/><use transform="matrix(0.018,0,0,0.018,46.656,0)" xlink:href="#M"/><use transform="matrix(0.018,0,0,0.018,51.786,0)" xlink:href="#N"/></g><path fill="#fff" d="M92 0v-543h75l8 99h3c50-86 117-137 212-101l-17 80c-18-7-31-9-53-9-45 0-101 32-137 125V0H92" id="O"/><path fill="#fff" d="M436 229c0-99-2-200 5-292-44 43-101 76-164 76C141 13 53-90 53-271c-5-250 233-370 390-220h3l9-52h72v772h-91zM297-63c50 0 94-25 139-75v-285c-123-120-291-42-289 151 0 131 54 209 150 209" id="P"/><path fill="#fff" d="M250 13C136 13 85-61 85-199v-344h91v333c0 101 30 144 102 144 56 0 95-27 147-92v-385h91V0h-76l-7-85h-3c-51 59-105 98-180 98" id="Q"/><path fill="#fff" d="M263 13c-116 0-155-72-155-181v-301H27v-69l85-5 11-152h76v152h147v74H199v303c0 67 21 105 84 105 19 0 44-7 62-14l18 68c-31 10-67 20-100 20" id="R"/><g id="c"><use transform="matrix(0.018,0,0,0.018,0,0)" xlink:href="#O"/><use transform="matrix(0.018,0,0,0.018,6.983999999999999,0)" xlink:href="#L"/><use transform="matrix(0.018,0,0,0.018,16.956,0)" xlink:href="#P"/><use transform="matrix(0.018,0,0,0.018,28.115999999999996,0)" xlink:href="#Q"/><use transform="matrix(0.018,0,0,0.018,39.04200000000001,0)" xlink:href="#L"/><use transform="matrix(0.018,0,0,0.018,49.014,0)" xlink:href="#N"/><use transform="matrix(0.018,0,0,0.018,57.438,0)" xlink:href="#R"/><use transform="matrix(0.018,0,0,0.018,64.224,0)" xlink:href="#N"/></g><path fill="#fff" d="M239 197C147 47 92-114 92-311c0-196 55-358 147-507l57 26c-171 284-171 678 0 962" id="S"/><path fill="#fff" d="M92 0v-543h91V0H92zm46-655c-36 0-63-25-63-59 0-37 27-59 63-59s63 22 63 59c0 34-27 59-63 59" id="T"/><path fill="#fff" d="M92 0v-543h75l8 78h3c52-51 108-92 182-92 114 0 166 74 166 213V0h-91v-332c0-102-31-145-103-145-56 0-94 28-149 83V0H92" id="U"/><path fill="#fff" d="M275 250c-133 0-225-52-225-146 0-46 30-90 81-123v-4c-29-17-50-46-50-89 0-45 33-81 61-101v-4c-36-29-71-81-71-146-2-145 144-228 280-180h189v70H429c26 25 44 65 44 112 4 144-147 228-279 170-52 42-57 131 60 124h106c126 0 189 40 189 129 0 101-106 188-274 188zm0-484c62 0 115-50 115-129s-51-127-115-127-116 47-116 127c0 79 53 129 116 129zm13 422c104 0 173-55 173-112 0-103-183-49-275-76-106 75-57 194 102 188" id="V"/><path fill="#fff" d="M139 13c-36 0-66-28-66-69s30-71 66-71 66 30 66 71-30 69-66 69" id="W"/><path fill="#fff" d="M36 243c-33 0-61-7-80-14l18-70c14 5 32 10 51 10 55 0 68-41 68-107v-605h91V62c0 111-41 181-148 181zm103-898c-36 0-63-25-63-59 0-37 27-59 63-59 35 0 63 22 63 59 0 34-28 59-63 59" id="X"/><path fill="#fff" d="M99 197l-56-27c171-284 171-678 0-962l56-26c93 149 148 311 148 507 0 197-55 358-148 508" id="Y"/><g id="d"><use transform="matrix(0.018,0,0,0.018,0,0)" xlink:href="#S"/><use transform="matrix(0.018,0,0,0.018,6.084,0)" xlink:href="#O"/><use transform="matrix(0.018,0,0,0.018,13.067999999999998,0)" xlink:href="#J"/><use transform="matrix(0.018,0,0,0.018,23.976,0)" xlink:href="#Q"/><use transform="matrix(0.018,0,0,0.018,34.902,0)" xlink:href="#R"/><use transform="matrix(0.018,0,0,0.018,41.688,0)" xlink:href="#T"/><use transform="matrix(0.018,0,0,0.018,46.638000000000005,0)" xlink:href="#U"/><use transform="matrix(0.018,0,0,0.018,57.636,0)" xlink:href="#V"/><use transform="matrix(0.018,0,0,0.018,67.77,0)" xlink:href="#W"/><use transform="matrix(0.018,0,0,0.018,72.774,0)" xlink:href="#X"/><use transform="matrix(0.018,0,0,0.018,77.724,0)" xlink:href="#N"/><use transform="matrix(0.018,0,0,0.018,86.148,0)" xlink:href="#J"/><use transform="matrix(0.018,0,0,0.018,97.056,0)" xlink:href="#U"/><use transform="matrix(0.018,0,0,0.018,108.054,0)" xlink:href="#Y"/></g><path fill="#fff" d="M304 170c-119 6-181-11-180-149 0-81 10-140 10-215 0-44-20-87-96-88v-57c76-1 96-44 96-87 0-76-10-135-10-216-1-138 61-155 180-149v51c-79-6-105 18-105 103 0 105 45 306-61 324v4c105 20 61 218 61 325 0 85 26 108 105 102v52" id="Z"/><path fill="#fff" d="M100 0v-733h209c165 0 275 55 275 215 0 155-110 227-270 227H193V0h-93zm93-366h109c129 0 190-47 190-152 0-106-65-140-194-140H193v292" id="aa"/><path fill="#fff" d="M217 13C126 13 58-43 58-141c0-118 103-177 334-203 0-70-23-137-112-137-63 0-120 29-163 58l-36-63c50-32 127-71 214-71 132 0 188 89 188 223V0h-75l-8-65h-3c-52 43-113 78-180 78zm26-73c53 0 96-25 149-72v-152c-183 22-245 67-245 137 0 62 42 87 96 87" id="ab"/><path fill="#fff" d="M34 170v-52c79 6 105-17 105-102 0-107-42-304 61-325v-4c-104-18-61-220-61-324 0-85-25-109-105-103v-51c119-6 181 11 180 149 0 81-9 140-9 216 0 43 19 86 95 87v57c-76 1-95 44-95 88 0 75 9 134 9 215 1 138-61 155-180 149" id="ac"/><path fill="#fff" d="M235 0L1-733h97c64 212 127 426 190 639h4c63-213 125-426 189-639h94L342 0H235" id="ad"/><path fill="#fff" d="M178 0L27-543h93c39 154 83 304 113 466h5c36-159 81-311 121-466h89c41 154 85 308 123 466h4c34-159 75-312 114-466h86L629 0H519c-39-150-82-293-116-449h-5C365-294 323-150 285 0H178" id="ae"/><g id="e"><use transform="matrix(0.018,0,0,0.018,0,0)" xlink:href="#Z"/><use transform="matrix(0.018,0,0,0.018,6.084,0)" xlink:href="#aa"/><use transform="matrix(0.018,0,0,0.018,17.46,0)" xlink:href="#ab"/><use transform="matrix(0.018,0,0,0.018,27.612000000000002,0)" xlink:href="#V"/><use transform="matrix(0.018,0,0,0.018,37.746,0)" xlink:href="#L"/><use transform="matrix(0.018,0,0,0.018,47.718,0)" xlink:href="#ac"/><use transform="matrix(0.018,0,0,0.018,53.80200000000001,0)" xlink:href="#ad"/><use transform="matrix(0.018,0,0,0.018,64.152,0)" xlink:href="#T"/><use transform="matrix(0.018,0,0,0.018,69.102,0)" xlink:href="#L"/><use transform="matrix(0.018,0,0,0.018,79.074,0)" xlink:href="#ae"/></g><path fill="#fff" d="M377 13C195 13 58-128 58-366c0-237 139-381 325-381 89 0 159 44 201 91l-50 60c-38-41-87-70-150-70-139 0-231 114-231 297 0 185 88 301 228 301 70 0 123-31 170-82l51 58C544-25 472 13 377 13" id="af"/><path fill="#fff" d="M306 13C162 13 51-91 51-271c0-181 123-286 262-286 71 0 120 30 159 64l-47 61c-32-29-65-49-109-49-98 0-170 85-170 210S214-63 314-63c50 0 94-23 128-54l39 61c-48 44-110 69-175 69" id="ag"/><g id="f"><use transform="matrix(0.018,0,0,0.018,0,0)" xlink:href="#af"/><use transform="matrix(0.018,0,0,0.018,11.484,0)" xlink:href="#J"/><use transform="matrix(0.018,0,0,0.018,22.392,0)" xlink:href="#U"/><use transform="matrix(0.018,0,0,0.018,33.39,0)" xlink:href="#N"/><use transform="matrix(0.018,0,0,0.018,41.814,0)" xlink:href="#R"/><use transform="matrix(0.018,0,0,0.018,48.6,0)" xlink:href="#O"/><use transform="matrix(0.018,0,0,0.018,55.584,0)" xlink:href="#Q"/><use transform="matrix(0.018,0,0,0.018,66.51,0)" xlink:href="#ag"/><use transform="matrix(0.018,0,0,0.018,75.672,0)" xlink:href="#R"/><use transform="matrix(0.018,0,0,0.018,82.458,0)" xlink:href="#J"/><use transform="matrix(0.018,0,0,0.018,93.366,0)" xlink:href="#O"/></g><path fill="#fff" d="M11 179l300-972h66L78 179H11" id="ah"/><path fill="#fff" d="M209 0L13-543h95c51 155 104 312 153 469h4c48-158 101-314 153-469h90L315 0H209" id="ai"/><path fill="#fff" d="M154-471l-44-32 63-104-109-45 18-51 114 28 10-121h54l10 120 114-27 17 51-109 45 64 104-44 32-79-95" id="aj"/><g id="g"><use transform="matrix(0.018,0,0,0.018,0,0)" xlink:href="#N"/><use transform="matrix(0.018,0,0,0.018,8.424,0)" xlink:href="#O"/><use transform="matrix(0.018,0,0,0.018,15.407999999999996,0)" xlink:href="#ag"/><use transform="matrix(0.018,0,0,0.018,24.569999999999997,0)" xlink:href="#ah"/><use transform="matrix(0.018,0,0,0.018,31.625999999999998,0)" xlink:href="#ai"/><use transform="matrix(0.018,0,0,0.018,41.004,0)" xlink:href="#T"/><use transform="matrix(0.018,0,0,0.018,45.95399999999999,0)" xlink:href="#L"/><use transform="matrix(0.018,0,0,0.018,55.925999999999995,0)" xlink:href="#ae"/><use transform="matrix(0.018,0,0,0.018,70.362,0)" xlink:href="#ah"/><use transform="matrix(0.018,0,0,0.018,77.41799999999999,0)" xlink:href="#aj"/><use transform="matrix(0.018,0,0,0.018,85.82399999999998,0)" xlink:href="#aj"/><use transform="matrix(0.018,0,0,0.018,94.22999999999999,0)" xlink:href="#ah"/><use transform="matrix(0.018,0,0,0.018,101.28599999999999,0)" xlink:href="#aj"/><use transform="matrix(0.018,0,0,0.018,109.69199999999998,0)" xlink:href="#aj"/><use transform="matrix(0.018,0,0,0.018,118.09799999999998,0)" xlink:href="#ad"/><use transform="matrix(0.018,0,0,0.018,128.44799999999998,0)" xlink:href="#T"/><use transform="matrix(0.018,0,0,0.018,133.39799999999997,0)" xlink:href="#L"/><use transform="matrix(0.018,0,0,0.018,143.36999999999998,0)" xlink:href="#ae"/><use transform="matrix(0.018,0,0,0.018,157.80599999999998,0)" xlink:href="#W"/><use transform="matrix(0.018,0,0,0.018,162.80999999999997,0)" xlink:href="#X"/><use transform="matrix(0.018,0,0,0.018,167.75999999999996,0)" xlink:href="#N"/></g><g id="h"><use transform="matrix(0.018,0,0,0.018,0,0)" xlink:href="#Z"/><use transform="matrix(0.018,0,0,0.018,6.084,0)" xlink:href="#aa"/><use transform="matrix(0.018,0,0,0.018,17.46,0)" xlink:href="#ab"/><use transform="matrix(0.018,0,0,0.018,27.612000000000002,0)" xlink:href="#V"/><use transform="matrix(0.018,0,0,0.018,37.746,0)" xlink:href="#L"/><use transform="matrix(0.018,0,0,0.018,47.718,0)" xlink:href="#ac"/><use transform="matrix(0.018,0,0,0.018,53.80200000000001,0)" xlink:href="#ad"/><use transform="matrix(0.018,0,0,0.018,64.152,0)" xlink:href="#T"/><use transform="matrix(0.018,0,0,0.018,69.102,0)" xlink:href="#L"/><use transform="matrix(0.018,0,0,0.018,79.074,0)" xlink:href="#ae"/><use transform="matrix(0.018,0,0,0.018,93.50999999999999,0)" xlink:href="#I"/><use transform="matrix(0.018,0,0,0.018,108.12599999999999,0)" xlink:href="#J"/><use transform="matrix(0.018,0,0,0.018,119.03399999999999,0)" xlink:href="#K"/><use transform="matrix(0.018,0,0,0.018,130.194,0)" xlink:href="#L"/><use transform="matrix(0.018,0,0,0.018,140.166,0)" xlink:href="#M"/></g><path fill="#333" d="M500 86C243 86 34-123 34-380s209-466 466-466 466 209 466 466c0 259-211 466-466 466zm0-32c240 0 434-194 434-434S740-814 500-814C258-814 66-618 66-380 66-140 260 54 500 54zm-5-169c-89 0-153-33-191-74l40-53c35 33 80 61 149 61 65 0 111-35 111-88 0-58-44-96-180-96v-61c119 0 161-37 161-89 0-48-36-77-95-77-46 0-88 19-122 52l-43-51c44-40 99-66 167-66 103 0 176 49 176 137 0 60-42 98-102 120v3c68 17 122 61 122 132 0 93-86 150-193 150" id="ak"/><use transform="matrix(0.018,0,0,0.018,0,0)" xlink:href="#ak" id="i"/><path fill="#333" d="M500 86C243 86 34-123 34-380s209-466 466-466 466 209 466 466c0 259-211 466-466 466zm0-32c240 0 434-194 434-434S740-814 500-814C258-814 66-618 66-380 66-140 260 54 500 54zm-2-169c-91 0-147-34-187-71l39-54c33 29 76 59 144 59 66 0 117-43 117-110 0-65-47-107-115-107-40 0-65 13-98 34l-42-26 18-255h292v70H444l-13 140c114-53 263-1 263 142 0 113-95 178-196 178" id="al"/><use transform="matrix(0.018,0,0,0.018,0,0)" xlink:href="#al" id="j"/><path fill="#333" d="M357-328h171c1-80-2-158 3-236h-4c-49 85-114 158-170 236zm249-317v317h77v63h-77v138h-78v-138H272v-55l240-325h94zM500 54c240 0 434-194 434-434S740-814 500-814C258-814 66-618 66-380 66-140 260 54 500 54zm0-900c257 0 466 209 466 466 0 259-211 466-466 466C243 86 34-123 34-380s209-466 466-466" id="am"/><use transform="matrix(0.018,0,0,0.018,0,0)" xlink:href="#am" id="k"/><g id="l"><use transform="matrix(0.018,0,0,0.018,0,0)" xlink:href="#Z"/><use transform="matrix(0.018,0,0,0.018,6.084,0)" xlink:href="#aa"/><use transform="matrix(0.018,0,0,0.018,17.46,0)" xlink:href="#O"/><use transform="matrix(0.018,0,0,0.018,24.444,0)" xlink:href="#L"/><use transform="matrix(0.018,0,0,0.018,34.416,0)" xlink:href="#ai"/><use transform="matrix(0.018,0,0,0.018,43.794,0)" xlink:href="#aa"/><use transform="matrix(0.018,0,0,0.018,55.169999999999995,0)" xlink:href="#ab"/><use transform="matrix(0.018,0,0,0.018,65.32199999999999,0)" xlink:href="#V"/><use transform="matrix(0.018,0,0,0.018,75.45599999999999,0)" xlink:href="#L"/><use transform="matrix(0.018,0,0,0.018,85.42799999999998,0)" xlink:href="#ac"/><use transform="matrix(0.018,0,0,0.018,91.51199999999999,0)" xlink:href="#ad"/><use transform="matrix(0.018,0,0,0.018,101.86199999999998,0)" xlink:href="#T"/><use transform="matrix(0.018,0,0,0.018,106.81199999999997,0)" xlink:href="#L"/><use transform="matrix(0.018,0,0,0.018,116.78399999999998,0)" xlink:href="#ae"/><use transform="matrix(0.018,0,0,0.018,131.21999999999997,0)" xlink:href="#I"/><use transform="matrix(0.018,0,0,0.018,145.83599999999996,0)" xlink:href="#J"/><use transform="matrix(0.018,0,0,0.018,156.74399999999994,0)" xlink:href="#K"/><use transform="matrix(0.018,0,0,0.018,167.90399999999997,0)" xlink:href="#L"/><use transform="matrix(0.018,0,0,0.018,177.87599999999995,0)" xlink:href="#M"/></g><path fill="#fff" d="M567-281C567-18 341 97 176-56h-3l-8 56H92v-796h91c0 106 2 214-3 316 49-43 110-77 170-77 141 0 217 110 217 276zM183-120C317-1 471-73 472-279c0-120-40-201-143-201-46 0-94 26-146 75v285" id="an"/><g id="m"><use transform="matrix(0.018,0,0,0.018,0,0)" xlink:href="#Q"/><use transform="matrix(0.018,0,0,0.018,10.925999999999998,0)" xlink:href="#U"/><use transform="matrix(0.018,0,0,0.018,21.924,0)" xlink:href="#an"/><use transform="matrix(0.018,0,0,0.018,33.048,0)" xlink:href="#T"/><use transform="matrix(0.018,0,0,0.018,37.998000000000005,0)" xlink:href="#U"/><use transform="matrix(0.018,0,0,0.018,48.996,0)" xlink:href="#K"/></g><path fill="#fff" d="M356-791l-20 69c-75-34-144-8-138 93v86h115v74H198V0h-91v-469H33v-69l74-5v-87c0-110 50-179 158-179 33 0 65 7 91 18" id="ao"/><g id="n"><use transform="matrix(0.018,0,0,0.018,0,0)" xlink:href="#ao"/><use transform="matrix(0.018,0,0,0.018,5.85,0)" xlink:href="#Q"/><use transform="matrix(0.018,0,0,0.018,16.775999999999996,0)" xlink:href="#U"/><use transform="matrix(0.018,0,0,0.018,27.773999999999994,0)" xlink:href="#ag"/><use transform="matrix(0.018,0,0,0.018,36.935999999999986,0)" xlink:href="#R"/><use transform="matrix(0.018,0,0,0.018,43.721999999999994,0)" xlink:href="#T"/><use transform="matrix(0.018,0,0,0.018,48.672,0)" xlink:href="#J"/><use transform="matrix(0.018,0,0,0.018,59.58,0)" xlink:href="#U"/></g><path fill="#fff" d="M35 0v-49l286-420H66v-74h370v49L150-74h296V0H35" id="ap"/><g id="o"><use transform="matrix(0.018,0,0,0.018,0,0)" xlink:href="#T"/><use transform="matrix(0.018,0,0,0.018,4.949999999999999,0)" xlink:href="#U"/><use transform="matrix(0.018,0,0,0.018,15.947999999999999,0)" xlink:href="#T"/><use transform="matrix(0.018,0,0,0.018,20.897999999999993,0)" xlink:href="#R"/><use transform="matrix(0.018,0,0,0.018,27.683999999999997,0)" xlink:href="#T"/><use transform="matrix(0.018,0,0,0.018,32.634,0)" xlink:href="#ab"/><use transform="matrix(0.018,0,0,0.018,42.78600000000001,0)" xlink:href="#M"/><use transform="matrix(0.018,0,0,0.018,47.916000000000004,0)" xlink:href="#T"/><use transform="matrix(0.018,0,0,0.018,52.86599999999999,0)" xlink:href="#ap"/><use transform="matrix(0.018,0,0,0.018,61.397999999999996,0)" xlink:href="#L"/></g><g id="p"><use transform="matrix(0.018,0,0,0.018,0,0)" xlink:href="#Z"/><use transform="matrix(0.018,0,0,0.018,6.084,0)" xlink:href="#aa"/><use transform="matrix(0.018,0,0,0.018,17.46,0)" xlink:href="#ab"/><use transform="matrix(0.018,0,0,0.018,27.612000000000002,0)" xlink:href="#V"/><use transform="matrix(0.018,0,0,0.018,37.746,0)" xlink:href="#L"/><use transform="matrix(0.018,0,0,0.018,47.718,0)" xlink:href="#ac"/><use transform="matrix(0.018,0,0,0.018,53.80200000000001,0)" xlink:href="#ad"/><use transform="matrix(0.018,0,0,0.018,64.152,0)" xlink:href="#T"/><use transform="matrix(0.018,0,0,0.018,69.102,0)" xlink:href="#L"/><use transform="matrix(0.018,0,0,0.018,79.074,0)" xlink:href="#ae"/><use transform="matrix(0.018,0,0,0.018,93.50999999999999,0)" xlink:href="#I"/><use transform="matrix(0.018,0,0,0.018,108.12599999999999,0)" xlink:href="#J"/><use transform="matrix(0.018,0,0,0.018,119.03399999999999,0)" xlink:href="#K"/><use transform="matrix(0.018,0,0,0.018,130.194,0)" xlink:href="#L"/><use transform="matrix(0.018,0,0,0.018,140.166,0)" xlink:href="#M"/></g><g id="q"><use transform="matrix(0.018,0,0,0.018,0,0)" xlink:href="#an"/><use transform="matrix(0.018,0,0,0.018,11.123999999999999,0)" xlink:href="#T"/><use transform="matrix(0.018,0,0,0.018,16.073999999999998,0)" xlink:href="#U"/><use transform="matrix(0.018,0,0,0.018,27.071999999999996,0)" xlink:href="#K"/></g><path fill="#333" d="M502-179c53 0 97-42 97-103 0-63-36-103-105-103-35 0-79 17-118 64 11 97 55 142 126 142zm163-421l-45 51c-23-24-60-40-97-40-79 0-145 52-149 207 89-109 303-79 303 98 0 103-80 169-176 169-116 0-205-81-205-253 0-205 107-289 225-289 65 0 111 25 144 57zM500 54c240 0 434-194 434-434S740-814 500-814C258-814 66-618 66-380 66-140 260 54 500 54zm0-900c257 0 466 209 466 466 0 259-211 466-466 466C243 86 34-123 34-380s209-466 466-466" id="aq"/><use transform="matrix(0.018,0,0,0.018,0,0)" xlink:href="#aq" id="r"/><path fill="#333" d="M500 86C243 86 34-123 34-380s209-466 466-466 466 209 466 466c0 259-211 466-466 466zm0-32c240 0 434-194 434-434S740-814 500-814C258-814 66-618 66-380 66-140 260 54 500 54zm-72-181c10-189 50-308 161-448H319v-70h364v50C549-441 523-329 513-127h-85" id="ar"/><use transform="matrix(0.018,0,0,0.018,0,0)" xlink:href="#ar" id="s"/><path fill="#333" d="M500 86C243 86 34-123 34-380s209-466 466-466 466 209 466 466c0 259-211 466-466 466zm0-32c240 0 434-194 434-434S740-814 500-814C258-814 66-618 66-380 66-140 260 54 500 54zm0-169c-111 0-192-60-192-141 0-69 54-113 108-139v-4c-44-27-82-67-82-121 0-83 73-137 167-137 105 0 168 58 168 138 0 56-43 101-79 125v3c52 28 101 64 101 134 0 80-77 142-191 142zm38-298c37-29 60-64 60-99 0-49-37-86-99-86-53 0-91 30-91 78 0 57 60 84 130 107zm-35 238c66 0 111-32 111-84 0-62-66-86-150-115-44 25-82 60-82 107 0 54 53 92 121 92" id="as"/><use transform="matrix(0.018,0,0,0.018,0,0)" xlink:href="#as" id="t"/><path fill="#333" d="M388 13C195 13 58-128 58-366c0-237 142-381 336-381 102 0 169 46 211 91l-50 60c-37-39-84-70-159-70-147 0-243 114-243 297 0 185 87 301 244 301 53 0 104-16 133-43v-192H375v-77h240v308c-47 49-128 85-227 85" id="at"/><path fill="#333" d="M241 5C155 32 92-8 92-108v-688h91v694c3 37 15 43 45 37" id="au"/><path fill="#333" d="M303 13C170 13 51-91 51-271c0-181 119-286 252-286s252 105 252 286C555-91 436 13 303 13zm0-76c94 0 158-83 158-208s-64-210-158-210-157 85-157 210S209-63 303-63" id="av"/><path fill="#333" d="M567-281C567-18 341 97 176-56h-3l-8 56H92v-796h91c0 106 2 214-3 316 49-43 110-77 170-77 141 0 217 110 217 276zM183-120C317-1 471-73 472-279c0-120-40-201-143-201-46 0-94 26-146 75v285" id="aw"/><path fill="#333" d="M217 13C126 13 58-43 58-141c0-118 103-177 334-203 0-70-23-137-112-137-63 0-120 29-163 58l-36-63c50-32 127-71 214-71 132 0 188 89 188 223V0h-75l-8-65h-3c-52 43-113 78-180 78zm26-73c53 0 96-25 149-72v-152c-183 22-245 67-245 137 0 62 42 87 96 87" id="ax"/><g id="u"><use transform="matrix(0.018,0,0,0.018,0,0)" xlink:href="#at"/><use transform="matrix(0.018,0,0,0.018,12.402,0)" xlink:href="#au"/><use transform="matrix(0.018,0,0,0.018,17.532,0)" xlink:href="#av"/><use transform="matrix(0.018,0,0,0.018,28.439999999999998,0)" xlink:href="#aw"/><use transform="matrix(0.018,0,0,0.018,39.564,0)" xlink:href="#ax"/><use transform="matrix(0.018,0,0,0.018,49.715999999999994,0)" xlink:href="#au"/></g><path fill="#fff" d="M233-177c-1 41-23 64-60 70L243 0h-38l-65-103H63V0H30v-248c88 3 205-21 203 71zM63-129c60-2 137 13 137-47 0-61-80-42-137-45v92" id="ay"/><path fill="#fff" d="M100-194c63 0 86 42 84 106H49c0 40 14 67 53 68 26 1 43-12 49-29l28 8c-11 28-37 45-77 45C44 4 14-33 15-96c1-61 26-98 85-98zm52 81c6-60-76-77-97-28-3 7-6 17-6 28h103" id="az"/><path fill="#fff" d="M135-143c-3-34-86-38-87 0 15 53 115 12 119 90S17 21 10-45l28-5c4 36 97 45 98 0-10-56-113-15-118-90-4-57 82-63 122-42 12 7 21 19 24 35" id="aA"/><path fill="#fff" d="M115-194c55 1 70 41 70 98S169 2 115 4C84 4 66-9 55-30l1 105H24l-1-265h31l2 30c10-21 28-34 59-34zm-8 174c40 0 45-34 45-75s-6-73-45-74c-42 0-51 32-51 76 0 43 10 73 51 73" id="aB"/><path fill="#fff" d="M100-194c62-1 85 37 85 99 1 63-27 99-86 99S16-35 15-95c0-66 28-99 85-99zM99-20c44 1 53-31 53-75 0-43-8-75-51-75s-53 32-53 75 10 74 51 75" id="aC"/><path fill="#fff" d="M117-194c89-4 53 116 60 194h-32v-121c0-31-8-49-39-48C34-167 62-67 57 0H25l-1-190h30c1 10-1 24 2 32 11-22 29-35 61-36" id="aD"/><g id="v"><use transform="matrix(0.04839518518518518,0,0,0.04839518518518518,0,0)" xlink:href="#ay"/><use transform="matrix(0.04839518518518518,0,0,0.04839518518518518,12.534352962962961,0)" xlink:href="#az"/><use transform="matrix(0.04839518518518518,0,0,0.04839518518518518,22.213389999999997,0)" xlink:href="#aA"/><use transform="matrix(0.04839518518518518,0,0,0.04839518518518518,30.92452333333333,0)" xlink:href="#aB"/><use transform="matrix(0.04839518518518518,0,0,0.04839518518518518,40.60356037037037,0)" xlink:href="#aC"/><use transform="matrix(0.04839518518518518,0,0,0.04839518518518518,50.2825974074074,0)" xlink:href="#aD"/><use transform="matrix(0.04839518518518518,0,0,0.04839518518518518,59.961634444444435,0)" xlink:href="#aA"/><use transform="matrix(0.04839518518518518,0,0,0.04839518518518518,68.67276777777776,0)" xlink:href="#az"/></g><path fill="#fff" d="M240 0l2-218c-23 76-54 145-80 218h-23L58-218 59 0H30v-248h44l77 211c21-75 51-140 76-211h43V0h-30" id="aE"/><path fill="#fff" d="M141-36C126-15 110 5 73 4 37 3 15-17 15-53c-1-64 63-63 125-63 3-35-9-54-41-54-24 1-41 7-42 31l-33-3c5-37 33-52 76-52 45 0 72 20 72 64v82c-1 20 7 32 28 27v20c-31 9-61-2-59-35zM48-53c0 20 12 33 32 33 41-3 63-29 60-74-43 2-92-5-92 41" id="aF"/><g id="w"><use transform="matrix(0.04839518518518518,0,0,0.04839518518518518,0,0)" xlink:href="#aE"/><use transform="matrix(0.04839518518518518,0,0,0.04839518518518518,14.470160370370369,0)" xlink:href="#aF"/><use transform="matrix(0.04839518518518518,0,0,0.04839518518518518,24.149197407407407,0)" xlink:href="#aB"/></g><path fill="#fff" d="M30-248c87 1 191-15 191 75 0 78-77 80-158 76V0H30v-248zm33 125c57 0 124 11 124-50 0-59-68-47-124-48v98" id="aG"/><path fill="#fff" d="M96-169c-40 0-48 33-48 73s9 75 48 75c24 0 41-14 43-38l32 2c-6 37-31 61-74 61-59 0-76-41-82-99-10-93 101-131 147-64 4 7 5 14 7 22l-32 3c-4-21-16-35-41-35" id="aH"/><path fill="#fff" d="M143 0L79-87 56-68V0H24v-261h32v163l83-92h37l-77 82L181 0h-38" id="aI"/><path fill="#fff" d="M177-190C167-65 218 103 67 71c-23-6-38-20-44-43l32-5c15 47 100 32 89-28v-30C133-14 115 1 83 1 29 1 15-40 15-95c0-56 16-97 71-98 29-1 48 16 59 35 1-10 0-23 2-32h30zM94-22c36 0 50-32 50-73 0-42-14-75-50-75-39 0-46 34-46 75s6 73 46 73" id="aJ"/><g id="x"><use transform="matrix(0.04839518518518518,0,0,0.04839518518518518,0,0)" xlink:href="#aG"/><use transform="matrix(0.04839518518518518,0,0,0.04839518518518518,11.614844444444444,0)" xlink:href="#aF"/><use transform="matrix(0.04839518518518518,0,0,0.04839518518518518,21.293881481481478,0)" xlink:href="#aH"/><use transform="matrix(0.04839518518518518,0,0,0.04839518518518518,30.00501481481481,0)" xlink:href="#aI"/><use transform="matrix(0.04839518518518518,0,0,0.04839518518518518,38.71614814814814,0)" xlink:href="#aF"/><use transform="matrix(0.04839518518518518,0,0,0.04839518518518518,48.39518518518518,0)" xlink:href="#aJ"/><use transform="matrix(0.04839518518518518,0,0,0.04839518518518518,58.07422222222222,0)" xlink:href="#az"/></g><path fill="#fff" d="M191-298h222c-37-120-75-237-109-360h-4c-33 124-71 241-109 360zM506 0l-70-224H168L97 0H3l249-733h103L604 0h-98" id="aK"/><path fill="#fff" d="M92 229v-772h75l8 62h3c49-40 110-76 173-76 140 0 216 110 216 277C567-22 349 94 181-50c3 91 2 185 2 279H92zm91-349C317-1 471-73 472-279c0-120-40-201-143-201-46 0-93 26-146 75v285" id="aL"/><g id="y"><use transform="matrix(0.018,0,0,0.018,0,0)" xlink:href="#aK"/><use transform="matrix(0.018,0,0,0.018,10.925999999999998,0)" xlink:href="#aL"/><use transform="matrix(0.018,0,0,0.018,22.086,0)" xlink:href="#aL"/></g><g id="z"><use transform="matrix(0.018,0,0,0.018,0,0)" xlink:href="#V"/><use transform="matrix(0.018,0,0,0.018,10.133999999999999,0)" xlink:href="#J"/><use transform="matrix(0.018,0,0,0.018,21.041999999999998,0)" xlink:href="#R"/><use transform="matrix(0.018,0,0,0.018,27.827999999999992,0)" xlink:href="#J"/><use transform="matrix(0.018,0,0,0.018,38.736,0)" xlink:href="#ad"/><use transform="matrix(0.018,0,0,0.018,49.086,0)" xlink:href="#T"/><use transform="matrix(0.018,0,0,0.018,54.036,0)" xlink:href="#L"/><use transform="matrix(0.018,0,0,0.018,64.008,0)" xlink:href="#ae"/><use transform="matrix(0.018,0,0,0.018,78.44399999999999,0)" xlink:href="#S"/><use transform="matrix(0.018,0,0,0.018,84.52799999999999,0)" xlink:href="#Z"/><use transform="matrix(0.018,0,0,0.018,90.612,0)" xlink:href="#aa"/><use transform="matrix(0.018,0,0,0.018,101.98799999999999,0)" xlink:href="#ab"/><use transform="matrix(0.018,0,0,0.018,112.14000000000001,0)" xlink:href="#V"/><use transform="matrix(0.018,0,0,0.018,122.274,0)" xlink:href="#L"/><use transform="matrix(0.018,0,0,0.018,132.246,0)" xlink:href="#ac"/><use transform="matrix(0.018,0,0,0.018,138.33,0)" xlink:href="#Y"/></g><path fill="#333" d="M500 86C243 86 34-123 34-380s209-466 466-466 466 209 466 466c0 259-211 466-466 466zm0-32c240 0 434-194 434-434S740-814 500-814C258-814 66-618 66-380 66-140 260 54 500 54zm-20-181v-424H374v-53c53-9 91-23 125-41h63v518h-82" id="aM"/><use transform="matrix(0.018,0,0,0.018,0,0)" xlink:href="#aM" id="A"/><path fill="#fff" d="M92 0v-796h90c1 179-3 364 2 540l233-287h101L336-325 542 0h-99L284-262 182-143V0H92" id="aN"/><g id="B"><use transform="matrix(0.018,0,0,0.018,0,0)" xlink:href="#af"/><use transform="matrix(0.018,0,0,0.018,11.484,0)" xlink:href="#ab"/><use transform="matrix(0.018,0,0,0.018,21.636,0)" xlink:href="#M"/><use transform="matrix(0.018,0,0,0.018,26.766,0)" xlink:href="#M"/><use transform="matrix(0.018,0,0,0.018,31.895999999999997,0)" xlink:href="#an"/><use transform="matrix(0.018,0,0,0.018,43.019999999999996,0)" xlink:href="#ab"/><use transform="matrix(0.018,0,0,0.018,53.172,0)" xlink:href="#ag"/><use transform="matrix(0.018,0,0,0.018,62.333999999999996,0)" xlink:href="#aN"/></g><path fill="#fff" d="M92 0v-543h75l8 79h3c47-52 104-93 169-93 83 0 128 40 150 104 56-61 113-104 179-104 112 0 165 74 165 213V0h-91v-332c0-102-32-145-101-145-42 0-86 27-137 83V0h-91v-332c0-102-32-145-101-145-41 0-87 27-137 83V0H92" id="aO"/><g id="C"><use transform="matrix(0.018,0,0,0.018,0,0)" xlink:href="#N"/><use transform="matrix(0.018,0,0,0.018,8.424,0)" xlink:href="#O"/><use transform="matrix(0.018,0,0,0.018,15.407999999999996,0)" xlink:href="#ag"/><use transform="matrix(0.018,0,0,0.018,24.569999999999997,0)" xlink:href="#ah"/><use transform="matrix(0.018,0,0,0.018,31.625999999999998,0)" xlink:href="#aO"/><use transform="matrix(0.018,0,0,0.018,48.294,0)" xlink:href="#J"/><use transform="matrix(0.018,0,0,0.018,59.202,0)" xlink:href="#K"/><use transform="matrix(0.018,0,0,0.018,70.362,0)" xlink:href="#L"/><use transform="matrix(0.018,0,0,0.018,80.33399999999999,0)" xlink:href="#M"/><use transform="matrix(0.018,0,0,0.018,85.46399999999997,0)" xlink:href="#ah"/><use transform="matrix(0.018,0,0,0.018,92.51999999999998,0)" xlink:href="#ag"/><use transform="matrix(0.018,0,0,0.018,101.68199999999999,0)" xlink:href="#ab"/><use transform="matrix(0.018,0,0,0.018,111.83399999999999,0)" xlink:href="#M"/><use transform="matrix(0.018,0,0,0.018,116.96399999999998,0)" xlink:href="#M"/><use transform="matrix(0.018,0,0,0.018,122.09399999999998,0)" xlink:href="#an"/><use transform="matrix(0.018,0,0,0.018,133.218,0)" xlink:href="#ab"/><use transform="matrix(0.018,0,0,0.018,143.36999999999998,0)" xlink:href="#ag"/><use transform="matrix(0.018,0,0,0.018,152.53199999999998,0)" xlink:href="#aN"/></g><path fill="#333" d="M500 86C243 86 34-123 34-380s209-466 466-466 466 209 466 466c0 259-211 466-466 466zm0-32c240 0 434-194 434-434S740-814 500-814C258-814 66-618 66-380 66-140 260 54 500 54zM327-127v-48c168-147 264-239 264-321 0-58-33-95-102-95-49 0-90 28-122 59l-47-44c50-53 107-81 177-81 107 0 174 62 174 155 0 96-98 193-225 309 76-6 167-3 249-4v70H327" id="aP"/><use transform="matrix(0.018,0,0,0.018,0,0)" xlink:href="#aP" id="D"/></defs></g></svg>