<svg xmlns="http://www.w3.org/2000/svg" xmlns:xlink="http://www.w3.org/1999/xlink" xmlns:lucid="lucid" width="2820" height="1311"><g transform="translate(460 -160)" lucid:page-tab-id="0_0"><path d="M580 220c22.1 0 40 17.9 40 40s-17.9 40-40 40H460c-22.1 0-40-17.9-40-40s17.9-40 40-40z" stroke="#5e5e5e" stroke-width="3" fill="#fff"/><use xlink:href="#a" transform="matrix(1,0,0,1,425,225) translate(71.32222222222222 43.27777777777777)"/><path d="M360 506c0-3.3 2.7-6 6-6h308c3.3 0 6 2.7 6 6v148c0 3.3-2.7 6-6 6H366c-3.3 0-6-2.7-6-6z" stroke="#000" stroke-width="3" fill="#0c7cba"/><use xlink:href="#b" transform="matrix(1,0,0,1,372,512) translate(96.6111111111111 59.77777777777777)"/><use xlink:href="#c" transform="matrix(1,0,0,1,372,512) translate(13.444444444444429 92.66666666666666)"/><path d="M900 386c0-3.3 2.7-6 6-6h368c3.3 0 6 2.7 6 6v148c0 3.3-2.7 6-6 6H906c-3.3 0-6-2.7-6-6z" stroke="#000" stroke-width="3" fill="#0c7cba"/><use xlink:href="#d" transform="matrix(1,0,0,1,912,392) translate(15.28888888888892 59.77777777777777)"/><use xlink:href="#e" transform="matrix(1,0,0,1,912,392) translate(140.86666666666667 92.66666666666666)"/><path d="M360 846c0-3.3 2.7-6 6-6h276c3.3 0 6 2.7 6 6v147c-48.1-25.55-78.05-25.55-96.2-25.55-28.8 0-67.1 25.55-95.9 25.55-17.85 0-48.1 0-95.9-25.55z" stroke="#5e5e5e" stroke-width="3" fill="#0c7cba"/><path d="M376 859.5c0-3.3 2.7-6 6-6h276c3.3 0 6 2.7 6 6v147c-48.1-25.55-78.05-25.55-96.2-25.55-28.8 0-67.1 25.55-95.9 25.55-17.85 0-48.1 0-95.9-25.55z" stroke="#5e5e5e" stroke-width="3" fill="#0c7cba"/><path d="M392 873c0-3.3 2.7-6 6-6h276c3.3 0 6 2.7 6 6v147c-48.1-25.55-78.05-25.55-96.2-25.55-28.8 0-67.1 25.55-95.9 25.55-17.85 0-48.1 0-95.9-25.55z" stroke="#5e5e5e" stroke-width="3" fill="#0c7cba"/><use xlink:href="#f" transform="matrix(1,0,0,1,397,872) translate(80.65555555555555 51.59027777777777)"/><use xlink:href="#g" transform="matrix(1,0,0,1,397,872) translate(55.04444444444444 84.47916666666666)"/><path d="M-392 956c-26.5 0-48-16.12-48-36 0-15.9 13-29.32 33.17-34.24C-408 839-328 830-296 848c16-27 96-18 96 9 48-9 96 27 64 72 32 36 0 81-64 63-16 23.4-80 23.4-96 0-32 18-96 9-96-36z" stroke="#5e5e5e" stroke-width="3" fill="#c7e8ac"/><use xlink:href="#h" transform="matrix(1,0,0,1,-435,834.9999999999999) translate(116.64944444444446 95.24652777777777)"/><path d="M1980 1026c0-3.3 2.7-6 6-6h312c3.3 0 6 2.7 6 6v147c-54.1-25.55-87.8-25.55-108.22-25.55-32.4 0-75.5 25.55-107.9 25.55-20.08 0-54.1 0-107.88-25.55z" stroke="#5e5e5e" stroke-width="3" fill="#0c7cba"/><path d="M1998 1039.5c0-3.3 2.7-6 6-6h312c3.3 0 6 2.7 6 6v147c-54.1-25.55-87.8-25.55-108.22-25.55-32.4 0-75.5 25.55-107.9 25.55-20.08 0-54.1 0-107.88-25.55z" stroke="#5e5e5e" stroke-width="3" fill="#0c7cba"/><path d="M2016 1053c0-3.3 2.7-6 6-6h312c3.3 0 6 2.7 6 6v147c-54.1-25.55-87.8-25.55-108.22-25.55-32.4 0-75.5 25.55-107.9 25.55-20.08 0-54.1 0-107.88-25.55z" stroke="#5e5e5e" stroke-width="3" fill="#0c7cba"/><use xlink:href="#i" transform="matrix(1,0,0,1,2021,1052) translate(81.92222222222222 35.44444444444444)"/><use xlink:href="#j" transform="matrix(1,0,0,1,2021,1052) translate(188.72222222222223 35.44444444444444)"/><use xlink:href="#k" transform="matrix(1,0,0,1,2021,1052) translate(50.21111111111111 68.33333333333333)"/><use xlink:href="#l" transform="matrix(1,0,0,1,2021,1052) translate(18.066666666666634 101.22222222222221)"/><path d="M60 1206c0-3.3 2.7-6 6-6h276c3.3 0 6 2.7 6 6v147c-48.1-25.55-78.05-25.55-96.2-25.55-28.8 0-67.1 25.55-95.9 25.55-17.85 0-48.1 0-95.9-25.55z" stroke="#5e5e5e" stroke-width="3" fill="#0c7cba"/><path d="M76 1219.5c0-3.3 2.7-6 6-6h276c3.3 0 6 2.7 6 6v147c-48.1-25.55-78.05-25.55-96.2-25.55-28.8 0-67.1 25.55-95.9 25.55-17.85 0-48.1 0-95.9-25.55z" stroke="#5e5e5e" stroke-width="3" fill="#0c7cba"/><path d="M92 1233c0-3.3 2.7-6 6-6h276c3.3 0 6 2.7 6 6v147c-48.1-25.55-78.05-25.55-96.2-25.55-28.8 0-67.1 25.55-95.9 25.55-17.85 0-48.1 0-95.9-25.55z" stroke="#5e5e5e" stroke-width="3" fill="#0c7cba"/><use xlink:href="#m" transform="matrix(1,0,0,1,97,1232) translate(80.88888888888889 70.02777777777777)"/><path d="M900 856.14c0-3.3 2.7-6 6-6h308c3.3 0 6 2.7 6 6v148c0 3.32-2.7 6-6 6H906c-3.3 0-6-2.68-6-6z" stroke="#000" stroke-width="3" fill="#0c7cba"/><use xlink:href="#n" transform="matrix(1,0,0,1,912,862.1447174413212) translate(31.144444444444446 59.77777777777777)"/><use xlink:href="#o" transform="matrix(1,0,0,1,912,862.1447174413212) translate(87.48888888888888 92.66666666666666)"/><path d="M767.78 931.14H682.5v-2h85.28m112.22 2h-67.78v-2H880" fill="#5e5e5e"/><path d="M682.53 931.14h-1.03v-2h1.03M895.26 930.14L881 934.78v-9.27z" fill="#5e5e5e"/><path d="M898.5 930.14l-18.5 6.02v-12.03m2 9.27l10.03-3.26L882 926.9" fill="#5e5e5e"/><use xlink:href="#p" transform="matrix(1,0,0,1,767.7777777777778,897.2558285524323) translate(0 51.555555555555536)"/><path d="M900 1206c0-3.3 2.7-6 6-6h308c3.3 0 6 2.7 6 6v148c0 3.3-2.7 6-6 6H906c-3.3 0-6-2.7-6-6z" stroke="#000" stroke-width="3" fill="#0c7cba"/><use xlink:href="#n" transform="matrix(1,0,0,1,912,1212) translate(31.144444444444446 59.77777777777777)"/><use xlink:href="#q" transform="matrix(1,0,0,1,912,1212) translate(103.94444444444444 92.66666666666666)"/><path d="M1400 1206c0-3.3 2.7-6 6-6h388c3.3 0 6 2.7 6 6v148c0 3.3-2.7 6-6 6h-388c-3.3 0-6-2.7-6-6z" stroke="#000" stroke-width="3" fill="#0c7cba"/><use xlink:href="#r" transform="matrix(1,0,0,1,1412,1212) translate(39.17777777777778 59.77777777777777)"/><use xlink:href="#s" transform="matrix(1,0,0,1,1412,1212) translate(127.48888888888888 92.66666666666666)"/><path d="M1061 1180h-2v-42.04h2m0-65.78h-2v-59.54h2" fill="#5e5e5e"/><path d="M1061 1012.67h-2v-1.03h2M1060 1195.26l-4.64-14.26h9.28z" fill="#5e5e5e"/><path d="M1060 1198.5l-6-18.5h12m-9.26 2l3.26 10.03 3.26-10.03" fill="#5e5e5e"/><use xlink:href="#t" transform="matrix(1,0,0,1,1037.7777777777778,1072.1834698317716) translate(0 51.555555555555536)"/><path d="M1287.78 1281h-65.28v-2h65.28m92.22 2h-47.78v-2H1380" fill="#5e5e5e"/><path d="M1222.53 1281h-1.03v-2h1.03M1395.26 1280l-14.26 4.64v-9.28z" fill="#5e5e5e"/><path d="M1398.5 1280l-18.5 6v-12m2 9.26l10.03-3.26-10.03-3.26" fill="#5e5e5e"/><use xlink:href="#u" transform="matrix(1,0,0,1,1287.7777777777778,1247.111111111111) translate(0 51.555555555555536)"/><path d="M1400 856c0-3.3 2.7-6 6-6h388c3.3 0 6 2.7 6 6v148c0 3.3-2.7 6-6 6h-388c-3.3 0-6-2.7-6-6z" stroke="#000" stroke-width="3" fill="#0c7cba"/><use xlink:href="#v" transform="matrix(1,0,0,1,1412,862) translate(29.855555555555583 59.77777777777777)"/><use xlink:href="#w" transform="matrix(1,0,0,1,1412,862) translate(164.4 92.66666666666666)"/><path d="M1601 1197.5h-2v-59.6h2m0-65.8h-2V1030h2" fill="#5e5e5e"/><path d="M1601 1198.5h-2v-1.03h2M1604.64 1029h-9.28l4.64-14.26z" fill="#5e5e5e"/><path d="M1606 1030h-12l6-18.5m-3.26 16.5h6.52l-3.26-10.03" fill="#5e5e5e"/><use xlink:href="#x" transform="matrix(1,0,0,1,1577.7777777777778,1072.111111111111) translate(0 51.555555555555536)"/><path d="M1980 666c0-3.3 2.7-6 6-6h312c3.3 0 6 2.7 6 6v147c-54.1-25.55-87.8-25.55-108.22-25.55-32.4 0-75.5 25.55-107.9 25.55-20.08 0-54.1 0-107.88-25.55z" stroke="#5e5e5e" stroke-width="3" fill="#0c7cba"/><path d="M1998 679.5c0-3.3 2.7-6 6-6h312c3.3 0 6 2.7 6 6v147c-54.1-25.55-87.8-25.55-108.22-25.55-32.4 0-75.5 25.55-107.9 25.55-20.08 0-54.1 0-107.88-25.55z" stroke="#5e5e5e" stroke-width="3" fill="#0c7cba"/><path d="M2016 693c0-3.3 2.7-6 6-6h312c3.3 0 6 2.7 6 6v147c-54.1-25.55-87.8-25.55-108.22-25.55-32.4 0-75.5 25.55-107.9 25.55-20.08 0-54.1 0-107.88-25.55z" stroke="#5e5e5e" stroke-width="3" fill="#0c7cba"/><use xlink:href="#y" transform="matrix(1,0,0,1,2021,692) translate(74.0111111111111 70.02777777777777)"/><path d="M1802.5 930h81.5c3.3 0 6-2.7 6-6V745.87c0-3.32 2.7-6 6-6h64" stroke="#5e5e5e" stroke-width="2" fill="none"/><path d="M1802.53 931h-1.03v-2h1.03" fill="#5e5e5e"/><path d="M1975.26 739.87L1961 744.5v-9.27z" stroke="#5e5e5e" stroke-width="2" fill="#5e5e5e"/><path d="M1437.5 260H640" stroke="#5e5e5e" stroke-width="2" fill="none"/><path d="M1438.5 261h-1.03v-2h1.03" fill="#5e5e5e"/><path d="M624.74 260l14.26-4.64v9.28z" stroke="#5e5e5e" stroke-width="2" fill="#5e5e5e"/><path d="M1600 847.5V360" stroke="#5e5e5e" stroke-width="2" fill="none"/><path d="M1601 848.5h-2v-1.03h2" fill="#5e5e5e"/><path d="M1600 344.74l4.64 14.26h-9.28z" stroke="#5e5e5e" stroke-width="2" fill="#5e5e5e"/><path d="M521 480h-2v-47.1h2m0-65.8h-2v-64.6h2" fill="#5e5e5e"/><path d="M521 302.53h-2v-1.03h2M520 495.26L515.36 481h9.28z" fill="#5e5e5e"/><path d="M520 498.5l-6-18.5h12m-9.26 2l3.26 10.03 3.26-10.03" fill="#5e5e5e"/><use xlink:href="#z" transform="matrix(1,0,0,1,497.77777777777777,367.11111111111114) translate(0 51.555555555555536)"/><path d="M341.44 1101h-115.3l-2.65.7-1.8 1.8-.7 2.63V1180h-2v-74.13l.92-3.42 2.53-2.53 3.42-.92h115.57m179.56-4.87l-.92 3.42-2.53 2.53-3.42.92H385.9v-2h127.97l2.64-.7 1.8-1.8.7-2.63v-78.7h2" fill="#5e5e5e"/><path d="M521 1015.2h-2v-.68l2-.7M220 1195.26l-4.64-14.26h9.28z" fill="#5e5e5e"/><path d="M220 1198.5l-6-18.5h12m-9.26 2l3.26 10.03 3.26-10.03" fill="#5e5e5e"/><use xlink:href="#A" transform="matrix(1,0,0,1,341.4414421342347,1067.111111111111) translate(0 51.555555555555536)"/><path d="M2161 1454.13l-.92 3.42-2.53 2.53-3.42.92H525.87l-3.42-.92-2.53-2.53-.92-3.42v-141.5h2v141.24l.7 2.64 1.8 1.8 2.63.7h1627.74l2.64-.7 1.8-1.8.7-2.63V1213h2m-1640 33.85h-2v-231.68h2" fill="#5e5e5e"/><path d="M521 1015.2h-2v-.68l2-.7M2164.64 1212h-9.28l4.64-14.25z" fill="#5e5e5e"/><path d="M2166 1213h-12l6-18.5m-3.26 16.5h6.52L2160 1201" fill="#5e5e5e"/><use xlink:href="#B" transform="matrix(1,0,0,1,497.77777777777777,1246.847034359974) translate(0 51.555555555555536)"/><path d="M791 574.13l-.92 3.42-2.53 2.53-3.42.92H682.5v-2h101.37l2.64-.7 1.8-1.8.7-2.63V552.9h2m89-91.9h-83.87l-2.64.7-1.8 1.8-.7 2.63v20.98h-2v-21.23l.92-3.42 2.53-2.53 3.42-.92H880" fill="#5e5e5e"/><path d="M682.53 581h-1.03v-2h1.03M895.26 460L881 464.64v-9.28z" fill="#5e5e5e"/><path d="M898.5 460l-18.5 6v-12m2 9.26l10.03-3.26-10.03-3.26" fill="#5e5e5e"/><use xlink:href="#C" transform="matrix(1,0,0,1,767.7777777777778,487.11111111111114) translate(0 51.555555555555536)"/><path d="M521 820h-2v-46.44h2m0-65.77h-2v-45.3h2" fill="#5e5e5e"/><path d="M521 662.53h-2v-1.03h2M520 835.26L515.36 821h9.28z" fill="#5e5e5e"/><path d="M520 838.5l-6-18.5h12m-9.26 2l3.26 10.03 3.26-10.03" fill="#5e5e5e"/><use xlink:href="#D" transform="matrix(1,0,0,1,497.77777777777777,707.7863910257871) translate(0 51.555555555555536)"/><path d="M1960 1110.14h-64c-3.3 0-6-2.68-6-6V936c0-3.3-2.7-6-6-6h-81.5" stroke="#5e5e5e" stroke-width="2" fill="none"/><path d="M1975.26 1110.14l-14.26 4.64v-9.27z" stroke="#5e5e5e" stroke-width="2" fill="#5e5e5e"/><path d="M1802.53 931h-1.03v-2h1.03" fill="#5e5e5e"/><path d="M220 984c0 8.84-44.77 16-100 16s-100-7.16-100-16V856c0-8.84 44.77-16 100-16s100 7.16 100 16z" stroke="#5e5e5e" stroke-width="3" fill="#0c7cba"/><path d="M220 856c0 8.84-44.77 16-100 16s-100-7.16-100-16" stroke="#5e5e5e" stroke-width="3" fill="none"/><use xlink:href="#E" transform="matrix(1,0,0,1,25,876.9999999999999) translate(51.74444444444444 70.40277777777777)"/><path d="M240 920h100" stroke="#5e5e5e" stroke-width="2" fill="none"/><path d="M224.74 920l14.26-4.64v9.28zM355.26 920L341 924.64v-9.28z" stroke="#5e5e5e" stroke-width="2" fill="#5e5e5e"/><path d="M0 920h-110.44" stroke="#5e5e5e" stroke-width="2" fill="none"/><path d="M15.26 920L1 924.64v-9.28zM-125.7 920l14.26-4.64v9.28z" stroke="#5e5e5e" stroke-width="2" fill="#5e5e5e"/><path d="M900 626c0-3.3 2.7-6 6-6h330c3.3 0 6 2.7 6 6v147c-57.1-25.55-92.68-25.55-114.23-25.55-34.2 0-79.68 25.55-113.88 25.55-21.22 0-57.13 0-113.9-25.55z" stroke="#5e5e5e" stroke-width="3" fill="#0c7cba"/><path d="M919 639.5c0-3.3 2.7-6 6-6h330c3.3 0 6 2.7 6 6v147c-57.1-25.55-92.68-25.55-114.23-25.55-34.2 0-79.68 25.55-113.88 25.55-21.22 0-57.13 0-113.9-25.55z" stroke="#5e5e5e" stroke-width="3" fill="#0c7cba"/><path d="M938 653c0-3.3 2.7-6 6-6h330c3.3 0 6 2.7 6 6v147c-57.1-25.55-92.68-25.55-114.23-25.55-34.2 0-79.68 25.55-113.88 25.55-21.22 0-57.13 0-113.9-25.55z" stroke="#5e5e5e" stroke-width="3" fill="#0c7cba"/><g><use xlink:href="#m" transform="matrix(1,0,0,1,943,652) translate(104.88888888888889 70.02777777777777)"/></g><path d="M791 703.87l.7 2.64 1.8 1.8 2.63.7H880v2h-84.13l-3.42-.92-2.53-2.53-.92-3.42V677.9h2m-3.45-97.98l2.53 2.53.92 3.42v26.24h-2v-25.97l-.7-2.64-1.8-1.8-2.63-.7H682.5v-2h101.63" fill="#5e5e5e"/><path d="M682.53 581h-1.03v-2h1.03M895.26 710L881 714.64v-9.28z" fill="#5e5e5e"/><path d="M898.5 710l-18.5 6v-12m2 9.26l10.03-3.26-10.03-3.26" fill="#5e5e5e"/><g><use xlink:href="#F" transform="matrix(1,0,0,1,767.7777777777778,612.1111111111111) translate(0 51.555555555555536)"/></g><path d="M1440 186c0-3.3 2.7-6 6-6h308c3.3 0 6 2.7 6 6v148c0 3.3-2.7 6-6 6h-308c-3.3 0-6-2.7-6-6z" stroke="#000" stroke-width="3" fill="#c1e4f7"/><g><use xlink:href="#G" transform="matrix(1,0,0,1,1452,192) translate(94.54444444444445 59.77777777777777)"/><use xlink:href="#H" transform="matrix(1,0,0,1,1452,192) translate(66.85555555555555 92.66666666666666)"/><use xlink:href="#I" transform="matrix(1,0,0,1,1452,192) translate(156.2111111111111 92.66666666666666)"/></g><defs><path fill="#333" d="M360 13C211 13 97-67 97-303v-430h93v433c0 177 75 232 170 232 98 0 175-55 175-232v-433h89v430C624-67 510 13 360 13" id="J"/><path fill="#333" d="M234 13C157 13 83-19 31-62l45-60c47 38 96 64 161 64 72 0 107-38 107-85 0-55-64-80-124-103-76-28-162-65-162-157 0-86 69-154 187-154 67 0 126 28 169 61l-44 59c-38-28-76-48-125-48-68 0-99 36-99 78 0 52 59 71 120 94 79 30 166 62 166 165 0 88-70 161-198 161" id="K"/><path fill="#333" d="M311 13C167 13 51-92 51-271c0-176 119-286 245-286 154-3 234 132 212 307H142c6 116 77 190 180 190 53 0 96-16 136-43l33 60c-48 31-106 56-180 56zM141-315h291c0-110-50-169-135-169-77 0-145 62-156 169" id="L"/><path fill="#333" d="M92 0v-543h75l8 99h3c50-86 117-137 212-101l-17 80c-18-7-31-9-53-9-45 0-101 32-137 125V0H92" id="M"/><g id="a"><use transform="matrix(0.022222222222222223,0,0,0.022222222222222223,0,0)" xlink:href="#J"/><use transform="matrix(0.022222222222222223,0,0,0.022222222222222223,16.022222222222222,0)" xlink:href="#K"/><use transform="matrix(0.022222222222222223,0,0,0.022222222222222223,26.422222222222224,0)" xlink:href="#L"/><use transform="matrix(0.022222222222222223,0,0,0.022222222222222223,38.733333333333334,0)" xlink:href="#M"/></g><path fill="#fff" d="M234 13C157 13 83-19 31-62l45-60c47 38 96 64 161 64 72 0 107-38 107-85 0-55-64-80-124-103-76-28-162-65-162-157 0-86 69-154 187-154 67 0 126 28 169 61l-44 59c-38-28-76-48-125-48-68 0-99 36-99 78 0 52 59 71 120 94 79 30 166 62 166 165 0 88-70 161-198 161" id="N"/><path fill="#fff" d="M92 0v-543h75l8 99h3c50-86 117-137 212-101l-17 80c-18-7-31-9-53-9-45 0-101 32-137 125V0H92" id="O"/><path fill="#fff" d="M306 13C162 13 51-91 51-271c0-181 123-286 262-286 71 0 120 30 159 64l-47 61c-32-29-65-49-109-49-98 0-170 85-170 210S214-63 314-63c50 0 94-23 128-54l39 61c-48 44-110 69-175 69" id="P"/><path fill="#fff" d="M11 179l300-972h66L78 179H11" id="Q"/><path fill="#fff" d="M191-298h222c-37-120-75-237-109-360h-4c-33 124-71 241-109 360zM506 0l-70-224H168L97 0H3l249-733h103L604 0h-98" id="R"/><path fill="#fff" d="M92 229v-772h75l8 62h3c49-40 110-76 173-76 140 0 216 110 216 277C567-22 349 94 181-50c3 91 2 185 2 279H92zm91-349C317-1 471-73 472-279c0-120-40-201-143-201-46 0-93 26-146 75v285" id="S"/><path fill="#fff" d="M139 13c-36 0-66-28-66-69s30-71 66-71 66 30 66 71-30 69-66 69" id="T"/><path fill="#fff" d="M36 243c-33 0-61-7-80-14l18-70c14 5 32 10 51 10 55 0 68-41 68-107v-605h91V62c0 111-41 181-148 181zm103-898c-36 0-63-25-63-59 0-37 27-59 63-59 35 0 63 22 63 59 0 34-28 59-63 59" id="U"/><g id="b"><use transform="matrix(0.022222222222222223,0,0,0.022222222222222223,0,0)" xlink:href="#N"/><use transform="matrix(0.022222222222222223,0,0,0.022222222222222223,10.4,0)" xlink:href="#O"/><use transform="matrix(0.022222222222222223,0,0,0.022222222222222223,19.022222222222222,0)" xlink:href="#P"/><use transform="matrix(0.022222222222222223,0,0,0.022222222222222223,30.333333333333336,0)" xlink:href="#Q"/><use transform="matrix(0.022222222222222223,0,0,0.022222222222222223,39.04444444444445,0)" xlink:href="#R"/><use transform="matrix(0.022222222222222223,0,0,0.022222222222222223,52.53333333333334,0)" xlink:href="#S"/><use transform="matrix(0.022222222222222223,0,0,0.022222222222222223,66.31111111111112,0)" xlink:href="#S"/><use transform="matrix(0.022222222222222223,0,0,0.022222222222222223,80.0888888888889,0)" xlink:href="#T"/><use transform="matrix(0.022222222222222223,0,0,0.022222222222222223,86.26666666666668,0)" xlink:href="#U"/><use transform="matrix(0.022222222222222223,0,0,0.022222222222222223,92.37777777777781,0)" xlink:href="#N"/></g><path fill="#fff" d="M263 13c-116 0-155-72-155-181v-301H27v-69l85-5 11-152h76v152h147v74H199v303c0 67 21 105 84 105 19 0 44-7 62-14l18 68c-31 10-67 20-100 20" id="V"/><path fill="#fff" d="M92 0v-796h91c0 111 1 223-3 330 50-50 106-91 180-91 114 0 166 74 166 213V0h-91v-332c0-102-31-145-103-145-56 0-94 28-149 83V0H92" id="W"/><path fill="#fff" d="M92 0v-543h91V0H92zm46-655c-36 0-63-25-63-59 0-37 27-59 63-59s63 22 63 59c0 34-27 59-63 59" id="X"/><path fill="#fff" d="M217 13C126 13 58-43 58-141c0-118 103-177 334-203 0-70-23-137-112-137-63 0-120 29-163 58l-36-63c50-32 127-71 214-71 132 0 188 89 188 223V0h-75l-8-65h-3c-52 43-113 78-180 78zm26-73c53 0 96-25 149-72v-152c-183 22-245 67-245 137 0 62 42 87 96 87" id="Y"/><path fill="#fff" d="M275 250c-133 0-225-52-225-146 0-46 30-90 81-123v-4c-29-17-50-46-50-89 0-45 33-81 61-101v-4c-36-29-71-81-71-146-2-145 144-228 280-180h189v70H429c26 25 44 65 44 112 4 144-147 228-279 170-52 42-57 131 60 124h106c126 0 189 40 189 129 0 101-106 188-274 188zm0-484c62 0 115-50 115-129s-51-127-115-127-116 47-116 127c0 79 53 129 116 129zm13 422c104 0 173-55 173-112 0-103-183-49-275-76-106 75-57 194 102 188" id="Z"/><path fill="#fff" d="M303 13C170 13 51-91 51-271c0-181 119-286 252-286s252 105 252 286C555-91 436 13 303 13zm0-76c94 0 158-83 158-208s-64-210-158-210-157 85-157 210S209-63 303-63" id="aa"/><path fill="#fff" d="M235 0L1-733h97c64 212 127 426 190 639h4c63-213 125-426 189-639h94L342 0H235" id="ab"/><path fill="#fff" d="M311 13C167 13 51-92 51-271c0-176 119-286 245-286 154-3 234 132 212 307H142c6 116 77 190 180 190 53 0 96-16 136-43l33 60c-48 31-106 56-180 56zM141-315h291c0-110-50-169-135-169-77 0-145 62-156 169" id="ac"/><path fill="#fff" d="M178 0L27-543h93c39 154 83 304 113 466h5c36-159 81-311 121-466h89c41 154 85 308 123 466h4c34-159 75-312 114-466h86L629 0H519c-39-150-82-293-116-449h-5C365-294 323-150 285 0H178" id="ad"/><path fill="#fff" d="M239 197C147 47 92-114 92-311c0-196 55-358 147-507l57 26c-171 284-171 678 0 962" id="ae"/><path fill="#fff" d="M304 170c-119 6-181-11-180-149 0-81 10-140 10-215 0-44-20-87-96-88v-57c76-1 96-44 96-87 0-76-10-135-10-216-1-138 61-155 180-149v51c-79-6-105 18-105 103 0 105 45 306-61 324v4c105 20 61 218 61 325 0 85 26 108 105 102v52" id="af"/><path fill="#fff" d="M100 0v-733h209c165 0 275 55 275 215 0 155-110 227-270 227H193V0h-93zm93-366h109c129 0 190-47 190-152 0-106-65-140-194-140H193v292" id="ag"/><path fill="#fff" d="M34 170v-52c79 6 105-17 105-102 0-107-42-304 61-325v-4c-104-18-61-220-61-324 0-85-25-109-105-103v-51c119-6 181 11 180 149 0 81-9 140-9 216 0 43 19 86 95 87v57c-76 1-95 44-95 88 0 75 9 134 9 215 1 138-61 155-180 149" id="ah"/><path fill="#fff" d="M99 197l-56-27c171-284 171-678 0-962l56-26c93 149 148 311 148 507 0 197-55 358-148 508" id="ai"/><g id="c"><use transform="matrix(0.022222222222222223,0,0,0.022222222222222223,0,0)" xlink:href="#V"/><use transform="matrix(0.022222222222222223,0,0,0.022222222222222223,8.377777777777778,0)" xlink:href="#W"/><use transform="matrix(0.022222222222222223,0,0,0.022222222222222223,21.866666666666667,0)" xlink:href="#X"/><use transform="matrix(0.022222222222222223,0,0,0.022222222222222223,27.977777777777778,0)" xlink:href="#N"/><use transform="matrix(0.022222222222222223,0,0,0.022222222222222223,38.37777777777778,0)" xlink:href="#T"/><use transform="matrix(0.022222222222222223,0,0,0.022222222222222223,44.55555555555556,0)" xlink:href="#Y"/><use transform="matrix(0.022222222222222223,0,0,0.022222222222222223,57.08888888888889,0)" xlink:href="#S"/><use transform="matrix(0.022222222222222223,0,0,0.022222222222222223,70.86666666666667,0)" xlink:href="#S"/><use transform="matrix(0.022222222222222223,0,0,0.022222222222222223,84.64444444444445,0)" xlink:href="#T"/><use transform="matrix(0.022222222222222223,0,0,0.022222222222222223,90.82222222222222,0)" xlink:href="#Z"/><use transform="matrix(0.022222222222222223,0,0,0.022222222222222223,103.33333333333334,0)" xlink:href="#aa"/><use transform="matrix(0.022222222222222223,0,0,0.022222222222222223,116.80000000000001,0)" xlink:href="#V"/><use transform="matrix(0.022222222222222223,0,0,0.022222222222222223,125.17777777777778,0)" xlink:href="#aa"/><use transform="matrix(0.022222222222222223,0,0,0.022222222222222223,138.64444444444445,0)" xlink:href="#ab"/><use transform="matrix(0.022222222222222223,0,0,0.022222222222222223,151.42222222222222,0)" xlink:href="#X"/><use transform="matrix(0.022222222222222223,0,0,0.022222222222222223,157.53333333333333,0)" xlink:href="#ac"/><use transform="matrix(0.022222222222222223,0,0,0.022222222222222223,169.84444444444443,0)" xlink:href="#ad"/><use transform="matrix(0.022222222222222223,0,0,0.022222222222222223,187.66666666666669,0)" xlink:href="#ae"/><use transform="matrix(0.022222222222222223,0,0,0.022222222222222223,195.17777777777778,0)" xlink:href="#af"/><use transform="matrix(0.022222222222222223,0,0,0.022222222222222223,202.6888888888889,0)" xlink:href="#ag"/><use transform="matrix(0.022222222222222223,0,0,0.022222222222222223,216.73333333333335,0)" xlink:href="#Y"/><use transform="matrix(0.022222222222222223,0,0,0.022222222222222223,229.26666666666668,0)" xlink:href="#Z"/><use transform="matrix(0.022222222222222223,0,0,0.022222222222222223,241.7777777777778,0)" xlink:href="#ac"/><use transform="matrix(0.022222222222222223,0,0,0.022222222222222223,254.0888888888889,0)" xlink:href="#ah"/><use transform="matrix(0.022222222222222223,0,0,0.022222222222222223,261.6,0)" xlink:href="#ai"/></g><path fill="#fff" d="M209 0L13-543h95c51 155 104 312 153 469h4c48-158 101-314 153-469h90L315 0H209" id="aj"/><path fill="#fff" d="M377 13C195 13 58-128 58-366c0-237 139-381 325-381 89 0 159 44 201 91l-50 60c-38-41-87-70-150-70-139 0-231 114-231 297 0 185 88 301 228 301 70 0 123-31 170-82l51 58C544-25 472 13 377 13" id="ak"/><path fill="#fff" d="M250 13C136 13 85-61 85-199v-344h91v333c0 101 30 144 102 144 56 0 95-27 147-92v-385h91V0h-76l-7-85h-3c-51 59-105 98-180 98" id="al"/><path fill="#fff" d="M92 0v-543h75l8 78h3c52-51 108-92 182-92 114 0 166 74 166 213V0h-91v-332c0-102-31-145-103-145-56 0-94 28-149 83V0H92" id="am"/><path fill="#fff" d="M100 0v-733h112c65 181 131 360 193 545h5c59-186 126-364 190-545h112V0h-87c2-212-8-425 12-622h-4C570-437 502-256 436-74h-62c-66-182-134-363-197-548h-4c18 198 9 411 11 622h-84" id="an"/><path fill="#fff" d="M277 13C141 13 53-90 53-271c-5-249 231-368 388-222-8-95-4-201-5-303h91V0h-74c-4-21-4-46-11-64-43 42-100 77-165 77zm20-76c50 0 94-25 139-75v-285c-123-120-291-42-289 151 0 131 54 209 150 209" id="ao"/><path fill="#fff" d="M241 5C155 32 92-8 92-108v-688h91v694c3 37 15 43 45 37" id="ap"/><g id="d"><use transform="matrix(0.022222222222222223,0,0,0.022222222222222223,0,0)" xlink:href="#N"/><use transform="matrix(0.022222222222222223,0,0,0.022222222222222223,10.4,0)" xlink:href="#O"/><use transform="matrix(0.022222222222222223,0,0,0.022222222222222223,19.022222222222222,0)" xlink:href="#P"/><use transform="matrix(0.022222222222222223,0,0,0.022222222222222223,30.333333333333336,0)" xlink:href="#Q"/><use transform="matrix(0.022222222222222223,0,0,0.022222222222222223,39.04444444444445,0)" xlink:href="#aj"/><use transform="matrix(0.022222222222222223,0,0,0.022222222222222223,50.62222222222223,0)" xlink:href="#X"/><use transform="matrix(0.022222222222222223,0,0,0.022222222222222223,56.73333333333335,0)" xlink:href="#ac"/><use transform="matrix(0.022222222222222223,0,0,0.022222222222222223,69.04444444444445,0)" xlink:href="#ad"/><use transform="matrix(0.022222222222222223,0,0,0.022222222222222223,86.86666666666667,0)" xlink:href="#Q"/><use transform="matrix(0.022222222222222223,0,0,0.022222222222222223,95.57777777777778,0)" xlink:href="#af"/><use transform="matrix(0.022222222222222223,0,0,0.022222222222222223,103.08888888888889,0)" xlink:href="#ak"/><use transform="matrix(0.022222222222222223,0,0,0.022222222222222223,117.26666666666667,0)" xlink:href="#al"/><use transform="matrix(0.022222222222222223,0,0,0.022222222222222223,130.75555555555556,0)" xlink:href="#O"/><use transform="matrix(0.022222222222222223,0,0,0.022222222222222223,139.3777777777778,0)" xlink:href="#O"/><use transform="matrix(0.022222222222222223,0,0,0.022222222222222223,148.00000000000003,0)" xlink:href="#ac"/><use transform="matrix(0.022222222222222223,0,0,0.022222222222222223,160.31111111111113,0)" xlink:href="#am"/><use transform="matrix(0.022222222222222223,0,0,0.022222222222222223,173.8888888888889,0)" xlink:href="#V"/><use transform="matrix(0.022222222222222223,0,0,0.022222222222222223,182.26666666666668,0)" xlink:href="#ah"/><use transform="matrix(0.022222222222222223,0,0,0.022222222222222223,189.77777777777777,0)" xlink:href="#ab"/><use transform="matrix(0.022222222222222223,0,0,0.022222222222222223,202.55555555555557,0)" xlink:href="#X"/><use transform="matrix(0.022222222222222223,0,0,0.022222222222222223,208.66666666666669,0)" xlink:href="#ac"/><use transform="matrix(0.022222222222222223,0,0,0.022222222222222223,220.9777777777778,0)" xlink:href="#ad"/><use transform="matrix(0.022222222222222223,0,0,0.022222222222222223,238.8,0)" xlink:href="#an"/><use transform="matrix(0.022222222222222223,0,0,0.022222222222222223,256.84444444444443,0)" xlink:href="#aa"/><use transform="matrix(0.022222222222222223,0,0,0.022222222222222223,270.3111111111111,0)" xlink:href="#ao"/><use transform="matrix(0.022222222222222223,0,0,0.022222222222222223,284.08888888888885,0)" xlink:href="#ac"/><use transform="matrix(0.022222222222222223,0,0,0.022222222222222223,296.4,0)" xlink:href="#ap"/><use transform="matrix(0.022222222222222223,0,0,0.022222222222222223,302.7333333333333,0)" xlink:href="#T"/><use transform="matrix(0.022222222222222223,0,0,0.022222222222222223,308.9111111111111,0)" xlink:href="#U"/><use transform="matrix(0.022222222222222223,0,0,0.022222222222222223,315.0222222222222,0)" xlink:href="#N"/></g><path fill="#fff" d="M567-281C567-18 341 97 176-56h-3l-8 56H92v-796h91c0 106 2 214-3 316 49-43 110-77 170-77 141 0 217 110 217 276zM183-120C317-1 471-73 472-279c0-120-40-201-143-201-46 0-94 26-146 75v285" id="aq"/><g id="e"><use transform="matrix(0.022222222222222223,0,0,0.022222222222222223,0,0)" xlink:href="#al"/><use transform="matrix(0.022222222222222223,0,0,0.022222222222222223,13.488888888888889,0)" xlink:href="#am"/><use transform="matrix(0.022222222222222223,0,0,0.022222222222222223,27.066666666666666,0)" xlink:href="#aq"/><use transform="matrix(0.022222222222222223,0,0,0.022222222222222223,40.8,0)" xlink:href="#X"/><use transform="matrix(0.022222222222222223,0,0,0.022222222222222223,46.91111111111111,0)" xlink:href="#am"/><use transform="matrix(0.022222222222222223,0,0,0.022222222222222223,60.488888888888894,0)" xlink:href="#ao"/></g><path fill="#fff" d="M436 229c0-99-2-200 5-292-44 43-101 76-164 76C141 13 53-90 53-271c-5-250 233-370 390-220h3l9-52h72v772h-91zM297-63c50 0 94-25 139-75v-285c-123-120-291-42-289 151 0 131 54 209 150 209" id="ar"/><g id="f"><use transform="matrix(0.022222222222222223,0,0,0.022222222222222223,0,0)" xlink:href="#O"/><use transform="matrix(0.022222222222222223,0,0,0.022222222222222223,8.622222222222222,0)" xlink:href="#ac"/><use transform="matrix(0.022222222222222223,0,0,0.022222222222222223,20.933333333333334,0)" xlink:href="#ar"/><use transform="matrix(0.022222222222222223,0,0,0.022222222222222223,34.71111111111111,0)" xlink:href="#al"/><use transform="matrix(0.022222222222222223,0,0,0.022222222222222223,48.19999999999999,0)" xlink:href="#ac"/><use transform="matrix(0.022222222222222223,0,0,0.022222222222222223,60.511111111111106,0)" xlink:href="#N"/><use transform="matrix(0.022222222222222223,0,0,0.022222222222222223,70.91111111111111,0)" xlink:href="#V"/><use transform="matrix(0.022222222222222223,0,0,0.022222222222222223,79.28888888888889,0)" xlink:href="#N"/></g><g id="g"><use transform="matrix(0.022222222222222223,0,0,0.022222222222222223,0,0)" xlink:href="#ae"/><use transform="matrix(0.022222222222222223,0,0,0.022222222222222223,7.511111111111111,0)" xlink:href="#O"/><use transform="matrix(0.022222222222222223,0,0,0.022222222222222223,16.133333333333333,0)" xlink:href="#aa"/><use transform="matrix(0.022222222222222223,0,0,0.022222222222222223,29.6,0)" xlink:href="#al"/><use transform="matrix(0.022222222222222223,0,0,0.022222222222222223,43.08888888888889,0)" xlink:href="#V"/><use transform="matrix(0.022222222222222223,0,0,0.022222222222222223,51.46666666666667,0)" xlink:href="#X"/><use transform="matrix(0.022222222222222223,0,0,0.022222222222222223,57.57777777777778,0)" xlink:href="#am"/><use transform="matrix(0.022222222222222223,0,0,0.022222222222222223,71.15555555555557,0)" xlink:href="#Z"/><use transform="matrix(0.022222222222222223,0,0,0.022222222222222223,83.66666666666667,0)" xlink:href="#T"/><use transform="matrix(0.022222222222222223,0,0,0.022222222222222223,89.84444444444445,0)" xlink:href="#U"/><use transform="matrix(0.022222222222222223,0,0,0.022222222222222223,95.95555555555556,0)" xlink:href="#N"/><use transform="matrix(0.022222222222222223,0,0,0.022222222222222223,106.35555555555555,0)" xlink:href="#aa"/><use transform="matrix(0.022222222222222223,0,0,0.022222222222222223,119.82222222222225,0)" xlink:href="#am"/><use transform="matrix(0.022222222222222223,0,0,0.022222222222222223,133.4,0)" xlink:href="#ai"/></g><path fill="#333" d="M388 13C195 13 58-128 58-366c0-237 142-381 336-381 102 0 169 46 211 91l-50 60c-37-39-84-70-159-70-147 0-243 114-243 297 0 185 87 301 244 301 53 0 104-16 133-43v-192H375v-77h240v308c-47 49-128 85-227 85" id="as"/><path fill="#333" d="M241 5C155 32 92-8 92-108v-688h91v694c3 37 15 43 45 37" id="at"/><path fill="#333" d="M303 13C170 13 51-91 51-271c0-181 119-286 252-286s252 105 252 286C555-91 436 13 303 13zm0-76c94 0 158-83 158-208s-64-210-158-210-157 85-157 210S209-63 303-63" id="au"/><path fill="#333" d="M567-281C567-18 341 97 176-56h-3l-8 56H92v-796h91c0 106 2 214-3 316 49-43 110-77 170-77 141 0 217 110 217 276zM183-120C317-1 471-73 472-279c0-120-40-201-143-201-46 0-94 26-146 75v285" id="av"/><path fill="#333" d="M217 13C126 13 58-43 58-141c0-118 103-177 334-203 0-70-23-137-112-137-63 0-120 29-163 58l-36-63c50-32 127-71 214-71 132 0 188 89 188 223V0h-75l-8-65h-3c-52 43-113 78-180 78zm26-73c53 0 96-25 149-72v-152c-183 22-245 67-245 137 0 62 42 87 96 87" id="aw"/><g id="h"><use transform="matrix(0.022222222222222223,0,0,0.022222222222222223,0,0)" xlink:href="#as"/><use transform="matrix(0.022222222222222223,0,0,0.022222222222222223,15.311111111111112,0)" xlink:href="#at"/><use transform="matrix(0.022222222222222223,0,0,0.022222222222222223,21.644444444444446,0)" xlink:href="#au"/><use transform="matrix(0.022222222222222223,0,0,0.022222222222222223,35.111111111111114,0)" xlink:href="#av"/><use transform="matrix(0.022222222222222223,0,0,0.022222222222222223,48.84444444444445,0)" xlink:href="#aw"/><use transform="matrix(0.022222222222222223,0,0,0.022222222222222223,61.37777777777778,0)" xlink:href="#at"/></g><path fill="#fff" d="M193-658v272h123c115 0 178-46 178-141 0-97-63-131-178-131H193zM608 0H503L325-311H193V0h-93v-733h230c149 0 256 53 256 206 0 114-66 182-166 206" id="ax"/><g id="i"><use transform="matrix(0.022222222222222223,0,0,0.022222222222222223,0,0)" xlink:href="#ax"/><use transform="matrix(0.022222222222222223,0,0,0.022222222222222223,14.111111111111112,0)" xlink:href="#ac"/><use transform="matrix(0.022222222222222223,0,0,0.022222222222222223,26.422222222222224,0)" xlink:href="#N"/><use transform="matrix(0.022222222222222223,0,0,0.022222222222222223,36.82222222222222,0)" xlink:href="#S"/><use transform="matrix(0.022222222222222223,0,0,0.022222222222222223,50.6,0)" xlink:href="#aa"/><use transform="matrix(0.022222222222222223,0,0,0.022222222222222223,64.06666666666666,0)" xlink:href="#am"/><use transform="matrix(0.022222222222222223,0,0,0.022222222222222223,77.64444444444445,0)" xlink:href="#N"/><use transform="matrix(0.022222222222222223,0,0,0.022222222222222223,88.04444444444445,0)" xlink:href="#ac"/></g><g id="j"><use transform="matrix(0.022222222222222223,0,0,0.022222222222222223,0,0)" xlink:href="#an"/><use transform="matrix(0.022222222222222223,0,0,0.022222222222222223,18.044444444444444,0)" xlink:href="#Y"/><use transform="matrix(0.022222222222222223,0,0,0.022222222222222223,30.577777777777772,0)" xlink:href="#S"/></g><path fill="#fff" d="M154-471l-44-32 63-104-109-45 18-51 114 28 10-121h54l10 120 114-27 17 51-109 45 64 104-44 32-79-95" id="ay"/><g id="k"><use transform="matrix(0.022222222222222223,0,0,0.022222222222222223,0,0)" xlink:href="#V"/><use transform="matrix(0.022222222222222223,0,0,0.022222222222222223,8.377777777777778,0)" xlink:href="#W"/><use transform="matrix(0.022222222222222223,0,0,0.022222222222222223,21.866666666666667,0)" xlink:href="#X"/><use transform="matrix(0.022222222222222223,0,0,0.022222222222222223,27.977777777777778,0)" xlink:href="#N"/><use transform="matrix(0.022222222222222223,0,0,0.022222222222222223,38.37777777777778,0)" xlink:href="#T"/><use transform="matrix(0.022222222222222223,0,0,0.022222222222222223,44.55555555555556,0)" xlink:href="#O"/><use transform="matrix(0.022222222222222223,0,0,0.022222222222222223,53.17777777777778,0)" xlink:href="#ac"/><use transform="matrix(0.022222222222222223,0,0,0.022222222222222223,65.4888888888889,0)" xlink:href="#N"/><use transform="matrix(0.022222222222222223,0,0,0.022222222222222223,75.8888888888889,0)" xlink:href="#S"/><use transform="matrix(0.022222222222222223,0,0,0.022222222222222223,89.66666666666669,0)" xlink:href="#aa"/><use transform="matrix(0.022222222222222223,0,0,0.022222222222222223,103.13333333333335,0)" xlink:href="#am"/><use transform="matrix(0.022222222222222223,0,0,0.022222222222222223,116.71111111111114,0)" xlink:href="#N"/><use transform="matrix(0.022222222222222223,0,0,0.022222222222222223,127.11111111111114,0)" xlink:href="#ac"/><use transform="matrix(0.022222222222222223,0,0,0.022222222222222223,139.42222222222225,0)" xlink:href="#T"/><use transform="matrix(0.022222222222222223,0,0,0.022222222222222223,145.60000000000002,0)" xlink:href="#Z"/><use transform="matrix(0.022222222222222223,0,0,0.022222222222222223,158.11111111111114,0)" xlink:href="#ac"/><use transform="matrix(0.022222222222222223,0,0,0.022222222222222223,170.42222222222225,0)" xlink:href="#V"/><use transform="matrix(0.022222222222222223,0,0,0.022222222222222223,178.8,0)" xlink:href="#ae"/><use transform="matrix(0.022222222222222223,0,0,0.022222222222222223,186.31111111111113,0)" xlink:href="#ay"/><use transform="matrix(0.022222222222222223,0,0,0.022222222222222223,196.6888888888889,0)" xlink:href="#ay"/><use transform="matrix(0.022222222222222223,0,0,0.022222222222222223,207.06666666666666,0)" xlink:href="#ai"/></g><path fill="#fff" d="M15 0l179-283L29-543h98c43 70 84 140 127 210h4c39-71 77-140 116-210h95L304-274 483 0H383c-48-73-92-149-138-224h-5C197-151 154-74 111 0H15" id="az"/><path fill="#fff" d="M44 0v-54c230-201 336-347 336-473 0-84-44-145-135-145-60 0-112 37-152 85l-53-52c60-65 123-108 216-108 131 0 213 86 213 217 0 146-115 295-287 458 102-11 212-6 323-7V0H44" id="aA"/><path fill="#fff" d="M356-791l-20 69c-75-34-144-8-138 93v86h115v74H198V0h-91v-469H33v-69l74-5v-87c0-110 50-179 158-179 33 0 65 7 91 18" id="aB"/><g id="l"><use transform="matrix(0.022222222222222223,0,0,0.022222222222222223,0,0)" xlink:href="#am"/><use transform="matrix(0.022222222222222223,0,0,0.022222222222222223,13.577777777777778,0)" xlink:href="#ac"/><use transform="matrix(0.022222222222222223,0,0,0.022222222222222223,25.88888888888889,0)" xlink:href="#az"/><use transform="matrix(0.022222222222222223,0,0,0.022222222222222223,36.955555555555556,0)" xlink:href="#V"/><use transform="matrix(0.022222222222222223,0,0,0.022222222222222223,45.333333333333336,0)" xlink:href="#aA"/><use transform="matrix(0.022222222222222223,0,0,0.022222222222222223,57.66666666666667,0)" xlink:href="#ao"/><use transform="matrix(0.022222222222222223,0,0,0.022222222222222223,71.44444444444446,0)" xlink:href="#T"/><use transform="matrix(0.022222222222222223,0,0,0.022222222222222223,77.62222222222223,0)" xlink:href="#aB"/><use transform="matrix(0.022222222222222223,0,0,0.022222222222222223,84.84444444444446,0)" xlink:href="#ad"/><use transform="matrix(0.022222222222222223,0,0,0.022222222222222223,102.66666666666669,0)" xlink:href="#T"/><use transform="matrix(0.022222222222222223,0,0,0.022222222222222223,108.84444444444446,0)" xlink:href="#O"/><use transform="matrix(0.022222222222222223,0,0,0.022222222222222223,117.4666666666667,0)" xlink:href="#ac"/><use transform="matrix(0.022222222222222223,0,0,0.022222222222222223,129.7777777777778,0)" xlink:href="#N"/><use transform="matrix(0.022222222222222223,0,0,0.022222222222222223,140.1777777777778,0)" xlink:href="#S"/><use transform="matrix(0.022222222222222223,0,0,0.022222222222222223,153.95555555555558,0)" xlink:href="#aa"/><use transform="matrix(0.022222222222222223,0,0,0.022222222222222223,167.42222222222225,0)" xlink:href="#am"/><use transform="matrix(0.022222222222222223,0,0,0.022222222222222223,181.00000000000003,0)" xlink:href="#N"/><use transform="matrix(0.022222222222222223,0,0,0.022222222222222223,191.40000000000003,0)" xlink:href="#ac"/><use transform="matrix(0.022222222222222223,0,0,0.022222222222222223,203.7111111111111,0)" xlink:href="#T"/><use transform="matrix(0.022222222222222223,0,0,0.022222222222222223,209.88888888888889,0)" xlink:href="#Z"/><use transform="matrix(0.022222222222222223,0,0,0.022222222222222223,222.40000000000006,0)" xlink:href="#ac"/><use transform="matrix(0.022222222222222223,0,0,0.022222222222222223,234.7111111111111,0)" xlink:href="#V"/><use transform="matrix(0.022222222222222223,0,0,0.022222222222222223,243.0888888888889,0)" xlink:href="#ae"/><use transform="matrix(0.022222222222222223,0,0,0.022222222222222223,250.60000000000002,0)" xlink:href="#ay"/><use transform="matrix(0.022222222222222223,0,0,0.022222222222222223,260.9777777777778,0)" xlink:href="#ay"/><use transform="matrix(0.022222222222222223,0,0,0.022222222222222223,271.3555555555556,0)" xlink:href="#ai"/></g><path fill="#fff" d="M92 0v-796h90c1 179-3 364 2 540l233-287h101L336-325 542 0h-99L284-262 182-143V0H92" id="aC"/><g id="m"><use transform="matrix(0.022222222222222223,0,0,0.022222222222222223,0,0)" xlink:href="#ak"/><use transform="matrix(0.022222222222222223,0,0,0.022222222222222223,14.177777777777779,0)" xlink:href="#Y"/><use transform="matrix(0.022222222222222223,0,0,0.022222222222222223,26.711111111111112,0)" xlink:href="#ap"/><use transform="matrix(0.022222222222222223,0,0,0.022222222222222223,33.044444444444444,0)" xlink:href="#ap"/><use transform="matrix(0.022222222222222223,0,0,0.022222222222222223,39.37777777777778,0)" xlink:href="#aq"/><use transform="matrix(0.022222222222222223,0,0,0.022222222222222223,53.111111111111114,0)" xlink:href="#Y"/><use transform="matrix(0.022222222222222223,0,0,0.022222222222222223,65.64444444444445,0)" xlink:href="#P"/><use transform="matrix(0.022222222222222223,0,0,0.022222222222222223,76.95555555555556,0)" xlink:href="#aC"/></g><g id="n"><use transform="matrix(0.022222222222222223,0,0,0.022222222222222223,0,0)" xlink:href="#N"/><use transform="matrix(0.022222222222222223,0,0,0.022222222222222223,10.4,0)" xlink:href="#O"/><use transform="matrix(0.022222222222222223,0,0,0.022222222222222223,19.022222222222222,0)" xlink:href="#P"/><use transform="matrix(0.022222222222222223,0,0,0.022222222222222223,30.333333333333336,0)" xlink:href="#Q"/><use transform="matrix(0.022222222222222223,0,0,0.022222222222222223,39.04444444444445,0)" xlink:href="#aj"/><use transform="matrix(0.022222222222222223,0,0,0.022222222222222223,50.62222222222223,0)" xlink:href="#X"/><use transform="matrix(0.022222222222222223,0,0,0.022222222222222223,56.73333333333335,0)" xlink:href="#ac"/><use transform="matrix(0.022222222222222223,0,0,0.022222222222222223,69.04444444444445,0)" xlink:href="#ad"/><use transform="matrix(0.022222222222222223,0,0,0.022222222222222223,86.86666666666667,0)" xlink:href="#Q"/><use transform="matrix(0.022222222222222223,0,0,0.022222222222222223,95.57777777777778,0)" xlink:href="#af"/><use transform="matrix(0.022222222222222223,0,0,0.022222222222222223,103.08888888888889,0)" xlink:href="#ag"/><use transform="matrix(0.022222222222222223,0,0,0.022222222222222223,117.13333333333331,0)" xlink:href="#Y"/><use transform="matrix(0.022222222222222223,0,0,0.022222222222222223,129.66666666666666,0)" xlink:href="#Z"/><use transform="matrix(0.022222222222222223,0,0,0.022222222222222223,142.17777777777778,0)" xlink:href="#ac"/><use transform="matrix(0.022222222222222223,0,0,0.022222222222222223,154.48888888888888,0)" xlink:href="#ah"/><use transform="matrix(0.022222222222222223,0,0,0.022222222222222223,162,0)" xlink:href="#ab"/><use transform="matrix(0.022222222222222223,0,0,0.022222222222222223,174.77777777777777,0)" xlink:href="#X"/><use transform="matrix(0.022222222222222223,0,0,0.022222222222222223,180.88888888888889,0)" xlink:href="#ac"/><use transform="matrix(0.022222222222222223,0,0,0.022222222222222223,193.20000000000002,0)" xlink:href="#ad"/><use transform="matrix(0.022222222222222223,0,0,0.022222222222222223,211.02222222222224,0)" xlink:href="#T"/><use transform="matrix(0.022222222222222223,0,0,0.022222222222222223,217.20000000000002,0)" xlink:href="#U"/><use transform="matrix(0.022222222222222223,0,0,0.022222222222222223,223.31111111111113,0)" xlink:href="#N"/></g><g id="o"><use transform="matrix(0.022222222222222223,0,0,0.022222222222222223,0,0)" xlink:href="#P"/><use transform="matrix(0.022222222222222223,0,0,0.022222222222222223,11.311111111111112,0)" xlink:href="#aa"/><use transform="matrix(0.022222222222222223,0,0,0.022222222222222223,24.77777777777778,0)" xlink:href="#am"/><use transform="matrix(0.022222222222222223,0,0,0.022222222222222223,38.355555555555554,0)" xlink:href="#N"/><use transform="matrix(0.022222222222222223,0,0,0.022222222222222223,48.75555555555556,0)" xlink:href="#V"/><use transform="matrix(0.022222222222222223,0,0,0.022222222222222223,57.13333333333333,0)" xlink:href="#O"/><use transform="matrix(0.022222222222222223,0,0,0.022222222222222223,65.75555555555556,0)" xlink:href="#al"/><use transform="matrix(0.022222222222222223,0,0,0.022222222222222223,79.24444444444445,0)" xlink:href="#P"/><use transform="matrix(0.022222222222222223,0,0,0.022222222222222223,90.55555555555557,0)" xlink:href="#V"/><use transform="matrix(0.022222222222222223,0,0,0.022222222222222223,98.93333333333335,0)" xlink:href="#aa"/><use transform="matrix(0.022222222222222223,0,0,0.022222222222222223,112.40000000000002,0)" xlink:href="#O"/></g><path fill="#333" d="M502-205c40 0 75-29 75-79-4-98-127-102-174-28 13 83 53 107 99 107zm182-391l-67 76c-92-69-213-47-218 125 93-102 295-67 295 106 0 112-87 179-193 179-114 0-218-77-218-264 0-196 112-285 235-285 76 0 129 29 166 63zM500 55c240 0 435-195 435-435S740-815 500-815C258-815 65-618 65-380 65-140 260 55 500 55zm0-907c260 0 472 212 472 472 0 262-214 472-472 472C240 92 28-120 28-380s212-472 472-472" id="aD"/><use transform="matrix(0.044444444444444425,0,0,0.044444444444444425,0,0)" xlink:href="#aD" id="p"/><path fill="#fff" d="M35 0v-49l286-420H66v-74h370v49L150-74h296V0H35" id="aE"/><g id="q"><use transform="matrix(0.022222222222222223,0,0,0.022222222222222223,0,0)" xlink:href="#X"/><use transform="matrix(0.022222222222222223,0,0,0.022222222222222223,6.111111111111112,0)" xlink:href="#am"/><use transform="matrix(0.022222222222222223,0,0,0.022222222222222223,19.68888888888889,0)" xlink:href="#X"/><use transform="matrix(0.022222222222222223,0,0,0.022222222222222223,25.8,0)" xlink:href="#V"/><use transform="matrix(0.022222222222222223,0,0,0.022222222222222223,34.17777777777778,0)" xlink:href="#X"/><use transform="matrix(0.022222222222222223,0,0,0.022222222222222223,40.28888888888889,0)" xlink:href="#Y"/><use transform="matrix(0.022222222222222223,0,0,0.022222222222222223,52.82222222222222,0)" xlink:href="#ap"/><use transform="matrix(0.022222222222222223,0,0,0.022222222222222223,59.15555555555556,0)" xlink:href="#X"/><use transform="matrix(0.022222222222222223,0,0,0.022222222222222223,65.26666666666667,0)" xlink:href="#aE"/><use transform="matrix(0.022222222222222223,0,0,0.022222222222222223,75.8,0)" xlink:href="#ac"/></g><g id="r"><use transform="matrix(0.022222222222222223,0,0,0.022222222222222223,0,0)" xlink:href="#N"/><use transform="matrix(0.022222222222222223,0,0,0.022222222222222223,10.4,0)" xlink:href="#O"/><use transform="matrix(0.022222222222222223,0,0,0.022222222222222223,19.022222222222222,0)" xlink:href="#P"/><use transform="matrix(0.022222222222222223,0,0,0.022222222222222223,30.333333333333336,0)" xlink:href="#Q"/><use transform="matrix(0.022222222222222223,0,0,0.022222222222222223,39.04444444444445,0)" xlink:href="#aj"/><use transform="matrix(0.022222222222222223,0,0,0.022222222222222223,50.62222222222223,0)" xlink:href="#X"/><use transform="matrix(0.022222222222222223,0,0,0.022222222222222223,56.73333333333335,0)" xlink:href="#ac"/><use transform="matrix(0.022222222222222223,0,0,0.022222222222222223,69.04444444444445,0)" xlink:href="#ad"/><use transform="matrix(0.022222222222222223,0,0,0.022222222222222223,86.86666666666667,0)" xlink:href="#Q"/><use transform="matrix(0.022222222222222223,0,0,0.022222222222222223,95.57777777777778,0)" xlink:href="#af"/><use transform="matrix(0.022222222222222223,0,0,0.022222222222222223,103.08888888888889,0)" xlink:href="#ag"/><use transform="matrix(0.022222222222222223,0,0,0.022222222222222223,117.13333333333331,0)" xlink:href="#Y"/><use transform="matrix(0.022222222222222223,0,0,0.022222222222222223,129.66666666666666,0)" xlink:href="#Z"/><use transform="matrix(0.022222222222222223,0,0,0.022222222222222223,142.17777777777778,0)" xlink:href="#ac"/><use transform="matrix(0.022222222222222223,0,0,0.022222222222222223,154.48888888888888,0)" xlink:href="#ah"/><use transform="matrix(0.022222222222222223,0,0,0.022222222222222223,162,0)" xlink:href="#ab"/><use transform="matrix(0.022222222222222223,0,0,0.022222222222222223,174.77777777777777,0)" xlink:href="#X"/><use transform="matrix(0.022222222222222223,0,0,0.022222222222222223,180.88888888888889,0)" xlink:href="#ac"/><use transform="matrix(0.022222222222222223,0,0,0.022222222222222223,193.20000000000002,0)" xlink:href="#ad"/><use transform="matrix(0.022222222222222223,0,0,0.022222222222222223,211.02222222222224,0)" xlink:href="#an"/><use transform="matrix(0.022222222222222223,0,0,0.022222222222222223,229.06666666666666,0)" xlink:href="#aa"/><use transform="matrix(0.022222222222222223,0,0,0.022222222222222223,242.53333333333333,0)" xlink:href="#ao"/><use transform="matrix(0.022222222222222223,0,0,0.022222222222222223,256.31111111111113,0)" xlink:href="#ac"/><use transform="matrix(0.022222222222222223,0,0,0.022222222222222223,268.62222222222226,0)" xlink:href="#ap"/><use transform="matrix(0.022222222222222223,0,0,0.022222222222222223,274.9555555555556,0)" xlink:href="#T"/><use transform="matrix(0.022222222222222223,0,0,0.022222222222222223,281.1333333333334,0)" xlink:href="#U"/><use transform="matrix(0.022222222222222223,0,0,0.022222222222222223,287.24444444444447,0)" xlink:href="#N"/></g><g id="s"><use transform="matrix(0.022222222222222223,0,0,0.022222222222222223,0,0)" xlink:href="#P"/><use transform="matrix(0.022222222222222223,0,0,0.022222222222222223,11.311111111111112,0)" xlink:href="#aa"/><use transform="matrix(0.022222222222222223,0,0,0.022222222222222223,24.77777777777778,0)" xlink:href="#am"/><use transform="matrix(0.022222222222222223,0,0,0.022222222222222223,38.355555555555554,0)" xlink:href="#N"/><use transform="matrix(0.022222222222222223,0,0,0.022222222222222223,48.75555555555556,0)" xlink:href="#V"/><use transform="matrix(0.022222222222222223,0,0,0.022222222222222223,57.13333333333333,0)" xlink:href="#O"/><use transform="matrix(0.022222222222222223,0,0,0.022222222222222223,65.75555555555556,0)" xlink:href="#al"/><use transform="matrix(0.022222222222222223,0,0,0.022222222222222223,79.24444444444445,0)" xlink:href="#P"/><use transform="matrix(0.022222222222222223,0,0,0.022222222222222223,90.55555555555557,0)" xlink:href="#V"/><use transform="matrix(0.022222222222222223,0,0,0.022222222222222223,98.93333333333335,0)" xlink:href="#aa"/><use transform="matrix(0.022222222222222223,0,0,0.022222222222222223,112.40000000000002,0)" xlink:href="#O"/></g><path fill="#333" d="M500 92C240 92 28-120 28-380s212-472 472-472 472 212 472 472c0 262-214 472-472 472zm0-37c240 0 435-195 435-435S740-815 500-815C258-815 65-618 65-380 65-140 260 55 500 55zm-92-177c11-173 44-283 152-420H311v-105h387v77C566-424 548-327 537-122H408" id="aF"/><use transform="matrix(0.044444444444444425,0,0,0.044444444444444425,0,0)" xlink:href="#aF" id="t"/><path fill="#333" d="M500 92C240 92 28-120 28-380s212-472 472-472 472 212 472 472c0 262-214 472-472 472zm0-37c240 0 435-195 435-435S740-815 500-815C258-815 65-618 65-380 65-140 260 55 500 55zm-3-165c-116 0-202-59-202-142 0-67 47-106 102-133v-3c-47-30-80-70-80-125 0-91 79-146 181-146 111 0 181 58 181 140 0 55-37 95-76 119v3c55 28 101 68 101 138 0 85-83 149-207 149zm35-318c60-42 57-146-36-145-39 0-69 20-69 60 0 42 44 66 105 85zM408-271c-8 87 184 103 181 8 0-45-49-65-125-92-29 19-56 47-56 84" id="aG"/><use transform="matrix(0.044444444444444425,0,0,0.044444444444444425,0,0)" xlink:href="#aG" id="u"/><path fill="#fff" d="M92 0v-543h75l8 79h3c47-52 104-93 169-93 83 0 128 40 150 104 56-61 113-104 179-104 112 0 165 74 165 213V0h-91v-332c0-102-32-145-101-145-42 0-86 27-137 83V0h-91v-332c0-102-32-145-101-145-41 0-87 27-137 83V0H92" id="aH"/><g id="v"><use transform="matrix(0.022222222222222223,0,0,0.022222222222222223,0,0)" xlink:href="#N"/><use transform="matrix(0.022222222222222223,0,0,0.022222222222222223,10.4,0)" xlink:href="#O"/><use transform="matrix(0.022222222222222223,0,0,0.022222222222222223,19.022222222222222,0)" xlink:href="#P"/><use transform="matrix(0.022222222222222223,0,0,0.022222222222222223,30.333333333333336,0)" xlink:href="#Q"/><use transform="matrix(0.022222222222222223,0,0,0.022222222222222223,39.04444444444445,0)" xlink:href="#aH"/><use transform="matrix(0.022222222222222223,0,0,0.022222222222222223,59.622222222222234,0)" xlink:href="#aa"/><use transform="matrix(0.022222222222222223,0,0,0.022222222222222223,73.0888888888889,0)" xlink:href="#ao"/><use transform="matrix(0.022222222222222223,0,0,0.022222222222222223,86.86666666666667,0)" xlink:href="#ac"/><use transform="matrix(0.022222222222222223,0,0,0.022222222222222223,99.17777777777778,0)" xlink:href="#ap"/><use transform="matrix(0.022222222222222223,0,0,0.022222222222222223,105.51111111111112,0)" xlink:href="#Q"/><use transform="matrix(0.022222222222222223,0,0,0.022222222222222223,114.22222222222223,0)" xlink:href="#af"/><use transform="matrix(0.022222222222222223,0,0,0.022222222222222223,121.73333333333333,0)" xlink:href="#ag"/><use transform="matrix(0.022222222222222223,0,0,0.022222222222222223,135.77777777777777,0)" xlink:href="#Y"/><use transform="matrix(0.022222222222222223,0,0,0.022222222222222223,148.3111111111111,0)" xlink:href="#Z"/><use transform="matrix(0.022222222222222223,0,0,0.022222222222222223,160.82222222222222,0)" xlink:href="#ac"/><use transform="matrix(0.022222222222222223,0,0,0.022222222222222223,173.13333333333333,0)" xlink:href="#ah"/><use transform="matrix(0.022222222222222223,0,0,0.022222222222222223,180.64444444444445,0)" xlink:href="#ab"/><use transform="matrix(0.022222222222222223,0,0,0.022222222222222223,193.42222222222222,0)" xlink:href="#X"/><use transform="matrix(0.022222222222222223,0,0,0.022222222222222223,199.53333333333333,0)" xlink:href="#ac"/><use transform="matrix(0.022222222222222223,0,0,0.022222222222222223,211.84444444444446,0)" xlink:href="#ad"/><use transform="matrix(0.022222222222222223,0,0,0.022222222222222223,229.66666666666669,0)" xlink:href="#an"/><use transform="matrix(0.022222222222222223,0,0,0.022222222222222223,247.7111111111111,0)" xlink:href="#aa"/><use transform="matrix(0.022222222222222223,0,0,0.022222222222222223,261.17777777777775,0)" xlink:href="#ao"/><use transform="matrix(0.022222222222222223,0,0,0.022222222222222223,274.9555555555555,0)" xlink:href="#ac"/><use transform="matrix(0.022222222222222223,0,0,0.022222222222222223,287.26666666666665,0)" xlink:href="#ap"/><use transform="matrix(0.022222222222222223,0,0,0.022222222222222223,293.59999999999997,0)" xlink:href="#T"/><use transform="matrix(0.022222222222222223,0,0,0.022222222222222223,299.77777777777777,0)" xlink:href="#U"/><use transform="matrix(0.022222222222222223,0,0,0.022222222222222223,305.88888888888886,0)" xlink:href="#N"/></g><g id="w"><use transform="matrix(0.022222222222222223,0,0,0.022222222222222223,0,0)" xlink:href="#aq"/><use transform="matrix(0.022222222222222223,0,0,0.022222222222222223,13.733333333333334,0)" xlink:href="#X"/><use transform="matrix(0.022222222222222223,0,0,0.022222222222222223,19.844444444444445,0)" xlink:href="#am"/><use transform="matrix(0.022222222222222223,0,0,0.022222222222222223,33.422222222222224,0)" xlink:href="#ao"/></g><path fill="#333" d="M503-406c29 0 65-16 92-53-13-81-53-106-97-106-38 0-74 26-74 81s33 78 79 78zM315-174l67-76c90 72 215 50 216-124-92 102-292 60-292-108 0-110 86-178 191-178 114 0 219 76 219 263 0 197-112 287-234 287-76 0-131-30-167-64zM500 55c240 0 435-195 435-435S740-815 500-815C258-815 65-618 65-380 65-140 260 55 500 55zm0-907c260 0 472 212 472 472 0 262-214 472-472 472C240 92 28-120 28-380s212-472 472-472" id="aI"/><use transform="matrix(0.044444444444444425,0,0,0.044444444444444425,0,0)" xlink:href="#aI" id="x"/><g id="y"><use transform="matrix(0.022222222222222223,0,0,0.022222222222222223,0,0)" xlink:href="#N"/><use transform="matrix(0.022222222222222223,0,0,0.022222222222222223,10.4,0)" xlink:href="#O"/><use transform="matrix(0.022222222222222223,0,0,0.022222222222222223,19.022222222222222,0)" xlink:href="#P"/><use transform="matrix(0.022222222222222223,0,0,0.022222222222222223,30.333333333333336,0)" xlink:href="#Q"/><use transform="matrix(0.022222222222222223,0,0,0.022222222222222223,39.04444444444445,0)" xlink:href="#aH"/><use transform="matrix(0.022222222222222223,0,0,0.022222222222222223,59.622222222222234,0)" xlink:href="#aa"/><use transform="matrix(0.022222222222222223,0,0,0.022222222222222223,73.0888888888889,0)" xlink:href="#ao"/><use transform="matrix(0.022222222222222223,0,0,0.022222222222222223,86.86666666666667,0)" xlink:href="#ac"/><use transform="matrix(0.022222222222222223,0,0,0.022222222222222223,99.17777777777778,0)" xlink:href="#ap"/><use transform="matrix(0.022222222222222223,0,0,0.022222222222222223,105.51111111111112,0)" xlink:href="#Q"/><use transform="matrix(0.022222222222222223,0,0,0.022222222222222223,114.22222222222223,0)" xlink:href="#ay"/><use transform="matrix(0.022222222222222223,0,0,0.022222222222222223,124.60000000000001,0)" xlink:href="#ay"/></g><path fill="#333" d="M500 92C240 92 28-120 28-380s212-472 472-472 472 212 472 472c0 262-214 472-472 472zm0-37c240 0 435-195 435-435S740-815 500-815C258-815 65-618 65-380 65-140 260 55 500 55zm-41-177v-396H350v-80c60-12 102-26 141-49h96v525H459" id="aJ"/><use transform="matrix(0.044444444444444425,0,0,0.044444444444444425,0,0)" xlink:href="#aJ" id="z"/><path fill="#333" d="M382-340h128c0-68 0-133 4-199h-4c-37 72-83 134-128 199zm247-307v307h67v94h-67v124H510v-124H261v-88l213-313h155zM500 55c240 0 435-195 435-435S740-815 500-815C258-815 65-618 65-380 65-140 260 55 500 55zm0-907c260 0 472 212 472 472 0 262-214 472-472 472C240 92 28-120 28-380s212-472 472-472" id="aK"/><use transform="matrix(0.044444444444444425,0,0,0.044444444444444425,0,0)" xlink:href="#aK" id="A"/><path fill="#333" d="M500 92C240 92 28-120 28-380s212-472 472-472 472 212 472 472c0 262-214 472-472 472zm0-37c240 0 435-195 435-435S740-815 500-815C258-815 65-618 65-380 65-140 260 55 500 55zm-4-166c-92 0-154-32-199-74l57-81c35 28 78 56 132 56 57 0 94-31 94-83 0-50-38-81-90-81-37 0-56 10-90 31l-57-37 16-267h322v105H464l-8 97c119-41 253 14 251 150 0 116-98 184-211 184" id="aL"/><use transform="matrix(0.044444444444444425,0,0,0.044444444444444425,0,0)" xlink:href="#aL" id="B"/><path fill="#333" d="M500 92C240 92 28-120 28-380s212-472 472-472 472 212 472 472c0 262-214 472-472 472zm0-37c240 0 435-195 435-435S740-815 500-815C258-815 65-618 65-380 65-140 260 55 500 55zM317-122v-74c147-123 246-212 246-286 0-51-27-78-79-78-44 0-79 27-108 53l-70-68c56-57 119-84 193-84 113 0 187 66 187 165 0 91-92 186-187 270 65-7 136-5 207-5v107H317" id="aM"/><use transform="matrix(0.044444444444444425,0,0,0.044444444444444425,0,0)" xlink:href="#aM" id="C"/><path fill="#333" d="M500 92C240 92 28-120 28-380s212-472 472-472 472 212 472 472c0 262-214 472-472 472zm0-37c240 0 435-195 435-435S740-815 500-815C258-815 65-618 65-380 65-140 260 55 500 55zm-11-165c-85 0-158-30-199-76l59-80c34 31 80 56 138 56 50 0 87-24 87-64 0-45-31-72-158-72v-89c105 0 140-27 140-69 0-37-25-58-73-58-40 0-77 17-112 48l-63-77c50-43 110-68 178-68 119 0 197 52 197 147 0 53-35 91-97 115v3c67 18 117 61 117 130 0 98-97 154-214 154" id="aN"/><use transform="matrix(0.044444444444444425,0,0,0.044444444444444425,0,0)" xlink:href="#aN" id="D"/><g id="E"><use transform="matrix(0.022222222222222223,0,0,0.022222222222222223,0,0)" xlink:href="#ak"/><use transform="matrix(0.022222222222222223,0,0,0.022222222222222223,14.177777777777779,0)" xlink:href="#Y"/><use transform="matrix(0.022222222222222223,0,0,0.022222222222222223,26.711111111111112,0)" xlink:href="#P"/><use transform="matrix(0.022222222222222223,0,0,0.022222222222222223,38.022222222222226,0)" xlink:href="#W"/><use transform="matrix(0.022222222222222223,0,0,0.022222222222222223,51.51111111111111,0)" xlink:href="#ac"/><use transform="matrix(0.022222222222222223,0,0,0.022222222222222223,63.82222222222222,0)" xlink:href="#T"/><use transform="matrix(0.022222222222222223,0,0,0.022222222222222223,70,0)" xlink:href="#U"/><use transform="matrix(0.022222222222222223,0,0,0.022222222222222223,76.11111111111111,0)" xlink:href="#N"/></g><path fill="#333" d="M500 92C240 92 28-120 28-380s212-472 472-472 472 212 472 472c0 262-214 472-472 472zm0-37c240 0 435-195 435-435S740-815 500-815C258-815 65-618 65-380 65-140 260 55 500 55zM271-122v-396h-88v-80c50-12 84-26 118-49h88v525H271zm371 12c-103 0-174-106-174-278s71-272 174-272c104 0 174 101 174 272 0 172-70 278-174 278zm0-102c33 0 57-45 57-176s-24-172-57-172-56 41-56 172 23 176 56 176" id="aO"/><use transform="matrix(0.044444444444444425,0,0,0.044444444444444425,0,0)" xlink:href="#aO" id="F"/><path d="M193-658v272h123c115 0 178-46 178-141 0-97-63-131-178-131H193zM608 0H503L325-311H193V0h-93v-733h230c149 0 256 53 256 206 0 114-66 182-166 206" id="aP"/><path d="M311 13C167 13 51-92 51-271c0-176 119-286 245-286 154-3 234 132 212 307H142c6 116 77 190 180 190 53 0 96-16 136-43l33 60c-48 31-106 56-180 56zM141-315h291c0-110-50-169-135-169-77 0-145 62-156 169" id="aQ"/><path d="M92 0v-543h75l8 78h3c52-51 108-92 182-92 114 0 166 74 166 213V0h-91v-332c0-102-31-145-103-145-56 0-94 28-149 83V0H92" id="aR"/><path d="M277 13C141 13 53-90 53-271c-5-249 231-368 388-222-8-95-4-201-5-303h91V0h-74c-4-21-4-46-11-64-43 42-100 77-165 77zm20-76c50 0 94-25 139-75v-285c-123-120-291-42-289 151 0 131 54 209 150 209" id="aS"/><path d="M92 0v-543h75l8 99h3c50-86 117-137 212-101l-17 80c-18-7-31-9-53-9-45 0-101 32-137 125V0H92" id="aT"/><path d="M92 0v-543h91V0H92zm46-655c-36 0-63-25-63-59 0-37 27-59 63-59s63 22 63 59c0 34-27 59-63 59" id="aU"/><path d="M275 250c-133 0-225-52-225-146 0-46 30-90 81-123v-4c-29-17-50-46-50-89 0-45 33-81 61-101v-4c-36-29-71-81-71-146-2-145 144-228 280-180h189v70H429c26 25 44 65 44 112 4 144-147 228-279 170-52 42-57 131 60 124h106c126 0 189 40 189 129 0 101-106 188-274 188zm0-484c62 0 115-50 115-129s-51-127-115-127-116 47-116 127c0 79 53 129 116 129zm13 422c104 0 173-55 173-112 0-103-183-49-275-76-106 75-57 194 102 188" id="aV"/><g id="G"><use transform="matrix(0.022222222222222223,0,0,0.022222222222222223,0,0)" xlink:href="#aP"/><use transform="matrix(0.022222222222222223,0,0,0.022222222222222223,14.111111111111112,0)" xlink:href="#aQ"/><use transform="matrix(0.022222222222222223,0,0,0.022222222222222223,26.422222222222224,0)" xlink:href="#aR"/><use transform="matrix(0.022222222222222223,0,0,0.022222222222222223,40,0)" xlink:href="#aS"/><use transform="matrix(0.022222222222222223,0,0,0.022222222222222223,53.77777777777778,0)" xlink:href="#aQ"/><use transform="matrix(0.022222222222222223,0,0,0.022222222222222223,66.08888888888889,0)" xlink:href="#aT"/><use transform="matrix(0.022222222222222223,0,0,0.022222222222222223,74.71111111111111,0)" xlink:href="#aU"/><use transform="matrix(0.022222222222222223,0,0,0.022222222222222223,80.82222222222222,0)" xlink:href="#aR"/><use transform="matrix(0.022222222222222223,0,0,0.022222222222222223,94.4,0)" xlink:href="#aV"/></g><path d="M239 197C147 47 92-114 92-311c0-196 55-358 147-507l57 26c-171 284-171 678 0 962" id="aW"/><path d="M100 0v-733h96c115 204 239 400 345 613h5c-18-192-10-405-12-613h88V0h-95C412-205 289-402 181-614h-4c17 193 10 407 11 614h-88" id="aX"/><path d="M15 0l179-283L29-543h98c43 70 84 140 127 210h4c39-71 77-140 116-210h95L304-274 483 0H383c-48-73-92-149-138-224h-5C197-151 154-74 111 0H15" id="aY"/><path d="M263 13c-116 0-155-72-155-181v-301H27v-69l85-5 11-152h76v152h147v74H199v303c0 67 21 105 84 105 19 0 44-7 62-14l18 68c-31 10-67 20-100 20" id="aZ"/><path d="M44 0v-54c230-201 336-347 336-473 0-84-44-145-135-145-60 0-112 37-152 85l-53-52c60-65 123-108 216-108 131 0 213 86 213 217 0 146-115 295-287 458 102-11 212-6 323-7V0H44" id="ba"/><path d="M100 0v-733h184c225 0 346 131 346 364C630-137 509 0 288 0H100zm93-76h83c173 0 258-108 258-293 0-186-85-289-258-289h-83v582" id="bb"/><g id="H"><use transform="matrix(0.022222222222222223,0,0,0.022222222222222223,0,0)" xlink:href="#aW"/><use transform="matrix(0.022222222222222223,0,0,0.022222222222222223,7.511111111111111,0)" xlink:href="#aX"/><use transform="matrix(0.022222222222222223,0,0,0.022222222222222223,23.555555555555557,0)" xlink:href="#aQ"/><use transform="matrix(0.022222222222222223,0,0,0.022222222222222223,35.86666666666667,0)" xlink:href="#aY"/><use transform="matrix(0.022222222222222223,0,0,0.022222222222222223,46.93333333333334,0)" xlink:href="#aZ"/><use transform="matrix(0.022222222222222223,0,0,0.022222222222222223,55.31111111111111,0)" xlink:href="#ba"/><use transform="matrix(0.022222222222222223,0,0,0.022222222222222223,67.64444444444445,0)" xlink:href="#bb"/></g><path d="M100 0v-733h209c165 0 275 55 275 215 0 155-110 227-270 227H193V0h-93zm93-366h109c129 0 190-47 190-152 0-106-65-140-194-140H193v292" id="bc"/><path d="M241 5C155 32 92-8 92-108v-688h91v694c3 37 15 43 45 37" id="bd"/><path d="M217 13C126 13 58-43 58-141c0-118 103-177 334-203 0-70-23-137-112-137-63 0-120 29-163 58l-36-63c50-32 127-71 214-71 132 0 188 89 188 223V0h-75l-8-65h-3c-52 43-113 78-180 78zm26-73c53 0 96-25 149-72v-152c-183 22-245 67-245 137 0 62 42 87 96 87" id="be"/><path d="M303 45C261 172 181 266 37 223l18-73C155 188 210 96 231 1L13-543h95c55 152 111 298 163 454h5c45-155 95-303 143-454h89" id="bf"/><path d="M99 197l-56-27c171-284 171-678 0-962l56-26c93 149 148 311 148 507 0 197-55 358-148 508" id="bg"/><g id="I"><use transform="matrix(0.022222222222222223,0,0,0.022222222222222223,0,0)" xlink:href="#bc"/><use transform="matrix(0.022222222222222223,0,0,0.022222222222222223,14.044444444444444,0)" xlink:href="#bd"/><use transform="matrix(0.022222222222222223,0,0,0.022222222222222223,20.37777777777778,0)" xlink:href="#be"/><use transform="matrix(0.022222222222222223,0,0,0.022222222222222223,32.91111111111111,0)" xlink:href="#bf"/><use transform="matrix(0.022222222222222223,0,0,0.022222222222222223,44.48888888888889,0)" xlink:href="#aQ"/><use transform="matrix(0.022222222222222223,0,0,0.022222222222222223,56.800000000000004,0)" xlink:href="#aT"/><use transform="matrix(0.022222222222222223,0,0,0.022222222222222223,65.42222222222222,0)" xlink:href="#bg"/></g></defs></g></svg>