<svg xmlns="http://www.w3.org/2000/svg" xmlns:xlink="http://www.w3.org/1999/xlink" xmlns:lucid="lucid" width="1426" height="626"><g transform="translate(-520 -60)" lucid:page-tab-id="0_0"><path d="M928 140c17.67 0 32 17.9 32 40s-14.33 40-32 40h-96c-17.67 0-32-17.9-32-40s14.33-40 32-40z" stroke="#333" fill="#0c7cba"/><use xlink:href="#a" transform="matrix(1,0,0,1,805,145) translate(56.847 42.56)"/><path d="M1700 88c0-4.42 3.58-8 8-8h128c4.42 0 8 3.58 8 8v98.08c-24.05-17.72-39.02-17.72-48.1-17.72-14.4 0-33.55 17.72-47.95 17.72-8.93 0-24.05 0-47.95-17.72z" stroke="#fff" fill="#0c7cba"/><path d="M1708 97.36c0-4.42 3.58-8 8-8h128c4.42 0 8 3.58 8 8v98.08c-24.05-17.72-39.02-17.72-48.1-17.72-14.4 0-33.55 17.72-47.95 17.72-8.93 0-24.05 0-47.95-17.72z" stroke="#fff" fill="#0c7cba"/><path d="M1716 106.72c0-4.42 3.58-8 8-8h128c4.42 0 8 3.58 8 8v98.08c-24.05-17.72-39.02-17.72-48.1-17.72-14.4 0-33.55 17.72-47.95 17.72-8.93 0-24.05 0-47.95-17.72z" stroke="#fff" fill="#0c7cba"/><use xlink:href="#b" transform="matrix(1,0,0,1,1721,103.72) translate(36.894999999999996 47.06)"/><path d="M760 308c0-4.42 3.58-8 8-8h224c4.42 0 8 3.58 8 8v104c0 4.42-3.58 8-8 8H768c-4.42 0-8-3.58-8-8z" stroke="#333" stroke-width="2" fill="#0c7cba"/><use xlink:href="#c" transform="matrix(1,0,0,1,765.0000000000002,305) translate(79.176 49.24)"/><use xlink:href="#d" transform="matrix(1,0,0,1,765.0000000000002,305) translate(58.431 75.88)"/><path d="M880.5 282.62h-1v-14.57h1zm0-41.2h-1V221h1zM880.5 221h-1v-.5h1zM880 297.38l-4.64-14.26h9.28z" fill="#333"/><path d="M880 299l-5.32-16.38h10.64zm-3.95-15.38l3.95 12.14 3.95-12.14z" fill="#333"/><use xlink:href="#e" transform="matrix(1,0,0,1,871.0000000000005,241.40891544216834) translate(0.005000000000000782 20.88)"/><path d="M1360 307.9c0-4.42 3.58-8 8-8h224c4.42 0 8 3.58 8 8v104c0 4.4-3.58 8-8 8h-224c-4.42 0-8-3.6-8-8z" stroke="#333" stroke-width="2" fill="#0c7cba"/><use xlink:href="#f" transform="matrix(1,0,0,1,1364.9999999999993,304.8962048656474) translate(42.861000000000004 49.24)"/><use xlink:href="#g" transform="matrix(1,0,0,1,1364.9999999999993,304.8962048656474) translate(87.789 49.24)"/><use xlink:href="#h" transform="matrix(1,0,0,1,1364.9999999999993,304.8962048656474) translate(27.408000000000015 75.88)"/><path d="M1660 528c0-4.42 3.58-8 8-8h224c4.42 0 8 3.58 8 8v104c0 4.42-3.58 8-8 8h-224c-4.42 0-8-3.58-8-8z" stroke="#333" stroke-width="2" fill="#0c7cba"/><use xlink:href="#i" transform="matrix(1,0,0,1,1665.0000000000002,525) translate(16.968000000000018 49.24)"/><use xlink:href="#g" transform="matrix(1,0,0,1,1665.0000000000002,525) translate(113.682 49.24)"/><use xlink:href="#h" transform="matrix(1,0,0,1,1665.0000000000002,525) translate(27.408000000000015 75.88)"/><path d="M1041 360.5h-39.5v-1h39.5zm41.62 0H1059v-1h23.62zM1001.5 360.5h-.5v-1h.5zM1097.38 360l-14.26 4.64v-9.28z" fill="#333"/><path d="M1099 360l-16.38 5.32v-10.64zm-15.38 3.95l12.14-3.95-12.14-3.95z" fill="#333"/><use xlink:href="#j" transform="matrix(1,0,0,1,1041,346.68) translate(0.005000000000000782 20.88)"/><path d="M1480.5 502.62h-1v-24.5h1zm0-51.13h-1v-30.1h1z" fill="#333"/><path d="M1480.5 421.4h-1v-.5h1zM1480 517.38l-4.64-14.26h9.28z" fill="#333"/><path d="M1480 519l-5.32-16.38h10.64zm-3.95-15.38l3.95 12.14 3.95-12.14z" fill="#333"/><use xlink:href="#k" transform="matrix(1,0,0,1,1470.9999999999993,451.49461889962674) translate(0.005000000000000782 20.88)"/><path d="M1342.62 359.5v1h-30.52v-1zm-81.12 1v-1h32.6v1zM1261.5 360.5h-.5v-1h.5zM1357.38 360l-14.26 4.64v-9.27z" fill="#333"/><path d="M1359 360l-16.38 5.32v-10.64zm-15.38 3.95l12.14-3.95-12.14-3.95z" fill="#333"/><use xlink:href="#l" transform="matrix(1,0,0,1,1294.1017554782168,346.68) translate(0.005000000000000782 20.88)"/><path d="M1471.24 179.92l3 1.24 2.6 2 2 2.6 1.24 3 .42 3.2V298.4h-1V192.03l-.4-3-1.14-2.77-1.83-2.4-2.4-1.82-2.75-1.14-3-.4H1241.5v-1h226.53zm-494.36.58v-1h246.62v1z" fill="#333"/><path d="M1480.5 298.9h-1v-.52h1zM976.38 184.64L962.12 180l14.26-4.64z" fill="#333"/><path d="M976.88 185.32L960.5 180l16.38-5.32zM963.74 180l12.14 3.95v-7.9z" fill="#333"/><use xlink:href="#m" transform="matrix(1,0,0,1,1223.5027936170893,166.68) translate(0.005000000000000782 20.88)"/><path d="M1100 308c0-4.42 3.58-8 8-8h144c4.42 0 8 3.58 8 8v104c0 4.42-3.58 8-8 8h-144c-4.42 0-8-3.58-8-8z" stroke="#333" stroke-width="2" fill="#0c7cba"/><use xlink:href="#n" transform="matrix(1,0,0,1,1112,312) translate(22.253000000000007 42.24)"/><use xlink:href="#o" transform="matrix(1,0,0,1,1112,312) translate(37.922 68.88)"/><path d="M1400 528c0-4.42 3.58-8 8-8h144c4.42 0 8 3.58 8 8v104c0 4.42-3.58 8-8 8h-144c-4.42 0-8-3.58-8-8z" stroke="#333" stroke-width="2" fill="#0c7cba"/><use xlink:href="#p" transform="matrix(1,0,0,1,1412,532) translate(32.315000000000005 28.919999999999998)"/><use xlink:href="#q" transform="matrix(1,0,0,1,1412,532) translate(32.711 55.56)"/><use xlink:href="#r" transform="matrix(1,0,0,1,1412,532) translate(42.062000000000005 82.2)"/><path d="M1700 307.9c0-4.42 3.58-8 8-8h144c4.42 0 8 3.58 8 8v104c0 4.4-3.58 8-8 8h-144c-4.42 0-8-3.6-8-8z" stroke="#333" stroke-width="2" fill="#0c7cba"/><use xlink:href="#n" transform="matrix(1,0,0,1,1712,311.8962048656474) translate(22.253000000000007 42.24)"/><use xlink:href="#s" transform="matrix(1,0,0,1,1712,311.8962048656474) translate(48.884 68.88)"/><path d="M1601 580.5h-39.5v-1h39.5zm41.62 0H1619v-1h23.62zM1561.5 580.5h-.5v-1h.5zM1657.38 580l-14.26 4.64v-9.28z" fill="#333"/><path d="M1659 580l-16.38 5.32v-10.64zm-15.38 3.95l12.14-3.95-12.14-3.95z" fill="#333"/><use xlink:href="#t" transform="matrix(1,0,0,1,1601,566.68) translate(0.005000000000000782 20.88)"/><path d="M1780.5 518.5h-1v-35.23h1zm0-61.87h-1v-19.35h1zM1780.5 519h-1v-.5h1zM1784.64 436.78h-9.28l4.64-14.26z" fill="#333"/><path d="M1785.32 437.28h-10.64l5.32-16.38zm-9.27-1h7.9l-3.95-12.15z" fill="#333"/><use xlink:href="#u" transform="matrix(1,0,0,1,1771.0000000000002,456.6281024328237) translate(0.005000000000000782 20.88)"/><path d="M1641 360.4h-23.62v-1H1641zm57.5 0H1659v-1h39.5zM1699 360.4h-.5v-1h.5zM1616.88 364.53l-14.26-4.63 14.26-4.64z" fill="#333"/><path d="M1617.38 365.22L1601 359.9l16.38-5.33zm-13.14-5.32l12.14 3.94v-7.9z" fill="#333"/><use xlink:href="#v" transform="matrix(1,0,0,1,1640.9999999999995,346.5762048656474) translate(0.005000000000000782 20.88)"/><path d="M660 407.9c0 6.62-26.86 12-60 12s-60-5.38-60-12v-96c0-6.63 26.86-12 60-12s60 5.37 60 12z" stroke="#333" fill="#ff8839"/><path d="M660 311.9c0 6.62-26.86 12-60 12s-60-5.38-60-12" stroke="#333" fill="none"/><use xlink:href="#w" transform="matrix(1,0,0,1,545,328.8962048656474) translate(27.577 50.56)"/><path d="M1100 528c0-4.42 3.58-8 8-8h128c4.42 0 8 3.58 8 8v98.08c-24.05-17.72-39.02-17.72-48.1-17.72-14.4 0-33.55 17.72-47.95 17.72-8.93 0-24.05 0-47.95-17.72z" stroke="#fff" fill="#0c7cba"/><path d="M1108 537.36c0-4.42 3.58-8 8-8h128c4.42 0 8 3.58 8 8v98.08c-24.05-17.72-39.02-17.72-48.1-17.72-14.4 0-33.55 17.72-47.95 17.72-8.93 0-24.05 0-47.95-17.72z" stroke="#fff" fill="#0c7cba"/><path d="M1116 546.72c0-4.42 3.58-8 8-8h128c4.42 0 8 3.58 8 8v98.08c-24.05-17.72-39.02-17.72-48.1-17.72-14.4 0-33.55 17.72-47.95 17.72-8.93 0-24.05 0-47.95-17.72z" stroke="#fff" fill="#0c7cba"/><use xlink:href="#x" transform="matrix(1,0,0,1,1121,543.72) translate(8.490221111111126 42.984453333333335)"/><use xlink:href="#y" transform="matrix(1,0,0,1,1121,543.72) translate(91.68154444444444 42.984453333333335)"/><path d="M742.62 360h-65.74" stroke="#333" fill="none"/><path d="M757.38 360l-14.26 4.64v-9.28zM662.12 360l14.26-4.64v9.28z" stroke="#333" fill="#333"/><path d="M880 421.5v148.9c0 6.63 5.37 12 12 12h191.12" stroke="#333" fill="none"/><path d="M880.5 421.5h-1v-.5h1z" fill="#333"/><path d="M1097.88 582.4l-14.26 4.64v-9.28z" stroke="#333" fill="#333"/><path d="M1931.24 359.82l3 1.24 2.6 2 2 2.6 1.24 3 .42 3.2v296.17l-.42 3.2-1.24 3-2 2.6-2.6 2-3 1.25-3.2.42h-736.07l-3.2-.42-3-1.24-2.6-2-2-2.6-1.25-3-.42-3.2v-11.6h1v11.53l.4 3 1.14 2.77 1.83 2.4 2.4 1.82 2.75 1.14 3 .4h735.95l3-.4 2.77-1.14 2.4-1.83 1.82-2.4 1.14-2.75.4-3V371.92l-.4-3.02-1.14-2.74-1.83-2.4-2.4-1.83-2.75-1.14-3-.4h-66.48v-1h66.53z" fill="#333"/><path d="M1861.5 360.4h-.5v-1h.5zM1184.64 655.93h-9.28l4.64-14.27z" fill="#333"/><path d="M1185.32 656.43h-10.64l5.32-16.4zm-9.27-1h7.9l-3.95-12.15z" fill="#333"/><path d="M1780 282.5v-66.07" stroke="#333" fill="none"/><path d="M1780 297.28l-4.64-14.27h9.28zM1780 201.66l4.64 14.27h-9.28z" stroke="#333" fill="#333"/><defs><path fill="#e5e5e5" d="M250 13C136 13 85-61 85-199v-344h91v333c0 101 30 144 102 144 56 0 95-27 147-92v-385h91V0h-76l-7-85h-3c-51 59-105 98-180 98" id="z"/><path fill="#e5e5e5" d="M234 13C157 13 83-19 31-62l45-60c47 38 96 64 161 64 72 0 107-38 107-85 0-55-64-80-124-103-76-28-162-65-162-157 0-86 69-154 187-154 67 0 126 28 169 61l-44 59c-38-28-76-48-125-48-68 0-99 36-99 78 0 52 59 71 120 94 79 30 166 62 166 165 0 88-70 161-198 161" id="A"/><path fill="#e5e5e5" d="M311 13C167 13 51-92 51-271c0-176 119-286 245-286 154-3 234 132 212 307H142c6 116 77 190 180 190 53 0 96-16 136-43l33 60c-48 31-106 56-180 56zM141-315h291c0-110-50-169-135-169-77 0-145 62-156 169" id="B"/><path fill="#e5e5e5" d="M92 0v-543h75l8 99h3c50-86 117-137 212-101l-17 80c-18-7-31-9-53-9-45 0-101 32-137 125V0H92" id="C"/><g id="a"><use transform="matrix(0.018,0,0,0.018,0,0)" xlink:href="#z"/><use transform="matrix(0.018,0,0,0.018,10.925999999999998,0)" xlink:href="#A"/><use transform="matrix(0.018,0,0,0.018,19.349999999999998,0)" xlink:href="#B"/><use transform="matrix(0.018,0,0,0.018,29.321999999999992,0)" xlink:href="#C"/></g><path fill="#e5e5e5" d="M100 0v-733h112c65 181 131 360 193 545h5c59-186 126-364 190-545h112V0h-87c2-212-8-425 12-622h-4C570-437 502-256 436-74h-62c-66-182-134-363-197-548h-4c18 198 9 411 11 622h-84" id="D"/><path fill="#e5e5e5" d="M303 13C170 13 51-91 51-271c0-181 119-286 252-286s252 105 252 286C555-91 436 13 303 13zm0-76c94 0 158-83 158-208s-64-210-158-210-157 85-157 210S209-63 303-63" id="E"/><path fill="#e5e5e5" d="M277 13C141 13 53-90 53-271c-5-249 231-368 388-222-8-95-4-201-5-303h91V0h-74c-4-21-4-46-11-64-43 42-100 77-165 77zm20-76c50 0 94-25 139-75v-285c-123-120-291-42-289 151 0 131 54 209 150 209" id="F"/><path fill="#e5e5e5" d="M241 5C155 32 92-8 92-108v-688h91v694c3 37 15 43 45 37" id="G"/><g id="b"><use transform="matrix(0.018,0,0,0.018,0,0)" xlink:href="#D"/><use transform="matrix(0.018,0,0,0.018,14.616,0)" xlink:href="#E"/><use transform="matrix(0.018,0,0,0.018,25.524,0)" xlink:href="#F"/><use transform="matrix(0.018,0,0,0.018,36.684,0)" xlink:href="#B"/><use transform="matrix(0.018,0,0,0.018,46.656,0)" xlink:href="#G"/><use transform="matrix(0.018,0,0,0.018,51.786,0)" xlink:href="#A"/></g><path fill="#e5e5e5" d="M436 229c0-99-2-200 5-292-44 43-101 76-164 76C141 13 53-90 53-271c-5-250 233-370 390-220h3l9-52h72v772h-91zM297-63c50 0 94-25 139-75v-285c-123-120-291-42-289 151 0 131 54 209 150 209" id="H"/><path fill="#e5e5e5" d="M263 13c-116 0-155-72-155-181v-301H27v-69l85-5 11-152h76v152h147v74H199v303c0 67 21 105 84 105 19 0 44-7 62-14l18 68c-31 10-67 20-100 20" id="I"/><g id="c"><use transform="matrix(0.018,0,0,0.018,0,0)" xlink:href="#C"/><use transform="matrix(0.018,0,0,0.018,6.983999999999999,0)" xlink:href="#B"/><use transform="matrix(0.018,0,0,0.018,16.956,0)" xlink:href="#H"/><use transform="matrix(0.018,0,0,0.018,28.115999999999996,0)" xlink:href="#z"/><use transform="matrix(0.018,0,0,0.018,39.04200000000001,0)" xlink:href="#B"/><use transform="matrix(0.018,0,0,0.018,49.014,0)" xlink:href="#A"/><use transform="matrix(0.018,0,0,0.018,57.438,0)" xlink:href="#I"/><use transform="matrix(0.018,0,0,0.018,64.224,0)" xlink:href="#A"/></g><path fill="#e5e5e5" d="M239 197C147 47 92-114 92-311c0-196 55-358 147-507l57 26c-171 284-171 678 0 962" id="J"/><path fill="#e5e5e5" d="M92 0v-543h91V0H92zm46-655c-36 0-63-25-63-59 0-37 27-59 63-59s63 22 63 59c0 34-27 59-63 59" id="K"/><path fill="#e5e5e5" d="M92 0v-543h75l8 78h3c52-51 108-92 182-92 114 0 166 74 166 213V0h-91v-332c0-102-31-145-103-145-56 0-94 28-149 83V0H92" id="L"/><path fill="#e5e5e5" d="M275 250c-133 0-225-52-225-146 0-46 30-90 81-123v-4c-29-17-50-46-50-89 0-45 33-81 61-101v-4c-36-29-71-81-71-146-2-145 144-228 280-180h189v70H429c26 25 44 65 44 112 4 144-147 228-279 170-52 42-57 131 60 124h106c126 0 189 40 189 129 0 101-106 188-274 188zm0-484c62 0 115-50 115-129s-51-127-115-127-116 47-116 127c0 79 53 129 116 129zm13 422c104 0 173-55 173-112 0-103-183-49-275-76-106 75-57 194 102 188" id="M"/><path fill="#e5e5e5" d="M139 13c-36 0-66-28-66-69s30-71 66-71 66 30 66 71-30 69-66 69" id="N"/><path fill="#e5e5e5" d="M36 243c-33 0-61-7-80-14l18-70c14 5 32 10 51 10 55 0 68-41 68-107v-605h91V62c0 111-41 181-148 181zm103-898c-36 0-63-25-63-59 0-37 27-59 63-59 35 0 63 22 63 59 0 34-28 59-63 59" id="O"/><path fill="#e5e5e5" d="M99 197l-56-27c171-284 171-678 0-962l56-26c93 149 148 311 148 507 0 197-55 358-148 508" id="P"/><g id="d"><use transform="matrix(0.018,0,0,0.018,0,0)" xlink:href="#J"/><use transform="matrix(0.018,0,0,0.018,6.084,0)" xlink:href="#C"/><use transform="matrix(0.018,0,0,0.018,13.067999999999998,0)" xlink:href="#E"/><use transform="matrix(0.018,0,0,0.018,23.976,0)" xlink:href="#z"/><use transform="matrix(0.018,0,0,0.018,34.902,0)" xlink:href="#I"/><use transform="matrix(0.018,0,0,0.018,41.688,0)" xlink:href="#K"/><use transform="matrix(0.018,0,0,0.018,46.638000000000005,0)" xlink:href="#L"/><use transform="matrix(0.018,0,0,0.018,57.636,0)" xlink:href="#M"/><use transform="matrix(0.018,0,0,0.018,67.77,0)" xlink:href="#N"/><use transform="matrix(0.018,0,0,0.018,72.774,0)" xlink:href="#O"/><use transform="matrix(0.018,0,0,0.018,77.724,0)" xlink:href="#A"/><use transform="matrix(0.018,0,0,0.018,86.148,0)" xlink:href="#E"/><use transform="matrix(0.018,0,0,0.018,97.056,0)" xlink:href="#L"/><use transform="matrix(0.018,0,0,0.018,108.054,0)" xlink:href="#P"/></g><path fill="#333" d="M500 86C243 86 34-123 34-380s209-466 466-466 466 209 466 466c0 259-211 466-466 466zm0-32c240 0 434-194 434-434S740-814 500-814C258-814 66-618 66-380 66-140 260 54 500 54zm-20-181v-424H374v-53c53-9 91-23 125-41h63v518h-82" id="Q"/><use transform="matrix(0.018,0,0,0.018,0,0)" xlink:href="#Q" id="e"/><path fill="#e5e5e5" d="M235 0L1-733h97c64 212 127 426 190 639h4c63-213 125-426 189-639h94L342 0H235" id="R"/><path fill="#e5e5e5" d="M178 0L27-543h93c39 154 83 304 113 466h5c36-159 81-311 121-466h89c41 154 85 308 123 466h4c34-159 75-312 114-466h86L629 0H519c-39-150-82-293-116-449h-5C365-294 323-150 285 0H178" id="S"/><g id="f"><use transform="matrix(0.018,0,0,0.018,0,0)" xlink:href="#R"/><use transform="matrix(0.018,0,0,0.018,10.35,0)" xlink:href="#K"/><use transform="matrix(0.018,0,0,0.018,15.299999999999999,0)" xlink:href="#B"/><use transform="matrix(0.018,0,0,0.018,25.272,0)" xlink:href="#S"/></g><path fill="#e5e5e5" d="M377 13C195 13 58-128 58-366c0-237 139-381 325-381 89 0 159 44 201 91l-50 60c-38-41-87-70-150-70-139 0-231 114-231 297 0 185 88 301 228 301 70 0 123-31 170-82l51 58C544-25 472 13 377 13" id="T"/><path fill="#e5e5e5" d="M306 13C162 13 51-91 51-271c0-181 123-286 262-286 71 0 120 30 159 64l-47 61c-32-29-65-49-109-49-98 0-170 85-170 210S214-63 314-63c50 0 94-23 128-54l39 61c-48 44-110 69-175 69" id="U"/><g id="g"><use transform="matrix(0.018,0,0,0.018,0,0)" xlink:href="#T"/><use transform="matrix(0.018,0,0,0.018,11.484,0)" xlink:href="#E"/><use transform="matrix(0.018,0,0,0.018,22.392,0)" xlink:href="#L"/><use transform="matrix(0.018,0,0,0.018,33.39,0)" xlink:href="#A"/><use transform="matrix(0.018,0,0,0.018,41.814,0)" xlink:href="#I"/><use transform="matrix(0.018,0,0,0.018,48.6,0)" xlink:href="#C"/><use transform="matrix(0.018,0,0,0.018,55.584,0)" xlink:href="#z"/><use transform="matrix(0.018,0,0,0.018,66.51,0)" xlink:href="#U"/><use transform="matrix(0.018,0,0,0.018,75.672,0)" xlink:href="#I"/><use transform="matrix(0.018,0,0,0.018,82.458,0)" xlink:href="#E"/><use transform="matrix(0.018,0,0,0.018,93.366,0)" xlink:href="#C"/></g><path fill="#e5e5e5" d="M11 179l300-972h66L78 179H11" id="V"/><path fill="#e5e5e5" d="M209 0L13-543h95c51 155 104 312 153 469h4c48-158 101-314 153-469h90L315 0H209" id="W"/><path fill="#e5e5e5" d="M154-471l-44-32 63-104-109-45 18-51 114 28 10-121h54l10 120 114-27 17 51-109 45 64 104-44 32-79-95" id="X"/><g id="h"><use transform="matrix(0.018,0,0,0.018,0,0)" xlink:href="#A"/><use transform="matrix(0.018,0,0,0.018,8.424,0)" xlink:href="#C"/><use transform="matrix(0.018,0,0,0.018,15.407999999999996,0)" xlink:href="#U"/><use transform="matrix(0.018,0,0,0.018,24.569999999999997,0)" xlink:href="#V"/><use transform="matrix(0.018,0,0,0.018,31.625999999999998,0)" xlink:href="#W"/><use transform="matrix(0.018,0,0,0.018,41.004,0)" xlink:href="#K"/><use transform="matrix(0.018,0,0,0.018,45.95399999999999,0)" xlink:href="#B"/><use transform="matrix(0.018,0,0,0.018,55.925999999999995,0)" xlink:href="#S"/><use transform="matrix(0.018,0,0,0.018,70.362,0)" xlink:href="#V"/><use transform="matrix(0.018,0,0,0.018,77.41799999999999,0)" xlink:href="#X"/><use transform="matrix(0.018,0,0,0.018,85.82399999999998,0)" xlink:href="#X"/><use transform="matrix(0.018,0,0,0.018,94.22999999999999,0)" xlink:href="#V"/><use transform="matrix(0.018,0,0,0.018,101.28599999999999,0)" xlink:href="#X"/><use transform="matrix(0.018,0,0,0.018,109.69199999999998,0)" xlink:href="#X"/><use transform="matrix(0.018,0,0,0.018,118.09799999999998,0)" xlink:href="#R"/><use transform="matrix(0.018,0,0,0.018,128.44799999999998,0)" xlink:href="#K"/><use transform="matrix(0.018,0,0,0.018,133.39799999999997,0)" xlink:href="#B"/><use transform="matrix(0.018,0,0,0.018,143.36999999999998,0)" xlink:href="#S"/><use transform="matrix(0.018,0,0,0.018,157.80599999999998,0)" xlink:href="#N"/><use transform="matrix(0.018,0,0,0.018,162.80999999999997,0)" xlink:href="#O"/><use transform="matrix(0.018,0,0,0.018,167.75999999999996,0)" xlink:href="#A"/></g><g id="i"><use transform="matrix(0.018,0,0,0.018,0,0)" xlink:href="#R"/><use transform="matrix(0.018,0,0,0.018,10.35,0)" xlink:href="#K"/><use transform="matrix(0.018,0,0,0.018,15.299999999999999,0)" xlink:href="#B"/><use transform="matrix(0.018,0,0,0.018,25.272,0)" xlink:href="#S"/><use transform="matrix(0.018,0,0,0.018,39.708,0)" xlink:href="#D"/><use transform="matrix(0.018,0,0,0.018,54.324,0)" xlink:href="#E"/><use transform="matrix(0.018,0,0,0.018,65.232,0)" xlink:href="#F"/><use transform="matrix(0.018,0,0,0.018,76.392,0)" xlink:href="#B"/><use transform="matrix(0.018,0,0,0.018,86.36399999999999,0)" xlink:href="#G"/></g><path fill="#333" d="M500 86C243 86 34-123 34-380s209-466 466-466 466 209 466 466c0 259-211 466-466 466zm0-32c240 0 434-194 434-434S740-814 500-814C258-814 66-618 66-380 66-140 260 54 500 54zM327-127v-48c168-147 264-239 264-321 0-58-33-95-102-95-49 0-90 28-122 59l-47-44c50-53 107-81 177-81 107 0 174 62 174 155 0 96-98 193-225 309 76-6 167-3 249-4v70H327" id="Y"/><use transform="matrix(0.018,0,0,0.018,0,0)" xlink:href="#Y" id="j"/><path fill="#333" d="M357-328h171c1-80-2-158 3-236h-4c-49 85-114 158-170 236zm249-317v317h77v63h-77v138h-78v-138H272v-55l240-325h94zM500 54c240 0 434-194 434-434S740-814 500-814C258-814 66-618 66-380 66-140 260 54 500 54zm0-900c257 0 466 209 466 466 0 259-211 466-466 466C243 86 34-123 34-380s209-466 466-466" id="Z"/><use transform="matrix(0.018,0,0,0.018,0,0)" xlink:href="#Z" id="k"/><path fill="#333" d="M500 86C243 86 34-123 34-380s209-466 466-466 466 209 466 466c0 259-211 466-466 466zm0-32c240 0 434-194 434-434S740-814 500-814C258-814 66-618 66-380 66-140 260 54 500 54zm-5-169c-89 0-153-33-191-74l40-53c35 33 80 61 149 61 65 0 111-35 111-88 0-58-44-96-180-96v-61c119 0 161-37 161-89 0-48-36-77-95-77-46 0-88 19-122 52l-43-51c44-40 99-66 167-66 103 0 176 49 176 137 0 60-42 98-102 120v3c68 17 122 61 122 132 0 93-86 150-193 150" id="aa"/><use transform="matrix(0.018,0,0,0.018,0,0)" xlink:href="#aa" id="l"/><path fill="#333" d="M500 86C243 86 34-123 34-380s209-466 466-466 466 209 466 466c0 259-211 466-466 466zm0-32c240 0 434-194 434-434S740-814 500-814C258-814 66-618 66-380 66-140 260 54 500 54zm0-169c-111 0-192-60-192-141 0-69 54-113 108-139v-4c-44-27-82-67-82-121 0-83 73-137 167-137 105 0 168 58 168 138 0 56-43 101-79 125v3c52 28 101 64 101 134 0 80-77 142-191 142zm38-298c37-29 60-64 60-99 0-49-37-86-99-86-53 0-91 30-91 78 0 57 60 84 130 107zm-35 238c66 0 111-32 111-84 0-62-66-86-150-115-44 25-82 60-82 107 0 54 53 92 121 92" id="ab"/><use transform="matrix(0.018,0,0,0.018,0,0)" xlink:href="#ab" id="m"/><g id="n"><use transform="matrix(0.018,0,0,0.018,0,0)" xlink:href="#R"/><use transform="matrix(0.018,0,0,0.018,10.35,0)" xlink:href="#K"/><use transform="matrix(0.018,0,0,0.018,15.299999999999999,0)" xlink:href="#B"/><use transform="matrix(0.018,0,0,0.018,25.272,0)" xlink:href="#S"/><use transform="matrix(0.018,0,0,0.018,39.708,0)" xlink:href="#D"/><use transform="matrix(0.018,0,0,0.018,54.324,0)" xlink:href="#E"/><use transform="matrix(0.018,0,0,0.018,65.232,0)" xlink:href="#F"/><use transform="matrix(0.018,0,0,0.018,76.392,0)" xlink:href="#B"/><use transform="matrix(0.018,0,0,0.018,86.36399999999999,0)" xlink:href="#G"/></g><path fill="#e5e5e5" d="M567-281C567-18 341 97 176-56h-3l-8 56H92v-796h91c0 106 2 214-3 316 49-43 110-77 170-77 141 0 217 110 217 276zM183-120C317-1 471-73 472-279c0-120-40-201-143-201-46 0-94 26-146 75v285" id="ac"/><g id="o"><use transform="matrix(0.018,0,0,0.018,0,0)" xlink:href="#z"/><use transform="matrix(0.018,0,0,0.018,10.925999999999998,0)" xlink:href="#L"/><use transform="matrix(0.018,0,0,0.018,21.924,0)" xlink:href="#ac"/><use transform="matrix(0.018,0,0,0.018,33.048,0)" xlink:href="#K"/><use transform="matrix(0.018,0,0,0.018,37.998000000000005,0)" xlink:href="#L"/><use transform="matrix(0.018,0,0,0.018,48.996,0)" xlink:href="#F"/></g><path fill="#e5e5e5" d="M217 13C126 13 58-43 58-141c0-118 103-177 334-203 0-70-23-137-112-137-63 0-120 29-163 58l-36-63c50-32 127-71 214-71 132 0 188 89 188 223V0h-75l-8-65h-3c-52 43-113 78-180 78zm26-73c53 0 96-25 149-72v-152c-183 22-245 67-245 137 0 62 42 87 96 87" id="ad"/><path fill="#e5e5e5" d="M35 0v-49l286-420H66v-74h370v49L150-74h296V0H35" id="ae"/><g id="p"><use transform="matrix(0.018,0,0,0.018,0,0)" xlink:href="#K"/><use transform="matrix(0.018,0,0,0.018,4.949999999999999,0)" xlink:href="#L"/><use transform="matrix(0.018,0,0,0.018,15.947999999999999,0)" xlink:href="#K"/><use transform="matrix(0.018,0,0,0.018,20.897999999999993,0)" xlink:href="#I"/><use transform="matrix(0.018,0,0,0.018,27.683999999999997,0)" xlink:href="#K"/><use transform="matrix(0.018,0,0,0.018,32.634,0)" xlink:href="#ad"/><use transform="matrix(0.018,0,0,0.018,42.78600000000001,0)" xlink:href="#G"/><use transform="matrix(0.018,0,0,0.018,47.916000000000004,0)" xlink:href="#K"/><use transform="matrix(0.018,0,0,0.018,52.86599999999999,0)" xlink:href="#ae"/><use transform="matrix(0.018,0,0,0.018,61.397999999999996,0)" xlink:href="#B"/></g><path fill="#e5e5e5" d="M356-791l-20 69c-75-34-144-8-138 93v86h115v74H198V0h-91v-469H33v-69l74-5v-87c0-110 50-179 158-179 33 0 65 7 91 18" id="af"/><g id="q"><use transform="matrix(0.018,0,0,0.018,0,0)" xlink:href="#af"/><use transform="matrix(0.018,0,0,0.018,5.85,0)" xlink:href="#z"/><use transform="matrix(0.018,0,0,0.018,16.775999999999996,0)" xlink:href="#L"/><use transform="matrix(0.018,0,0,0.018,27.773999999999994,0)" xlink:href="#U"/><use transform="matrix(0.018,0,0,0.018,36.935999999999986,0)" xlink:href="#I"/><use transform="matrix(0.018,0,0,0.018,43.721999999999994,0)" xlink:href="#K"/><use transform="matrix(0.018,0,0,0.018,48.672,0)" xlink:href="#E"/><use transform="matrix(0.018,0,0,0.018,59.58,0)" xlink:href="#L"/></g><g id="r"><use transform="matrix(0.018,0,0,0.018,0,0)" xlink:href="#J"/><use transform="matrix(0.018,0,0,0.018,6.084,0)" xlink:href="#R"/><use transform="matrix(0.018,0,0,0.018,16.433999999999997,0)" xlink:href="#K"/><use transform="matrix(0.018,0,0,0.018,21.383999999999997,0)" xlink:href="#B"/><use transform="matrix(0.018,0,0,0.018,31.355999999999995,0)" xlink:href="#S"/><use transform="matrix(0.018,0,0,0.018,45.791999999999994,0)" xlink:href="#P"/></g><g id="s"><use transform="matrix(0.018,0,0,0.018,0,0)" xlink:href="#ac"/><use transform="matrix(0.018,0,0,0.018,11.123999999999999,0)" xlink:href="#K"/><use transform="matrix(0.018,0,0,0.018,16.073999999999998,0)" xlink:href="#L"/><use transform="matrix(0.018,0,0,0.018,27.071999999999996,0)" xlink:href="#F"/></g><path fill="#333" d="M500 86C243 86 34-123 34-380s209-466 466-466 466 209 466 466c0 259-211 466-466 466zm0-32c240 0 434-194 434-434S740-814 500-814C258-814 66-618 66-380 66-140 260 54 500 54zm-2-169c-91 0-147-34-187-71l39-54c33 29 76 59 144 59 66 0 117-43 117-110 0-65-47-107-115-107-40 0-65 13-98 34l-42-26 18-255h292v70H444l-13 140c114-53 263-1 263 142 0 113-95 178-196 178" id="ag"/><use transform="matrix(0.018,0,0,0.018,0,0)" xlink:href="#ag" id="t"/><path fill="#333" d="M502-179c53 0 97-42 97-103 0-63-36-103-105-103-35 0-79 17-118 64 11 97 55 142 126 142zm163-421l-45 51c-23-24-60-40-97-40-79 0-145 52-149 207 89-109 303-79 303 98 0 103-80 169-176 169-116 0-205-81-205-253 0-205 107-289 225-289 65 0 111 25 144 57zM500 54c240 0 434-194 434-434S740-814 500-814C258-814 66-618 66-380 66-140 260 54 500 54zm0-900c257 0 466 209 466 466 0 259-211 466-466 466C243 86 34-123 34-380s209-466 466-466" id="ah"/><use transform="matrix(0.018,0,0,0.018,0,0)" xlink:href="#ah" id="u"/><path fill="#333" d="M500 86C243 86 34-123 34-380s209-466 466-466 466 209 466 466c0 259-211 466-466 466zm0-32c240 0 434-194 434-434S740-814 500-814C258-814 66-618 66-380 66-140 260 54 500 54zm-72-181c10-189 50-308 161-448H319v-70h364v50C549-441 523-329 513-127h-85" id="ai"/><use transform="matrix(0.018,0,0,0.018,0,0)" xlink:href="#ai" id="v"/><path fill="#333" d="M388 13C195 13 58-128 58-366c0-237 142-381 336-381 102 0 169 46 211 91l-50 60c-37-39-84-70-159-70-147 0-243 114-243 297 0 185 87 301 244 301 53 0 104-16 133-43v-192H375v-77h240v308c-47 49-128 85-227 85" id="aj"/><path fill="#333" d="M241 5C155 32 92-8 92-108v-688h91v694c3 37 15 43 45 37" id="ak"/><path fill="#333" d="M303 13C170 13 51-91 51-271c0-181 119-286 252-286s252 105 252 286C555-91 436 13 303 13zm0-76c94 0 158-83 158-208s-64-210-158-210-157 85-157 210S209-63 303-63" id="al"/><path fill="#333" d="M567-281C567-18 341 97 176-56h-3l-8 56H92v-796h91c0 106 2 214-3 316 49-43 110-77 170-77 141 0 217 110 217 276zM183-120C317-1 471-73 472-279c0-120-40-201-143-201-46 0-94 26-146 75v285" id="am"/><path fill="#333" d="M217 13C126 13 58-43 58-141c0-118 103-177 334-203 0-70-23-137-112-137-63 0-120 29-163 58l-36-63c50-32 127-71 214-71 132 0 188 89 188 223V0h-75l-8-65h-3c-52 43-113 78-180 78zm26-73c53 0 96-25 149-72v-152c-183 22-245 67-245 137 0 62 42 87 96 87" id="an"/><g id="w"><use transform="matrix(0.018,0,0,0.018,0,0)" xlink:href="#aj"/><use transform="matrix(0.018,0,0,0.018,12.402,0)" xlink:href="#ak"/><use transform="matrix(0.018,0,0,0.018,17.532,0)" xlink:href="#al"/><use transform="matrix(0.018,0,0,0.018,28.439999999999998,0)" xlink:href="#am"/><use transform="matrix(0.018,0,0,0.018,39.564,0)" xlink:href="#an"/><use transform="matrix(0.018,0,0,0.018,49.715999999999994,0)" xlink:href="#ak"/></g><path fill="#e5e5e5" d="M233-177c-1 41-23 64-60 70L243 0h-38l-65-103H63V0H30v-248c88 3 205-21 203 71zM63-129c60-2 137 13 137-47 0-61-80-42-137-45v92" id="ao"/><path fill="#e5e5e5" d="M100-194c63 0 86 42 84 106H49c0 40 14 67 53 68 26 1 43-12 49-29l28 8c-11 28-37 45-77 45C44 4 14-33 15-96c1-61 26-98 85-98zm52 81c6-60-76-77-97-28-3 7-6 17-6 28h103" id="ap"/><path fill="#e5e5e5" d="M135-143c-3-34-86-38-87 0 15 53 115 12 119 90S17 21 10-45l28-5c4 36 97 45 98 0-10-56-113-15-118-90-4-57 82-63 122-42 12 7 21 19 24 35" id="aq"/><path fill="#e5e5e5" d="M115-194c55 1 70 41 70 98S169 2 115 4C84 4 66-9 55-30l1 105H24l-1-265h31l2 30c10-21 28-34 59-34zm-8 174c40 0 45-34 45-75s-6-73-45-74c-42 0-51 32-51 76 0 43 10 73 51 73" id="ar"/><path fill="#e5e5e5" d="M100-194c62-1 85 37 85 99 1 63-27 99-86 99S16-35 15-95c0-66 28-99 85-99zM99-20c44 1 53-31 53-75 0-43-8-75-51-75s-53 32-53 75 10 74 51 75" id="as"/><path fill="#e5e5e5" d="M117-194c89-4 53 116 60 194h-32v-121c0-31-8-49-39-48C34-167 62-67 57 0H25l-1-190h30c1 10-1 24 2 32 11-22 29-35 61-36" id="at"/><g id="x"><use transform="matrix(0.04839518518518518,0,0,0.04839518518518518,0,0)" xlink:href="#ao"/><use transform="matrix(0.04839518518518518,0,0,0.04839518518518518,12.534352962962961,0)" xlink:href="#ap"/><use transform="matrix(0.04839518518518518,0,0,0.04839518518518518,22.213389999999997,0)" xlink:href="#aq"/><use transform="matrix(0.04839518518518518,0,0,0.04839518518518518,30.92452333333333,0)" xlink:href="#ar"/><use transform="matrix(0.04839518518518518,0,0,0.04839518518518518,40.60356037037037,0)" xlink:href="#as"/><use transform="matrix(0.04839518518518518,0,0,0.04839518518518518,50.2825974074074,0)" xlink:href="#at"/><use transform="matrix(0.04839518518518518,0,0,0.04839518518518518,59.961634444444435,0)" xlink:href="#aq"/><use transform="matrix(0.04839518518518518,0,0,0.04839518518518518,68.67276777777776,0)" xlink:href="#ap"/></g><path fill="#e5e5e5" d="M240 0l2-218c-23 76-54 145-80 218h-23L58-218 59 0H30v-248h44l77 211c21-75 51-140 76-211h43V0h-30" id="au"/><path fill="#e5e5e5" d="M141-36C126-15 110 5 73 4 37 3 15-17 15-53c-1-64 63-63 125-63 3-35-9-54-41-54-24 1-41 7-42 31l-33-3c5-37 33-52 76-52 45 0 72 20 72 64v82c-1 20 7 32 28 27v20c-31 9-61-2-59-35zM48-53c0 20 12 33 32 33 41-3 63-29 60-74-43 2-92-5-92 41" id="av"/><g id="y"><use transform="matrix(0.04839518518518518,0,0,0.04839518518518518,0,0)" xlink:href="#au"/><use transform="matrix(0.04839518518518518,0,0,0.04839518518518518,14.470160370370369,0)" xlink:href="#av"/><use transform="matrix(0.04839518518518518,0,0,0.04839518518518518,24.149197407407407,0)" xlink:href="#ar"/></g></defs></g></svg>