<svg xmlns="http://www.w3.org/2000/svg" xmlns:xlink="http://www.w3.org/1999/xlink" xmlns:lucid="lucid" width="2540" height="1311"><g transform="translate(200 -200)" lucid:page-tab-id="0_0"><path d="M580 220c22.1 0 40 17.9 40 40s-17.9 40-40 40H460c-22.1 0-40-17.9-40-40s17.9-40 40-40z" stroke="#5e5e5e" stroke-width="3" fill="#fff"/><use xlink:href="#a" transform="matrix(1,0,0,1,425,225) translate(71.32222222222222 43.27777777777777)"/><path d="M360 506c0-3.3 2.7-6 6-6h308c3.3 0 6 2.7 6 6v148c0 3.3-2.7 6-6 6H366c-3.3 0-6-2.7-6-6z" stroke="#000" stroke-width="3" fill="#0c7cba"/><use xlink:href="#b" transform="matrix(1,0,0,1,372,512) translate(116.13333333333333 59.77777777777777)"/><use xlink:href="#c" transform="matrix(1,0,0,1,372,512) translate(58.855555555555554 92.66666666666666)"/><path d="M900 506c0-3.3 2.7-6 6-6h308c3.3 0 6 2.7 6 6v148c0 3.3-2.7 6-6 6H906c-3.3 0-6-2.7-6-6z" stroke="#000" stroke-width="3" fill="#0c7cba"/><use xlink:href="#d" transform="matrix(1,0,0,1,912,512) translate(33.07777777777777 59.77777777777777)"/><use xlink:href="#e" transform="matrix(1,0,0,1,912,512) translate(110.86666666666667 92.66666666666666)"/><path d="M360 846c0-3.3 2.7-6 6-6h276c3.3 0 6 2.7 6 6v147c-48.1-25.55-78.05-25.55-96.2-25.55-28.8 0-67.1 25.55-95.9 25.55-17.85 0-48.1 0-95.9-25.55z" stroke="#5e5e5e" stroke-width="3" fill="#0c7cba"/><path d="M376 859.5c0-3.3 2.7-6 6-6h276c3.3 0 6 2.7 6 6v147c-48.1-25.55-78.05-25.55-96.2-25.55-28.8 0-67.1 25.55-95.9 25.55-17.85 0-48.1 0-95.9-25.55z" stroke="#5e5e5e" stroke-width="3" fill="#0c7cba"/><path d="M392 873c0-3.3 2.7-6 6-6h276c3.3 0 6 2.7 6 6v147c-48.1-25.55-78.05-25.55-96.2-25.55-28.8 0-67.1 25.55-95.9 25.55-17.85 0-48.1 0-95.9-25.55z" stroke="#5e5e5e" stroke-width="3" fill="#0c7cba"/><use xlink:href="#f" transform="matrix(1,0,0,1,397,872) translate(80.65555555555555 51.59027777777777)"/><use xlink:href="#g" transform="matrix(1,0,0,1,397,872) translate(68.56666666666666 84.47916666666666)"/><path d="M-132 966c-26.5 0-48-16.12-48-36 0-15.9 13-29.32 33.17-34.24C-148 849-68 840-36 858c16-27 96-18 96 9 48-9 96 27 64 72 32 36 0 81-64 63-16 23.4-80 23.4-96 0-32 18-96 9-96-36z" stroke="#5e5e5e" stroke-width="3" fill="#c7e8ac"/><use xlink:href="#h" transform="matrix(1,0,0,1,-175,844.9999999999998) translate(116.64944444444446 95.24652777777777)"/><path d="M2000 1026c0-3.3 2.7-6 6-6h276c3.3 0 6 2.7 6 6v147c-48.1-25.55-78.05-25.55-96.2-25.55-28.8 0-67.1 25.55-95.9 25.55-17.85 0-48.1 0-95.9-25.55z" stroke="#5e5e5e" stroke-width="3" fill="#0c7cba"/><path d="M2016 1039.5c0-3.3 2.7-6 6-6h276c3.3 0 6 2.7 6 6v147c-48.1-25.55-78.05-25.55-96.2-25.55-28.8 0-67.1 25.55-95.9 25.55-17.85 0-48.1 0-95.9-25.55z" stroke="#5e5e5e" stroke-width="3" fill="#0c7cba"/><path d="M2032 1053c0-3.3 2.7-6 6-6h276c3.3 0 6 2.7 6 6v147c-48.1-25.55-78.05-25.55-96.2-25.55-28.8 0-67.1 25.55-95.9 25.55-17.85 0-48.1 0-95.9-25.55z" stroke="#5e5e5e" stroke-width="3" fill="#0c7cba"/><use xlink:href="#i" transform="matrix(1,0,0,1,2037,1052) translate(56.34444444444445 51.59027777777777)"/><use xlink:href="#j" transform="matrix(1,0,0,1,2037,1052) translate(150.3 51.59027777777777)"/><use xlink:href="#k" transform="matrix(1,0,0,1,2037,1052) translate(49.92222222222222 84.47916666666666)"/><use xlink:href="#l" transform="matrix(1,0,0,1,2037,1052) translate(156.72222222222223 84.47916666666666)"/><path d="M60 1206c0-3.3 2.7-6 6-6h276c3.3 0 6 2.7 6 6v147c-48.1-25.55-78.05-25.55-96.2-25.55-28.8 0-67.1 25.55-95.9 25.55-17.85 0-48.1 0-95.9-25.55z" stroke="#5e5e5e" stroke-width="3" fill="#0c7cba"/><path d="M76 1219.5c0-3.3 2.7-6 6-6h276c3.3 0 6 2.7 6 6v147c-48.1-25.55-78.05-25.55-96.2-25.55-28.8 0-67.1 25.55-95.9 25.55-17.85 0-48.1 0-95.9-25.55z" stroke="#5e5e5e" stroke-width="3" fill="#0c7cba"/><path d="M92 1233c0-3.3 2.7-6 6-6h276c3.3 0 6 2.7 6 6v147c-48.1-25.55-78.05-25.55-96.2-25.55-28.8 0-67.1 25.55-95.9 25.55-17.85 0-48.1 0-95.9-25.55z" stroke="#5e5e5e" stroke-width="3" fill="#0c7cba"/><use xlink:href="#m" transform="matrix(1,0,0,1,97,1232) translate(80.88888888888889 70.02777777777777)"/><path d="M357.5 930.14h-208" stroke="#5e5e5e" stroke-width="2" fill="none"/><path d="M358.5 931.14h-1.03v-2h1.03" fill="#5e5e5e"/><path d="M134.23 930.14l14.27-4.63v9.28z" stroke="#5e5e5e" stroke-width="2" fill="#5e5e5e"/><path d="M900 856.14c0-3.3 2.7-6 6-6h308c3.3 0 6 2.7 6 6v148c0 3.32-2.7 6-6 6H906c-3.3 0-6-2.68-6-6z" stroke="#000" stroke-width="3" fill="#0c7cba"/><use xlink:href="#n" transform="matrix(1,0,0,1,912,862.1447174413212) translate(78.93333333333334 59.77777777777777)"/><use xlink:href="#o" transform="matrix(1,0,0,1,912,862.1447174413212) translate(87.48888888888888 92.66666666666666)"/><path d="M682.5 930.14H880" stroke="#5e5e5e" stroke-width="2" fill="none"/><path d="M682.53 931.14h-1.03v-2h1.03" fill="#5e5e5e"/><path d="M895.26 930.14L881 934.78v-9.27z" stroke="#5e5e5e" stroke-width="2" fill="#5e5e5e"/><path d="M900 1206c0-3.3 2.7-6 6-6h308c3.3 0 6 2.7 6 6v148c0 3.3-2.7 6-6 6H906c-3.3 0-6-2.7-6-6z" stroke="#000" stroke-width="3" fill="#0c7cba"/><use xlink:href="#n" transform="matrix(1,0,0,1,912,1212) translate(78.93333333333334 59.77777777777777)"/><use xlink:href="#p" transform="matrix(1,0,0,1,912,1212) translate(103.94444444444444 92.66666666666666)"/><path d="M1440 1206c0-3.3 2.7-6 6-6h308c3.3 0 6 2.7 6 6v148c0 3.3-2.7 6-6 6h-308c-3.3 0-6-2.7-6-6z" stroke="#000" stroke-width="3" fill="#0c7cba"/><use xlink:href="#q" transform="matrix(1,0,0,1,1452,1212) translate(46.96666666666667 59.77777777777777)"/><use xlink:href="#o" transform="matrix(1,0,0,1,1452,1212) translate(87.48888888888888 92.66666666666666)"/><path d="M1060 1012.64V1180" stroke="#5e5e5e" stroke-width="2" fill="none"/><path d="M1061 1012.67h-2v-1.03h2" fill="#5e5e5e"/><path d="M1060 1195.26l-4.64-14.26h9.28z" stroke="#5e5e5e" stroke-width="2" fill="#5e5e5e"/><path d="M1222.5 1280H1420" stroke="#5e5e5e" stroke-width="2" fill="none"/><path d="M1222.53 1281h-1.03v-2h1.03" fill="#5e5e5e"/><path d="M1435.26 1280l-14.26 4.64v-9.28z" stroke="#5e5e5e" stroke-width="2" fill="#5e5e5e"/><path d="M1440 856c0-3.3 2.7-6 6-6h308c3.3 0 6 2.7 6 6v148c0 3.3-2.7 6-6 6h-308c-3.3 0-6-2.7-6-6z" stroke="#000" stroke-width="3" fill="#0c7cba"/><use xlink:href="#q" transform="matrix(1,0,0,1,1452,862) translate(46.96666666666667 59.77777777777777)"/><use xlink:href="#r" transform="matrix(1,0,0,1,1452,862) translate(124.4 92.66666666666666)"/><path d="M1600 1197.5V1030" stroke="#5e5e5e" stroke-width="2" fill="none"/><path d="M1601 1198.5h-2v-1.03h2" fill="#5e5e5e"/><path d="M1600 1014.74l4.64 14.26h-9.28z" stroke="#5e5e5e" stroke-width="2" fill="#5e5e5e"/><path d="M2000 666c0-3.3 2.7-6 6-6h276c3.3 0 6 2.7 6 6v147c-48.1-25.55-78.05-25.55-96.2-25.55-28.8 0-67.1 25.55-95.9 25.55-17.85 0-48.1 0-95.9-25.55z" stroke="#5e5e5e" stroke-width="3" fill="#0c7cba"/><path d="M2016 679.5c0-3.3 2.7-6 6-6h276c3.3 0 6 2.7 6 6v147c-48.1-25.55-78.05-25.55-96.2-25.55-28.8 0-67.1 25.55-95.9 25.55-17.85 0-48.1 0-95.9-25.55z" stroke="#5e5e5e" stroke-width="3" fill="#0c7cba"/><path d="M2032 693c0-3.3 2.7-6 6-6h276c3.3 0 6 2.7 6 6v147c-48.1-25.55-78.05-25.55-96.2-25.55-28.8 0-67.1 25.55-95.9 25.55-17.85 0-48.1 0-95.9-25.55z" stroke="#5e5e5e" stroke-width="3" fill="#0c7cba"/><use xlink:href="#s" transform="matrix(1,0,0,1,2037,692) translate(88.33333333333333 70.02777777777777)"/><path d="M1780 930h94c3.3 0 6-2.7 6-6V745.86c0-3.32 2.7-6 6-6h94" stroke="#5e5e5e" stroke-width="2" fill="none"/><path d="M1764.74 930l14.26-4.64v9.28zM1995.26 739.86L1981 744.5v-9.28z" stroke="#5e5e5e" stroke-width="2" fill="#5e5e5e"/><path d="M1600 847.5V266c0-3.3-2.7-6-6-6H640" stroke="#5e5e5e" stroke-width="2" fill="none"/><path d="M1601 848.5h-2v-1.03h2" fill="#5e5e5e"/><path d="M624.74 260l14.26-4.64v9.28z" stroke="#5e5e5e" stroke-width="2" fill="#5e5e5e"/><path d="M520 302.5V480" stroke="#5e5e5e" stroke-width="2" fill="none"/><path d="M521 302.53h-2v-1.03h2" fill="#5e5e5e"/><path d="M520 495.26L515.36 481h9.28z" stroke="#5e5e5e" stroke-width="2" fill="#5e5e5e"/><path d="M520 1015.17V1094c0 3.3-2.7 6-6 6H226c-3.3 0-6 2.7-6 6v74" stroke="#5e5e5e" stroke-width="2" fill="none"/><path d="M521 1015.2h-2v-.68l2-.7" fill="#5e5e5e"/><path d="M220 1195.26l-4.64-14.26h9.28z" stroke="#5e5e5e" stroke-width="2" fill="#5e5e5e"/><path d="M520 1015.17V1494c0 3.3 2.7 6 6 6h1628c3.3 0 6-2.7 6-6v-281.33" stroke="#5e5e5e" stroke-width="2" fill="none"/><path d="M521 1015.2h-2v-.68l2-.7" fill="#5e5e5e"/><path d="M2160 1197.4l4.64 14.27h-9.28z" stroke="#5e5e5e" stroke-width="2" fill="#5e5e5e"/><path d="M682.5 580H880" stroke="#5e5e5e" stroke-width="2" fill="none"/><path d="M682.53 581h-1.03v-2h1.03" fill="#5e5e5e"/><path d="M895.26 580L881 584.64v-9.28z" stroke="#5e5e5e" stroke-width="2" fill="#5e5e5e"/><path d="M520 662.5V820" stroke="#5e5e5e" stroke-width="2" fill="none"/><path d="M521 662.53h-2v-1.03h2" fill="#5e5e5e"/><path d="M520 835.26L515.36 821h9.28z" stroke="#5e5e5e" stroke-width="2" fill="#5e5e5e"/><path d="M1980 1110.14h-94c-3.3 0-6-2.68-6-6V936c0-3.3-2.7-6-6-6h-94" stroke="#5e5e5e" stroke-width="2" fill="none"/><path d="M1995.26 1110.14l-14.26 4.64v-9.27zM1764.74 930l14.26-4.64v9.28z" stroke="#5e5e5e" stroke-width="2" fill="#5e5e5e"/><defs><path fill="#333" d="M360 13C211 13 97-67 97-303v-430h93v433c0 177 75 232 170 232 98 0 175-55 175-232v-433h89v430C624-67 510 13 360 13" id="t"/><path fill="#333" d="M234 13C157 13 83-19 31-62l45-60c47 38 96 64 161 64 72 0 107-38 107-85 0-55-64-80-124-103-76-28-162-65-162-157 0-86 69-154 187-154 67 0 126 28 169 61l-44 59c-38-28-76-48-125-48-68 0-99 36-99 78 0 52 59 71 120 94 79 30 166 62 166 165 0 88-70 161-198 161" id="u"/><path fill="#333" d="M311 13C167 13 51-92 51-271c0-176 119-286 245-286 154-3 234 132 212 307H142c6 116 77 190 180 190 53 0 96-16 136-43l33 60c-48 31-106 56-180 56zM141-315h291c0-110-50-169-135-169-77 0-145 62-156 169" id="v"/><path fill="#333" d="M92 0v-543h75l8 99h3c50-86 117-137 212-101l-17 80c-18-7-31-9-53-9-45 0-101 32-137 125V0H92" id="w"/><g id="a"><use transform="matrix(0.022222222222222223,0,0,0.022222222222222223,0,0)" xlink:href="#t"/><use transform="matrix(0.022222222222222223,0,0,0.022222222222222223,16.022222222222222,0)" xlink:href="#u"/><use transform="matrix(0.022222222222222223,0,0,0.022222222222222223,26.422222222222224,0)" xlink:href="#v"/><use transform="matrix(0.022222222222222223,0,0,0.022222222222222223,38.733333333333334,0)" xlink:href="#w"/></g><path fill="#fff" d="M191-298h222c-37-120-75-237-109-360h-4c-33 124-71 241-109 360zM506 0l-70-224H168L97 0H3l249-733h103L604 0h-98" id="x"/><path fill="#fff" d="M92 229v-772h75l8 62h3c49-40 110-76 173-76 140 0 216 110 216 277C567-22 349 94 181-50c3 91 2 185 2 279H92zm91-349C317-1 471-73 472-279c0-120-40-201-143-201-46 0-93 26-146 75v285" id="y"/><path fill="#fff" d="M139 13c-36 0-66-28-66-69s30-71 66-71 66 30 66 71-30 69-66 69" id="z"/><path fill="#fff" d="M36 243c-33 0-61-7-80-14l18-70c14 5 32 10 51 10 55 0 68-41 68-107v-605h91V62c0 111-41 181-148 181zm103-898c-36 0-63-25-63-59 0-37 27-59 63-59 35 0 63 22 63 59 0 34-28 59-63 59" id="A"/><path fill="#fff" d="M234 13C157 13 83-19 31-62l45-60c47 38 96 64 161 64 72 0 107-38 107-85 0-55-64-80-124-103-76-28-162-65-162-157 0-86 69-154 187-154 67 0 126 28 169 61l-44 59c-38-28-76-48-125-48-68 0-99 36-99 78 0 52 59 71 120 94 79 30 166 62 166 165 0 88-70 161-198 161" id="B"/><g id="b"><use transform="matrix(0.022222222222222223,0,0,0.022222222222222223,0,0)" xlink:href="#x"/><use transform="matrix(0.022222222222222223,0,0,0.022222222222222223,13.488888888888889,0)" xlink:href="#y"/><use transform="matrix(0.022222222222222223,0,0,0.022222222222222223,27.26666666666667,0)" xlink:href="#y"/><use transform="matrix(0.022222222222222223,0,0,0.022222222222222223,41.044444444444444,0)" xlink:href="#z"/><use transform="matrix(0.022222222222222223,0,0,0.022222222222222223,47.22222222222222,0)" xlink:href="#A"/><use transform="matrix(0.022222222222222223,0,0,0.022222222222222223,53.333333333333336,0)" xlink:href="#B"/></g><path fill="#fff" d="M275 250c-133 0-225-52-225-146 0-46 30-90 81-123v-4c-29-17-50-46-50-89 0-45 33-81 61-101v-4c-36-29-71-81-71-146-2-145 144-228 280-180h189v70H429c26 25 44 65 44 112 4 144-147 228-279 170-52 42-57 131 60 124h106c126 0 189 40 189 129 0 101-106 188-274 188zm0-484c62 0 115-50 115-129s-51-127-115-127-116 47-116 127c0 79 53 129 116 129zm13 422c104 0 173-55 173-112 0-103-183-49-275-76-106 75-57 194 102 188" id="C"/><path fill="#fff" d="M303 13C170 13 51-91 51-271c0-181 119-286 252-286s252 105 252 286C555-91 436 13 303 13zm0-76c94 0 158-83 158-208s-64-210-158-210-157 85-157 210S209-63 303-63" id="D"/><path fill="#fff" d="M263 13c-116 0-155-72-155-181v-301H27v-69l85-5 11-152h76v152h147v74H199v303c0 67 21 105 84 105 19 0 44-7 62-14l18 68c-31 10-67 20-100 20" id="E"/><path fill="#fff" d="M235 0L1-733h97c64 212 127 426 190 639h4c63-213 125-426 189-639h94L342 0H235" id="F"/><path fill="#fff" d="M92 0v-543h91V0H92zm46-655c-36 0-63-25-63-59 0-37 27-59 63-59s63 22 63 59c0 34-27 59-63 59" id="G"/><path fill="#fff" d="M311 13C167 13 51-92 51-271c0-176 119-286 245-286 154-3 234 132 212 307H142c6 116 77 190 180 190 53 0 96-16 136-43l33 60c-48 31-106 56-180 56zM141-315h291c0-110-50-169-135-169-77 0-145 62-156 169" id="H"/><path fill="#fff" d="M178 0L27-543h93c39 154 83 304 113 466h5c36-159 81-311 121-466h89c41 154 85 308 123 466h4c34-159 75-312 114-466h86L629 0H519c-39-150-82-293-116-449h-5C365-294 323-150 285 0H178" id="I"/><path fill="#fff" d="M239 197C147 47 92-114 92-311c0-196 55-358 147-507l57 26c-171 284-171 678 0 962" id="J"/><path fill="#fff" d="M304 170c-119 6-181-11-180-149 0-81 10-140 10-215 0-44-20-87-96-88v-57c76-1 96-44 96-87 0-76-10-135-10-216-1-138 61-155 180-149v51c-79-6-105 18-105 103 0 105 45 306-61 324v4c105 20 61 218 61 325 0 85 26 108 105 102v52" id="K"/><path fill="#fff" d="M100 0v-733h209c165 0 275 55 275 215 0 155-110 227-270 227H193V0h-93zm93-366h109c129 0 190-47 190-152 0-106-65-140-194-140H193v292" id="L"/><path fill="#fff" d="M217 13C126 13 58-43 58-141c0-118 103-177 334-203 0-70-23-137-112-137-63 0-120 29-163 58l-36-63c50-32 127-71 214-71 132 0 188 89 188 223V0h-75l-8-65h-3c-52 43-113 78-180 78zm26-73c53 0 96-25 149-72v-152c-183 22-245 67-245 137 0 62 42 87 96 87" id="M"/><path fill="#fff" d="M34 170v-52c79 6 105-17 105-102 0-107-42-304 61-325v-4c-104-18-61-220-61-324 0-85-25-109-105-103v-51c119-6 181 11 180 149 0 81-9 140-9 216 0 43 19 86 95 87v57c-76 1-95 44-95 88 0 75 9 134 9 215 1 138-61 155-180 149" id="N"/><path fill="#fff" d="M99 197l-56-27c171-284 171-678 0-962l56-26c93 149 148 311 148 507 0 197-55 358-148 508" id="O"/><g id="c"><use transform="matrix(0.022222222222222223,0,0,0.022222222222222223,0,0)" xlink:href="#C"/><use transform="matrix(0.022222222222222223,0,0,0.022222222222222223,12.511111111111111,0)" xlink:href="#D"/><use transform="matrix(0.022222222222222223,0,0,0.022222222222222223,25.977777777777778,0)" xlink:href="#E"/><use transform="matrix(0.022222222222222223,0,0,0.022222222222222223,34.355555555555554,0)" xlink:href="#D"/><use transform="matrix(0.022222222222222223,0,0,0.022222222222222223,47.82222222222222,0)" xlink:href="#F"/><use transform="matrix(0.022222222222222223,0,0,0.022222222222222223,60.6,0)" xlink:href="#G"/><use transform="matrix(0.022222222222222223,0,0,0.022222222222222223,66.71111111111111,0)" xlink:href="#H"/><use transform="matrix(0.022222222222222223,0,0,0.022222222222222223,79.02222222222223,0)" xlink:href="#I"/><use transform="matrix(0.022222222222222223,0,0,0.022222222222222223,96.84444444444445,0)" xlink:href="#J"/><use transform="matrix(0.022222222222222223,0,0,0.022222222222222223,104.35555555555555,0)" xlink:href="#K"/><use transform="matrix(0.022222222222222223,0,0,0.022222222222222223,111.86666666666665,0)" xlink:href="#L"/><use transform="matrix(0.022222222222222223,0,0,0.022222222222222223,125.9111111111111,0)" xlink:href="#M"/><use transform="matrix(0.022222222222222223,0,0,0.022222222222222223,138.44444444444443,0)" xlink:href="#C"/><use transform="matrix(0.022222222222222223,0,0,0.022222222222222223,150.95555555555555,0)" xlink:href="#H"/><use transform="matrix(0.022222222222222223,0,0,0.022222222222222223,163.26666666666665,0)" xlink:href="#N"/><use transform="matrix(0.022222222222222223,0,0,0.022222222222222223,170.77777777777777,0)" xlink:href="#O"/></g><path fill="#fff" d="M377 13C195 13 58-128 58-366c0-237 139-381 325-381 89 0 159 44 201 91l-50 60c-38-41-87-70-150-70-139 0-231 114-231 297 0 185 88 301 228 301 70 0 123-31 170-82l51 58C544-25 472 13 377 13" id="P"/><path fill="#fff" d="M250 13C136 13 85-61 85-199v-344h91v333c0 101 30 144 102 144 56 0 95-27 147-92v-385h91V0h-76l-7-85h-3c-51 59-105 98-180 98" id="Q"/><path fill="#fff" d="M92 0v-543h75l8 99h3c50-86 117-137 212-101l-17 80c-18-7-31-9-53-9-45 0-101 32-137 125V0H92" id="R"/><path fill="#fff" d="M92 0v-543h75l8 78h3c52-51 108-92 182-92 114 0 166 74 166 213V0h-91v-332c0-102-31-145-103-145-56 0-94 28-149 83V0H92" id="S"/><path fill="#fff" d="M100 0v-733h112c65 181 131 360 193 545h5c59-186 126-364 190-545h112V0h-87c2-212-8-425 12-622h-4C570-437 502-256 436-74h-62c-66-182-134-363-197-548h-4c18 198 9 411 11 622h-84" id="T"/><path fill="#fff" d="M277 13C141 13 53-90 53-271c-5-249 231-368 388-222-8-95-4-201-5-303h91V0h-74c-4-21-4-46-11-64-43 42-100 77-165 77zm20-76c50 0 94-25 139-75v-285c-123-120-291-42-289 151 0 131 54 209 150 209" id="U"/><path fill="#fff" d="M241 5C155 32 92-8 92-108v-688h91v694c3 37 15 43 45 37" id="V"/><g id="d"><use transform="matrix(0.022222222222222223,0,0,0.022222222222222223,0,0)" xlink:href="#K"/><use transform="matrix(0.022222222222222223,0,0,0.022222222222222223,7.511111111111111,0)" xlink:href="#P"/><use transform="matrix(0.022222222222222223,0,0,0.022222222222222223,21.68888888888889,0)" xlink:href="#Q"/><use transform="matrix(0.022222222222222223,0,0,0.022222222222222223,35.17777777777778,0)" xlink:href="#R"/><use transform="matrix(0.022222222222222223,0,0,0.022222222222222223,43.8,0)" xlink:href="#R"/><use transform="matrix(0.022222222222222223,0,0,0.022222222222222223,52.42222222222222,0)" xlink:href="#H"/><use transform="matrix(0.022222222222222223,0,0,0.022222222222222223,64.73333333333333,0)" xlink:href="#S"/><use transform="matrix(0.022222222222222223,0,0,0.022222222222222223,78.31111111111112,0)" xlink:href="#E"/><use transform="matrix(0.022222222222222223,0,0,0.022222222222222223,86.6888888888889,0)" xlink:href="#N"/><use transform="matrix(0.022222222222222223,0,0,0.022222222222222223,94.2,0)" xlink:href="#F"/><use transform="matrix(0.022222222222222223,0,0,0.022222222222222223,106.97777777777779,0)" xlink:href="#G"/><use transform="matrix(0.022222222222222223,0,0,0.022222222222222223,113.08888888888889,0)" xlink:href="#H"/><use transform="matrix(0.022222222222222223,0,0,0.022222222222222223,125.40000000000002,0)" xlink:href="#I"/><use transform="matrix(0.022222222222222223,0,0,0.022222222222222223,143.22222222222223,0)" xlink:href="#T"/><use transform="matrix(0.022222222222222223,0,0,0.022222222222222223,161.26666666666668,0)" xlink:href="#D"/><use transform="matrix(0.022222222222222223,0,0,0.022222222222222223,174.73333333333335,0)" xlink:href="#U"/><use transform="matrix(0.022222222222222223,0,0,0.022222222222222223,188.51111111111112,0)" xlink:href="#H"/><use transform="matrix(0.022222222222222223,0,0,0.022222222222222223,200.82222222222222,0)" xlink:href="#V"/><use transform="matrix(0.022222222222222223,0,0,0.022222222222222223,207.15555555555557,0)" xlink:href="#z"/><use transform="matrix(0.022222222222222223,0,0,0.022222222222222223,213.33333333333334,0)" xlink:href="#A"/><use transform="matrix(0.022222222222222223,0,0,0.022222222222222223,219.44444444444446,0)" xlink:href="#B"/></g><path fill="#fff" d="M567-281C567-18 341 97 176-56h-3l-8 56H92v-796h91c0 106 2 214-3 316 49-43 110-77 170-77 141 0 217 110 217 276zM183-120C317-1 471-73 472-279c0-120-40-201-143-201-46 0-94 26-146 75v285" id="W"/><g id="e"><use transform="matrix(0.022222222222222223,0,0,0.022222222222222223,0,0)" xlink:href="#Q"/><use transform="matrix(0.022222222222222223,0,0,0.022222222222222223,13.488888888888889,0)" xlink:href="#S"/><use transform="matrix(0.022222222222222223,0,0,0.022222222222222223,27.066666666666666,0)" xlink:href="#W"/><use transform="matrix(0.022222222222222223,0,0,0.022222222222222223,40.8,0)" xlink:href="#G"/><use transform="matrix(0.022222222222222223,0,0,0.022222222222222223,46.91111111111111,0)" xlink:href="#S"/><use transform="matrix(0.022222222222222223,0,0,0.022222222222222223,60.488888888888894,0)" xlink:href="#U"/></g><path fill="#fff" d="M436 229c0-99-2-200 5-292-44 43-101 76-164 76C141 13 53-90 53-271c-5-250 233-370 390-220h3l9-52h72v772h-91zM297-63c50 0 94-25 139-75v-285c-123-120-291-42-289 151 0 131 54 209 150 209" id="X"/><g id="f"><use transform="matrix(0.022222222222222223,0,0,0.022222222222222223,0,0)" xlink:href="#R"/><use transform="matrix(0.022222222222222223,0,0,0.022222222222222223,8.622222222222222,0)" xlink:href="#H"/><use transform="matrix(0.022222222222222223,0,0,0.022222222222222223,20.933333333333334,0)" xlink:href="#X"/><use transform="matrix(0.022222222222222223,0,0,0.022222222222222223,34.71111111111111,0)" xlink:href="#Q"/><use transform="matrix(0.022222222222222223,0,0,0.022222222222222223,48.19999999999999,0)" xlink:href="#H"/><use transform="matrix(0.022222222222222223,0,0,0.022222222222222223,60.511111111111106,0)" xlink:href="#B"/><use transform="matrix(0.022222222222222223,0,0,0.022222222222222223,70.91111111111111,0)" xlink:href="#E"/><use transform="matrix(0.022222222222222223,0,0,0.022222222222222223,79.28888888888889,0)" xlink:href="#B"/></g><g id="g"><use transform="matrix(0.022222222222222223,0,0,0.022222222222222223,0,0)" xlink:href="#J"/><use transform="matrix(0.022222222222222223,0,0,0.022222222222222223,7.511111111111111,0)" xlink:href="#R"/><use transform="matrix(0.022222222222222223,0,0,0.022222222222222223,16.133333333333333,0)" xlink:href="#D"/><use transform="matrix(0.022222222222222223,0,0,0.022222222222222223,29.6,0)" xlink:href="#Q"/><use transform="matrix(0.022222222222222223,0,0,0.022222222222222223,43.08888888888889,0)" xlink:href="#E"/><use transform="matrix(0.022222222222222223,0,0,0.022222222222222223,51.46666666666667,0)" xlink:href="#G"/><use transform="matrix(0.022222222222222223,0,0,0.022222222222222223,57.57777777777778,0)" xlink:href="#S"/><use transform="matrix(0.022222222222222223,0,0,0.022222222222222223,71.15555555555557,0)" xlink:href="#C"/><use transform="matrix(0.022222222222222223,0,0,0.022222222222222223,83.66666666666667,0)" xlink:href="#z"/><use transform="matrix(0.022222222222222223,0,0,0.022222222222222223,89.84444444444445,0)" xlink:href="#A"/><use transform="matrix(0.022222222222222223,0,0,0.022222222222222223,95.95555555555556,0)" xlink:href="#B"/><use transform="matrix(0.022222222222222223,0,0,0.022222222222222223,106.35555555555555,0)" xlink:href="#O"/></g><path fill="#333" d="M388 13C195 13 58-128 58-366c0-237 142-381 336-381 102 0 169 46 211 91l-50 60c-37-39-84-70-159-70-147 0-243 114-243 297 0 185 87 301 244 301 53 0 104-16 133-43v-192H375v-77h240v308c-47 49-128 85-227 85" id="Y"/><path fill="#333" d="M241 5C155 32 92-8 92-108v-688h91v694c3 37 15 43 45 37" id="Z"/><path fill="#333" d="M303 13C170 13 51-91 51-271c0-181 119-286 252-286s252 105 252 286C555-91 436 13 303 13zm0-76c94 0 158-83 158-208s-64-210-158-210-157 85-157 210S209-63 303-63" id="aa"/><path fill="#333" d="M567-281C567-18 341 97 176-56h-3l-8 56H92v-796h91c0 106 2 214-3 316 49-43 110-77 170-77 141 0 217 110 217 276zM183-120C317-1 471-73 472-279c0-120-40-201-143-201-46 0-94 26-146 75v285" id="ab"/><path fill="#333" d="M217 13C126 13 58-43 58-141c0-118 103-177 334-203 0-70-23-137-112-137-63 0-120 29-163 58l-36-63c50-32 127-71 214-71 132 0 188 89 188 223V0h-75l-8-65h-3c-52 43-113 78-180 78zm26-73c53 0 96-25 149-72v-152c-183 22-245 67-245 137 0 62 42 87 96 87" id="ac"/><g id="h"><use transform="matrix(0.022222222222222223,0,0,0.022222222222222223,0,0)" xlink:href="#Y"/><use transform="matrix(0.022222222222222223,0,0,0.022222222222222223,15.311111111111112,0)" xlink:href="#Z"/><use transform="matrix(0.022222222222222223,0,0,0.022222222222222223,21.644444444444446,0)" xlink:href="#aa"/><use transform="matrix(0.022222222222222223,0,0,0.022222222222222223,35.111111111111114,0)" xlink:href="#ab"/><use transform="matrix(0.022222222222222223,0,0,0.022222222222222223,48.84444444444445,0)" xlink:href="#ac"/><use transform="matrix(0.022222222222222223,0,0,0.022222222222222223,61.37777777777778,0)" xlink:href="#Z"/></g><path fill="#fff" d="M306 13C162 13 51-91 51-271c0-181 123-286 262-286 71 0 120 30 159 64l-47 61c-32-29-65-49-109-49-98 0-170 85-170 210S214-63 314-63c50 0 94-23 128-54l39 61c-48 44-110 69-175 69" id="ad"/><path fill="#fff" d="M92 0v-796h90c1 179-3 364 2 540l233-287h101L336-325 542 0h-99L284-262 182-143V0H92" id="ae"/><g id="i"><use transform="matrix(0.022222222222222223,0,0,0.022222222222222223,0,0)" xlink:href="#L"/><use transform="matrix(0.022222222222222223,0,0,0.022222222222222223,14.044444444444444,0)" xlink:href="#M"/><use transform="matrix(0.022222222222222223,0,0,0.022222222222222223,26.577777777777772,0)" xlink:href="#ad"/><use transform="matrix(0.022222222222222223,0,0,0.022222222222222223,37.888888888888886,0)" xlink:href="#ae"/><use transform="matrix(0.022222222222222223,0,0,0.022222222222222223,50.155555555555544,0)" xlink:href="#M"/><use transform="matrix(0.022222222222222223,0,0,0.022222222222222223,62.68888888888888,0)" xlink:href="#C"/><use transform="matrix(0.022222222222222223,0,0,0.022222222222222223,75.19999999999999,0)" xlink:href="#H"/></g><g id="j"><use transform="matrix(0.022222222222222223,0,0,0.022222222222222223,0,0)" xlink:href="#T"/><use transform="matrix(0.022222222222222223,0,0,0.022222222222222223,18.044444444444444,0)" xlink:href="#M"/><use transform="matrix(0.022222222222222223,0,0,0.022222222222222223,30.577777777777772,0)" xlink:href="#y"/></g><path fill="#fff" d="M193-658v272h123c115 0 178-46 178-141 0-97-63-131-178-131H193zM608 0H503L325-311H193V0h-93v-733h230c149 0 256 53 256 206 0 114-66 182-166 206" id="af"/><g id="k"><use transform="matrix(0.022222222222222223,0,0,0.022222222222222223,0,0)" xlink:href="#af"/><use transform="matrix(0.022222222222222223,0,0,0.022222222222222223,14.111111111111112,0)" xlink:href="#H"/><use transform="matrix(0.022222222222222223,0,0,0.022222222222222223,26.422222222222224,0)" xlink:href="#B"/><use transform="matrix(0.022222222222222223,0,0,0.022222222222222223,36.82222222222222,0)" xlink:href="#y"/><use transform="matrix(0.022222222222222223,0,0,0.022222222222222223,50.6,0)" xlink:href="#D"/><use transform="matrix(0.022222222222222223,0,0,0.022222222222222223,64.06666666666666,0)" xlink:href="#S"/><use transform="matrix(0.022222222222222223,0,0,0.022222222222222223,77.64444444444445,0)" xlink:href="#B"/><use transform="matrix(0.022222222222222223,0,0,0.022222222222222223,88.04444444444445,0)" xlink:href="#H"/></g><g id="l"><use transform="matrix(0.022222222222222223,0,0,0.022222222222222223,0,0)" xlink:href="#T"/><use transform="matrix(0.022222222222222223,0,0,0.022222222222222223,18.044444444444444,0)" xlink:href="#M"/><use transform="matrix(0.022222222222222223,0,0,0.022222222222222223,30.577777777777772,0)" xlink:href="#y"/></g><g id="m"><use transform="matrix(0.022222222222222223,0,0,0.022222222222222223,0,0)" xlink:href="#P"/><use transform="matrix(0.022222222222222223,0,0,0.022222222222222223,14.177777777777779,0)" xlink:href="#M"/><use transform="matrix(0.022222222222222223,0,0,0.022222222222222223,26.711111111111112,0)" xlink:href="#V"/><use transform="matrix(0.022222222222222223,0,0,0.022222222222222223,33.044444444444444,0)" xlink:href="#V"/><use transform="matrix(0.022222222222222223,0,0,0.022222222222222223,39.37777777777778,0)" xlink:href="#W"/><use transform="matrix(0.022222222222222223,0,0,0.022222222222222223,53.111111111111114,0)" xlink:href="#M"/><use transform="matrix(0.022222222222222223,0,0,0.022222222222222223,65.64444444444445,0)" xlink:href="#ad"/><use transform="matrix(0.022222222222222223,0,0,0.022222222222222223,76.95555555555556,0)" xlink:href="#ae"/></g><g id="n"><use transform="matrix(0.022222222222222223,0,0,0.022222222222222223,0,0)" xlink:href="#K"/><use transform="matrix(0.022222222222222223,0,0,0.022222222222222223,7.511111111111111,0)" xlink:href="#L"/><use transform="matrix(0.022222222222222223,0,0,0.022222222222222223,21.555555555555557,0)" xlink:href="#M"/><use transform="matrix(0.022222222222222223,0,0,0.022222222222222223,34.08888888888889,0)" xlink:href="#C"/><use transform="matrix(0.022222222222222223,0,0,0.022222222222222223,46.6,0)" xlink:href="#H"/><use transform="matrix(0.022222222222222223,0,0,0.022222222222222223,58.91111111111111,0)" xlink:href="#N"/><use transform="matrix(0.022222222222222223,0,0,0.022222222222222223,66.42222222222222,0)" xlink:href="#F"/><use transform="matrix(0.022222222222222223,0,0,0.022222222222222223,79.19999999999999,0)" xlink:href="#G"/><use transform="matrix(0.022222222222222223,0,0,0.022222222222222223,85.3111111111111,0)" xlink:href="#H"/><use transform="matrix(0.022222222222222223,0,0,0.022222222222222223,97.62222222222222,0)" xlink:href="#I"/><use transform="matrix(0.022222222222222223,0,0,0.022222222222222223,115.44444444444444,0)" xlink:href="#z"/><use transform="matrix(0.022222222222222223,0,0,0.022222222222222223,121.62222222222222,0)" xlink:href="#A"/><use transform="matrix(0.022222222222222223,0,0,0.022222222222222223,127.73333333333333,0)" xlink:href="#B"/></g><g id="o"><use transform="matrix(0.022222222222222223,0,0,0.022222222222222223,0,0)" xlink:href="#ad"/><use transform="matrix(0.022222222222222223,0,0,0.022222222222222223,11.311111111111112,0)" xlink:href="#D"/><use transform="matrix(0.022222222222222223,0,0,0.022222222222222223,24.77777777777778,0)" xlink:href="#S"/><use transform="matrix(0.022222222222222223,0,0,0.022222222222222223,38.355555555555554,0)" xlink:href="#B"/><use transform="matrix(0.022222222222222223,0,0,0.022222222222222223,48.75555555555556,0)" xlink:href="#E"/><use transform="matrix(0.022222222222222223,0,0,0.022222222222222223,57.13333333333333,0)" xlink:href="#R"/><use transform="matrix(0.022222222222222223,0,0,0.022222222222222223,65.75555555555556,0)" xlink:href="#Q"/><use transform="matrix(0.022222222222222223,0,0,0.022222222222222223,79.24444444444445,0)" xlink:href="#ad"/><use transform="matrix(0.022222222222222223,0,0,0.022222222222222223,90.55555555555557,0)" xlink:href="#E"/><use transform="matrix(0.022222222222222223,0,0,0.022222222222222223,98.93333333333335,0)" xlink:href="#D"/><use transform="matrix(0.022222222222222223,0,0,0.022222222222222223,112.40000000000002,0)" xlink:href="#R"/></g><path fill="#fff" d="M35 0v-49l286-420H66v-74h370v49L150-74h296V0H35" id="ag"/><g id="p"><use transform="matrix(0.022222222222222223,0,0,0.022222222222222223,0,0)" xlink:href="#G"/><use transform="matrix(0.022222222222222223,0,0,0.022222222222222223,6.111111111111112,0)" xlink:href="#S"/><use transform="matrix(0.022222222222222223,0,0,0.022222222222222223,19.68888888888889,0)" xlink:href="#G"/><use transform="matrix(0.022222222222222223,0,0,0.022222222222222223,25.8,0)" xlink:href="#E"/><use transform="matrix(0.022222222222222223,0,0,0.022222222222222223,34.17777777777778,0)" xlink:href="#G"/><use transform="matrix(0.022222222222222223,0,0,0.022222222222222223,40.28888888888889,0)" xlink:href="#M"/><use transform="matrix(0.022222222222222223,0,0,0.022222222222222223,52.82222222222222,0)" xlink:href="#V"/><use transform="matrix(0.022222222222222223,0,0,0.022222222222222223,59.15555555555556,0)" xlink:href="#G"/><use transform="matrix(0.022222222222222223,0,0,0.022222222222222223,65.26666666666667,0)" xlink:href="#ag"/><use transform="matrix(0.022222222222222223,0,0,0.022222222222222223,75.8,0)" xlink:href="#H"/></g><g id="q"><use transform="matrix(0.022222222222222223,0,0,0.022222222222222223,0,0)" xlink:href="#K"/><use transform="matrix(0.022222222222222223,0,0,0.022222222222222223,7.511111111111111,0)" xlink:href="#L"/><use transform="matrix(0.022222222222222223,0,0,0.022222222222222223,21.555555555555557,0)" xlink:href="#M"/><use transform="matrix(0.022222222222222223,0,0,0.022222222222222223,34.08888888888889,0)" xlink:href="#C"/><use transform="matrix(0.022222222222222223,0,0,0.022222222222222223,46.6,0)" xlink:href="#H"/><use transform="matrix(0.022222222222222223,0,0,0.022222222222222223,58.91111111111111,0)" xlink:href="#N"/><use transform="matrix(0.022222222222222223,0,0,0.022222222222222223,66.42222222222222,0)" xlink:href="#F"/><use transform="matrix(0.022222222222222223,0,0,0.022222222222222223,79.19999999999999,0)" xlink:href="#G"/><use transform="matrix(0.022222222222222223,0,0,0.022222222222222223,85.3111111111111,0)" xlink:href="#H"/><use transform="matrix(0.022222222222222223,0,0,0.022222222222222223,97.62222222222222,0)" xlink:href="#I"/><use transform="matrix(0.022222222222222223,0,0,0.022222222222222223,115.44444444444444,0)" xlink:href="#T"/><use transform="matrix(0.022222222222222223,0,0,0.022222222222222223,133.48888888888888,0)" xlink:href="#D"/><use transform="matrix(0.022222222222222223,0,0,0.022222222222222223,146.95555555555555,0)" xlink:href="#U"/><use transform="matrix(0.022222222222222223,0,0,0.022222222222222223,160.73333333333332,0)" xlink:href="#H"/><use transform="matrix(0.022222222222222223,0,0,0.022222222222222223,173.04444444444442,0)" xlink:href="#V"/><use transform="matrix(0.022222222222222223,0,0,0.022222222222222223,179.37777777777777,0)" xlink:href="#z"/><use transform="matrix(0.022222222222222223,0,0,0.022222222222222223,185.55555555555557,0)" xlink:href="#A"/><use transform="matrix(0.022222222222222223,0,0,0.022222222222222223,191.66666666666669,0)" xlink:href="#B"/></g><g id="r"><use transform="matrix(0.022222222222222223,0,0,0.022222222222222223,0,0)" xlink:href="#W"/><use transform="matrix(0.022222222222222223,0,0,0.022222222222222223,13.733333333333334,0)" xlink:href="#G"/><use transform="matrix(0.022222222222222223,0,0,0.022222222222222223,19.844444444444445,0)" xlink:href="#S"/><use transform="matrix(0.022222222222222223,0,0,0.022222222222222223,33.422222222222224,0)" xlink:href="#U"/></g><g id="s"><use transform="matrix(0.022222222222222223,0,0,0.022222222222222223,0,0)" xlink:href="#T"/><use transform="matrix(0.022222222222222223,0,0,0.022222222222222223,18.044444444444444,0)" xlink:href="#D"/><use transform="matrix(0.022222222222222223,0,0,0.022222222222222223,31.511111111111113,0)" xlink:href="#U"/><use transform="matrix(0.022222222222222223,0,0,0.022222222222222223,45.28888888888889,0)" xlink:href="#H"/><use transform="matrix(0.022222222222222223,0,0,0.022222222222222223,57.6,0)" xlink:href="#V"/><use transform="matrix(0.022222222222222223,0,0,0.022222222222222223,63.93333333333334,0)" xlink:href="#B"/></g></defs></g></svg>