<svg xmlns="http://www.w3.org/2000/svg" xmlns:xlink="http://www.w3.org/1999/xlink" xmlns:lucid="lucid" width="2540" height="1311"><g transform="translate(200 -200)" lucid:page-tab-id="0_0"><path d="M580 220c22.1 0 40 17.9 40 40s-17.9 40-40 40H460c-22.1 0-40-17.9-40-40s17.9-40 40-40z" stroke="#5e5e5e" stroke-width="3" fill="#fff"/><use xlink:href="#a" transform="matrix(1,0,0,1,425,225) translate(71.32222222222222 43.27777777777777)"/><path d="M360 506c0-3.3 2.7-6 6-6h308c3.3 0 6 2.7 6 6v148c0 3.3-2.7 6-6 6H366c-3.3 0-6-2.7-6-6z" stroke="#000" stroke-width="3" fill="#0c7cba"/><use xlink:href="#b" transform="matrix(1,0,0,1,372,512) translate(116.13333333333333 59.77777777777777)"/><use xlink:href="#c" transform="matrix(1,0,0,1,372,512) translate(58.855555555555554 92.66666666666666)"/><path d="M900 506c0-3.3 2.7-6 6-6h308c3.3 0 6 2.7 6 6v148c0 3.3-2.7 6-6 6H906c-3.3 0-6-2.7-6-6z" stroke="#000" stroke-width="3" fill="#0c7cba"/><use xlink:href="#d" transform="matrix(1,0,0,1,912,512) translate(33.07777777777777 59.77777777777777)"/><use xlink:href="#e" transform="matrix(1,0,0,1,912,512) translate(110.86666666666667 92.66666666666666)"/><path d="M360 846c0-3.3 2.7-6 6-6h276c3.3 0 6 2.7 6 6v147c-48.1-25.55-78.05-25.55-96.2-25.55-28.8 0-67.1 25.55-95.9 25.55-17.85 0-48.1 0-95.9-25.55z" stroke="#5e5e5e" stroke-width="3" fill="#0c7cba"/><path d="M376 859.5c0-3.3 2.7-6 6-6h276c3.3 0 6 2.7 6 6v147c-48.1-25.55-78.05-25.55-96.2-25.55-28.8 0-67.1 25.55-95.9 25.55-17.85 0-48.1 0-95.9-25.55z" stroke="#5e5e5e" stroke-width="3" fill="#0c7cba"/><path d="M392 873c0-3.3 2.7-6 6-6h276c3.3 0 6 2.7 6 6v147c-48.1-25.55-78.05-25.55-96.2-25.55-28.8 0-67.1 25.55-95.9 25.55-17.85 0-48.1 0-95.9-25.55z" stroke="#5e5e5e" stroke-width="3" fill="#0c7cba"/><use xlink:href="#f" transform="matrix(1,0,0,1,397,872) translate(80.65555555555555 51.59027777777777)"/><use xlink:href="#g" transform="matrix(1,0,0,1,397,872) translate(68.56666666666666 84.47916666666666)"/><path d="M-132 966c-26.5 0-48-16.12-48-36 0-15.9 13-29.32 33.17-34.24C-148 849-68 840-36 858c16-27 96-18 96 9 48-9 96 27 64 72 32 36 0 81-64 63-16 23.4-80 23.4-96 0-32 18-96 9-96-36z" stroke="#5e5e5e" stroke-width="3" fill="#c7e8ac"/><use xlink:href="#h" transform="matrix(1,0,0,1,-175,844.9999999999998) translate(116.64944444444446 95.24652777777777)"/><path d="M2000 1026c0-3.3 2.7-6 6-6h276c3.3 0 6 2.7 6 6v147c-48.1-25.55-78.05-25.55-96.2-25.55-28.8 0-67.1 25.55-95.9 25.55-17.85 0-48.1 0-95.9-25.55z" stroke="#5e5e5e" stroke-width="3" fill="#0c7cba"/><path d="M2016 1039.5c0-3.3 2.7-6 6-6h276c3.3 0 6 2.7 6 6v147c-48.1-25.55-78.05-25.55-96.2-25.55-28.8 0-67.1 25.55-95.9 25.55-17.85 0-48.1 0-95.9-25.55z" stroke="#5e5e5e" stroke-width="3" fill="#0c7cba"/><path d="M2032 1053c0-3.3 2.7-6 6-6h276c3.3 0 6 2.7 6 6v147c-48.1-25.55-78.05-25.55-96.2-25.55-28.8 0-67.1 25.55-95.9 25.55-17.85 0-48.1 0-95.9-25.55z" stroke="#5e5e5e" stroke-width="3" fill="#0c7cba"/><use xlink:href="#i" transform="matrix(1,0,0,1,2037,1052) translate(56.34444444444445 51.59027777777777)"/><use xlink:href="#j" transform="matrix(1,0,0,1,2037,1052) translate(150.3 51.59027777777777)"/><use xlink:href="#k" transform="matrix(1,0,0,1,2037,1052) translate(49.92222222222222 84.47916666666666)"/><use xlink:href="#l" transform="matrix(1,0,0,1,2037,1052) translate(156.72222222222223 84.47916666666666)"/><path d="M60 1206c0-3.3 2.7-6 6-6h276c3.3 0 6 2.7 6 6v147c-48.1-25.55-78.05-25.55-96.2-25.55-28.8 0-67.1 25.55-95.9 25.55-17.85 0-48.1 0-95.9-25.55z" stroke="#5e5e5e" stroke-width="3" fill="#0c7cba"/><path d="M76 1219.5c0-3.3 2.7-6 6-6h276c3.3 0 6 2.7 6 6v147c-48.1-25.55-78.05-25.55-96.2-25.55-28.8 0-67.1 25.55-95.9 25.55-17.85 0-48.1 0-95.9-25.55z" stroke="#5e5e5e" stroke-width="3" fill="#0c7cba"/><path d="M92 1233c0-3.3 2.7-6 6-6h276c3.3 0 6 2.7 6 6v147c-48.1-25.55-78.05-25.55-96.2-25.55-28.8 0-67.1 25.55-95.9 25.55-17.85 0-48.1 0-95.9-25.55z" stroke="#5e5e5e" stroke-width="3" fill="#0c7cba"/><use xlink:href="#m" transform="matrix(1,0,0,1,97,1232) translate(80.88888888888889 70.02777777777777)"/><path d="M357.5 930.14h-208" stroke="#5e5e5e" stroke-width="2" fill="none"/><path d="M358.5 931.14h-1.03v-2h1.03" fill="#5e5e5e"/><path d="M134.23 930.14l14.27-4.63v9.28z" stroke="#5e5e5e" stroke-width="2" fill="#5e5e5e"/><path d="M900 856.14c0-3.3 2.7-6 6-6h308c3.3 0 6 2.7 6 6v148c0 3.32-2.7 6-6 6H906c-3.3 0-6-2.68-6-6z" stroke="#000" stroke-width="3" fill="#0c7cba"/><use xlink:href="#n" transform="matrix(1,0,0,1,912,862.1447174413212) translate(78.93333333333334 59.77777777777777)"/><use xlink:href="#o" transform="matrix(1,0,0,1,912,862.1447174413212) translate(87.48888888888888 92.66666666666666)"/><path d="M781.1 931.14h-98.6v-2h98.6m98.9 2h-81.1v-2H880" fill="#5e5e5e"/><path d="M682.53 931.14h-1.03v-2h1.03M895.26 930.14L881 934.78v-9.27z" fill="#5e5e5e"/><path d="M898.5 930.14l-18.5 6.02v-12.03m2 9.27l10.03-3.26L882 926.9" fill="#5e5e5e"/><use xlink:href="#p" transform="matrix(1,0,0,1,781.1111111111111,916.9891618857656) translate(0 20.62222222222222)"/><path d="M900 1206c0-3.3 2.7-6 6-6h308c3.3 0 6 2.7 6 6v148c0 3.3-2.7 6-6 6H906c-3.3 0-6-2.7-6-6z" stroke="#000" stroke-width="3" fill="#0c7cba"/><use xlink:href="#n" transform="matrix(1,0,0,1,912,1212) translate(78.93333333333334 59.77777777777777)"/><use xlink:href="#q" transform="matrix(1,0,0,1,912,1212) translate(103.94444444444444 92.66666666666666)"/><path d="M1440 1206c0-3.3 2.7-6 6-6h308c3.3 0 6 2.7 6 6v148c0 3.3-2.7 6-6 6h-308c-3.3 0-6-2.7-6-6z" stroke="#000" stroke-width="3" fill="#0c7cba"/><use xlink:href="#r" transform="matrix(1,0,0,1,1452,1212) translate(46.96666666666667 59.77777777777777)"/><use xlink:href="#o" transform="matrix(1,0,0,1,1452,1212) translate(87.48888888888888 92.66666666666666)"/><path d="M1061 1180h-2v-61.77h2m0-26.3h-2v-79.3h2" fill="#5e5e5e"/><path d="M1061 1012.67h-2v-1.03h2M1060 1195.26l-4.64-14.26h9.28z" fill="#5e5e5e"/><path d="M1060 1198.5l-6-18.5h12m-9.26 2l3.26 10.03 3.26-10.03" fill="#5e5e5e"/><use xlink:href="#s" transform="matrix(1,0,0,1,1051.111111111111,1091.916803165105) translate(0 20.62222222222222)"/><path d="M1321.1 1281h-98.6v-2h98.6m98.9 2h-81.1v-2h81.1" fill="#5e5e5e"/><path d="M1222.53 1281h-1.03v-2h1.03M1435.26 1280l-14.26 4.64v-9.28z" fill="#5e5e5e"/><path d="M1438.5 1280l-18.5 6v-12m2 9.26l10.03-3.26-10.03-3.26" fill="#5e5e5e"/><use xlink:href="#t" transform="matrix(1,0,0,1,1321.111111111111,1266.8444444444444) translate(0 20.62222222222222)"/><path d="M1440 856c0-3.3 2.7-6 6-6h308c3.3 0 6 2.7 6 6v148c0 3.3-2.7 6-6 6h-308c-3.3 0-6-2.7-6-6z" stroke="#000" stroke-width="3" fill="#0c7cba"/><use xlink:href="#r" transform="matrix(1,0,0,1,1452,862) translate(46.96666666666667 59.77777777777777)"/><use xlink:href="#u" transform="matrix(1,0,0,1,1452,862) translate(124.4 92.66666666666666)"/><path d="M1601 1197.5h-2v-79.34h2m0-26.32h-2V1030h2" fill="#5e5e5e"/><path d="M1601 1198.5h-2v-1.03h2M1604.64 1029h-9.28l4.64-14.26z" fill="#5e5e5e"/><path d="M1606 1030h-12l6-18.5m-3.26 16.5h6.52l-3.26-10.03" fill="#5e5e5e"/><use xlink:href="#v" transform="matrix(1,0,0,1,1591.111111111111,1091.8444444444444) translate(0 20.62222222222222)"/><path d="M2000 666c0-3.3 2.7-6 6-6h276c3.3 0 6 2.7 6 6v147c-48.1-25.55-78.05-25.55-96.2-25.55-28.8 0-67.1 25.55-95.9 25.55-17.85 0-48.1 0-95.9-25.55z" stroke="#5e5e5e" stroke-width="3" fill="#0c7cba"/><path d="M2016 679.5c0-3.3 2.7-6 6-6h276c3.3 0 6 2.7 6 6v147c-48.1-25.55-78.05-25.55-96.2-25.55-28.8 0-67.1 25.55-95.9 25.55-17.85 0-48.1 0-95.9-25.55z" stroke="#5e5e5e" stroke-width="3" fill="#0c7cba"/><path d="M2032 693c0-3.3 2.7-6 6-6h276c3.3 0 6 2.7 6 6v147c-48.1-25.55-78.05-25.55-96.2-25.55-28.8 0-67.1 25.55-95.9 25.55-17.85 0-48.1 0-95.9-25.55z" stroke="#5e5e5e" stroke-width="3" fill="#0c7cba"/><use xlink:href="#w" transform="matrix(1,0,0,1,2037,692) translate(88.33333333333333 70.02777777777777)"/><path d="M1780 930h94c3.3 0 6-2.7 6-6V745.86c0-3.32 2.7-6 6-6h94" stroke="#5e5e5e" stroke-width="2" fill="none"/><path d="M1764.74 930l14.26-4.64v9.28zM1995.26 739.86L1981 744.5v-9.28z" stroke="#5e5e5e" stroke-width="2" fill="#5e5e5e"/><path d="M1597.55 259.92l2.53 2.53.92 3.42V847.5h-2V266.13l-.7-2.64-1.8-1.8-2.63-.7H640v-2h954.13" fill="#5e5e5e"/><path d="M1601 848.5h-2v-1.03h2M639 264.64L624.74 260l14.26-4.64z" fill="#5e5e5e"/><path d="M640 266l-18.5-6 18.5-6m-12.03 6l10.03 3.26v-6.52M521 480h-2v-66.84h2m0-26.32h-2V302.5h2" fill="#5e5e5e"/><path d="M521 302.53h-2v-1.03h2M520 495.26L515.36 481h9.28z" fill="#5e5e5e"/><path d="M520 498.5l-6-18.5h12m-9.26 2l3.26 10.03 3.26-10.03" fill="#5e5e5e"/><use xlink:href="#x" transform="matrix(1,0,0,1,511.1111111111111,386.84444444444443) translate(0 20.62222222222222)"/><path d="M354.77 1101H226.13l-2.64.7-1.8 1.8-.7 2.63V1180h-2v-74.13l.92-3.42 2.53-2.53 3.42-.92h128.9m166.23-4.87l-.92 3.42-2.53 2.53-3.42.92H372.55v-2h141.32l2.64-.7 1.8-1.8.7-2.63v-78.7h2" fill="#5e5e5e"/><path d="M521 1015.2h-2v-.68l2-.7M220 1195.26l-4.64-14.26h9.28z" fill="#5e5e5e"/><path d="M220 1198.5l-6-18.5h12m-9.26 2l3.26 10.03 3.26-10.03" fill="#5e5e5e"/><use xlink:href="#y" transform="matrix(1,0,0,1,354.774775467568,1086.8444444444444) translate(0 20.62222222222222)"/><path d="M2161 1494.13l-.92 3.42-2.53 2.53-3.42.92H525.87l-3.42-.92-2.53-2.53-.92-3.42v-192.16h2v191.9l.7 2.64 1.8 1.8 2.63.7h1627.74l2.64-.7 1.8-1.8.7-2.63v-281.2h2m-1640 62.98h-2v-260.48h2" fill="#5e5e5e"/><path d="M521 1015.2h-2v-.68l2-.7M2164.64 1211.67h-9.28l4.64-14.26z" fill="#5e5e5e"/><path d="M2166 1212.67h-12l6-18.5m-3.26 16.5h6.52l-3.26-10.03" fill="#5e5e5e"/><use xlink:href="#z" transform="matrix(1,0,0,1,511.1111111111111,1275.6541235465622) translate(0 20.62222222222222)"/><path d="M781.1 581h-98.6v-2h98.6m98.9 2h-81.1v-2H880" fill="#5e5e5e"/><path d="M682.53 581h-1.03v-2h1.03M895.26 580L881 584.64v-9.28z" fill="#5e5e5e"/><path d="M898.5 580l-18.5 6v-12m2 9.26l10.03-3.26-10.03-3.26" fill="#5e5e5e"/><g><use xlink:href="#A" transform="matrix(1,0,0,1,781.1111111111111,566.8444444444444) translate(0 20.62222222222222)"/></g><path d="M521 820h-2v-66.17h2m0-26.3h-2V662.5h2" fill="#5e5e5e"/><path d="M521 662.53h-2v-1.03h2M520 835.26L515.36 821h9.28z" fill="#5e5e5e"/><path d="M520 838.5l-6-18.5h12m-9.26 2l3.26 10.03 3.26-10.03" fill="#5e5e5e"/><g><use xlink:href="#B" transform="matrix(1,0,0,1,511.1111111111111,727.5197243591205) translate(0 20.62222222222222)"/></g><path d="M1980 1110.14h-94c-3.3 0-6-2.68-6-6V936c0-3.3-2.7-6-6-6h-94" stroke="#5e5e5e" stroke-width="2" fill="none"/><path d="M1995.26 1110.14l-14.26 4.64v-9.27zM1764.74 930l14.26-4.64v9.28z" stroke="#5e5e5e" stroke-width="2" fill="#5e5e5e"/><defs><path fill="#333" d="M360 13C211 13 97-67 97-303v-430h93v433c0 177 75 232 170 232 98 0 175-55 175-232v-433h89v430C624-67 510 13 360 13" id="C"/><path fill="#333" d="M234 13C157 13 83-19 31-62l45-60c47 38 96 64 161 64 72 0 107-38 107-85 0-55-64-80-124-103-76-28-162-65-162-157 0-86 69-154 187-154 67 0 126 28 169 61l-44 59c-38-28-76-48-125-48-68 0-99 36-99 78 0 52 59 71 120 94 79 30 166 62 166 165 0 88-70 161-198 161" id="D"/><path fill="#333" d="M311 13C167 13 51-92 51-271c0-176 119-286 245-286 154-3 234 132 212 307H142c6 116 77 190 180 190 53 0 96-16 136-43l33 60c-48 31-106 56-180 56zM141-315h291c0-110-50-169-135-169-77 0-145 62-156 169" id="E"/><path fill="#333" d="M92 0v-543h75l8 99h3c50-86 117-137 212-101l-17 80c-18-7-31-9-53-9-45 0-101 32-137 125V0H92" id="F"/><g id="a"><use transform="matrix(0.022222222222222223,0,0,0.022222222222222223,0,0)" xlink:href="#C"/><use transform="matrix(0.022222222222222223,0,0,0.022222222222222223,16.022222222222222,0)" xlink:href="#D"/><use transform="matrix(0.022222222222222223,0,0,0.022222222222222223,26.422222222222224,0)" xlink:href="#E"/><use transform="matrix(0.022222222222222223,0,0,0.022222222222222223,38.733333333333334,0)" xlink:href="#F"/></g><path fill="#fff" d="M191-298h222c-37-120-75-237-109-360h-4c-33 124-71 241-109 360zM506 0l-70-224H168L97 0H3l249-733h103L604 0h-98" id="G"/><path fill="#fff" d="M92 229v-772h75l8 62h3c49-40 110-76 173-76 140 0 216 110 216 277C567-22 349 94 181-50c3 91 2 185 2 279H92zm91-349C317-1 471-73 472-279c0-120-40-201-143-201-46 0-93 26-146 75v285" id="H"/><path fill="#fff" d="M139 13c-36 0-66-28-66-69s30-71 66-71 66 30 66 71-30 69-66 69" id="I"/><path fill="#fff" d="M36 243c-33 0-61-7-80-14l18-70c14 5 32 10 51 10 55 0 68-41 68-107v-605h91V62c0 111-41 181-148 181zm103-898c-36 0-63-25-63-59 0-37 27-59 63-59 35 0 63 22 63 59 0 34-28 59-63 59" id="J"/><path fill="#fff" d="M234 13C157 13 83-19 31-62l45-60c47 38 96 64 161 64 72 0 107-38 107-85 0-55-64-80-124-103-76-28-162-65-162-157 0-86 69-154 187-154 67 0 126 28 169 61l-44 59c-38-28-76-48-125-48-68 0-99 36-99 78 0 52 59 71 120 94 79 30 166 62 166 165 0 88-70 161-198 161" id="K"/><g id="b"><use transform="matrix(0.022222222222222223,0,0,0.022222222222222223,0,0)" xlink:href="#G"/><use transform="matrix(0.022222222222222223,0,0,0.022222222222222223,13.488888888888889,0)" xlink:href="#H"/><use transform="matrix(0.022222222222222223,0,0,0.022222222222222223,27.26666666666667,0)" xlink:href="#H"/><use transform="matrix(0.022222222222222223,0,0,0.022222222222222223,41.044444444444444,0)" xlink:href="#I"/><use transform="matrix(0.022222222222222223,0,0,0.022222222222222223,47.22222222222222,0)" xlink:href="#J"/><use transform="matrix(0.022222222222222223,0,0,0.022222222222222223,53.333333333333336,0)" xlink:href="#K"/></g><path fill="#fff" d="M275 250c-133 0-225-52-225-146 0-46 30-90 81-123v-4c-29-17-50-46-50-89 0-45 33-81 61-101v-4c-36-29-71-81-71-146-2-145 144-228 280-180h189v70H429c26 25 44 65 44 112 4 144-147 228-279 170-52 42-57 131 60 124h106c126 0 189 40 189 129 0 101-106 188-274 188zm0-484c62 0 115-50 115-129s-51-127-115-127-116 47-116 127c0 79 53 129 116 129zm13 422c104 0 173-55 173-112 0-103-183-49-275-76-106 75-57 194 102 188" id="L"/><path fill="#fff" d="M303 13C170 13 51-91 51-271c0-181 119-286 252-286s252 105 252 286C555-91 436 13 303 13zm0-76c94 0 158-83 158-208s-64-210-158-210-157 85-157 210S209-63 303-63" id="M"/><path fill="#fff" d="M263 13c-116 0-155-72-155-181v-301H27v-69l85-5 11-152h76v152h147v74H199v303c0 67 21 105 84 105 19 0 44-7 62-14l18 68c-31 10-67 20-100 20" id="N"/><path fill="#fff" d="M235 0L1-733h97c64 212 127 426 190 639h4c63-213 125-426 189-639h94L342 0H235" id="O"/><path fill="#fff" d="M92 0v-543h91V0H92zm46-655c-36 0-63-25-63-59 0-37 27-59 63-59s63 22 63 59c0 34-27 59-63 59" id="P"/><path fill="#fff" d="M311 13C167 13 51-92 51-271c0-176 119-286 245-286 154-3 234 132 212 307H142c6 116 77 190 180 190 53 0 96-16 136-43l33 60c-48 31-106 56-180 56zM141-315h291c0-110-50-169-135-169-77 0-145 62-156 169" id="Q"/><path fill="#fff" d="M178 0L27-543h93c39 154 83 304 113 466h5c36-159 81-311 121-466h89c41 154 85 308 123 466h4c34-159 75-312 114-466h86L629 0H519c-39-150-82-293-116-449h-5C365-294 323-150 285 0H178" id="R"/><path fill="#fff" d="M239 197C147 47 92-114 92-311c0-196 55-358 147-507l57 26c-171 284-171 678 0 962" id="S"/><path fill="#fff" d="M304 170c-119 6-181-11-180-149 0-81 10-140 10-215 0-44-20-87-96-88v-57c76-1 96-44 96-87 0-76-10-135-10-216-1-138 61-155 180-149v51c-79-6-105 18-105 103 0 105 45 306-61 324v4c105 20 61 218 61 325 0 85 26 108 105 102v52" id="T"/><path fill="#fff" d="M100 0v-733h209c165 0 275 55 275 215 0 155-110 227-270 227H193V0h-93zm93-366h109c129 0 190-47 190-152 0-106-65-140-194-140H193v292" id="U"/><path fill="#fff" d="M217 13C126 13 58-43 58-141c0-118 103-177 334-203 0-70-23-137-112-137-63 0-120 29-163 58l-36-63c50-32 127-71 214-71 132 0 188 89 188 223V0h-75l-8-65h-3c-52 43-113 78-180 78zm26-73c53 0 96-25 149-72v-152c-183 22-245 67-245 137 0 62 42 87 96 87" id="V"/><path fill="#fff" d="M34 170v-52c79 6 105-17 105-102 0-107-42-304 61-325v-4c-104-18-61-220-61-324 0-85-25-109-105-103v-51c119-6 181 11 180 149 0 81-9 140-9 216 0 43 19 86 95 87v57c-76 1-95 44-95 88 0 75 9 134 9 215 1 138-61 155-180 149" id="W"/><path fill="#fff" d="M99 197l-56-27c171-284 171-678 0-962l56-26c93 149 148 311 148 507 0 197-55 358-148 508" id="X"/><g id="c"><use transform="matrix(0.022222222222222223,0,0,0.022222222222222223,0,0)" xlink:href="#L"/><use transform="matrix(0.022222222222222223,0,0,0.022222222222222223,12.511111111111111,0)" xlink:href="#M"/><use transform="matrix(0.022222222222222223,0,0,0.022222222222222223,25.977777777777778,0)" xlink:href="#N"/><use transform="matrix(0.022222222222222223,0,0,0.022222222222222223,34.355555555555554,0)" xlink:href="#M"/><use transform="matrix(0.022222222222222223,0,0,0.022222222222222223,47.82222222222222,0)" xlink:href="#O"/><use transform="matrix(0.022222222222222223,0,0,0.022222222222222223,60.6,0)" xlink:href="#P"/><use transform="matrix(0.022222222222222223,0,0,0.022222222222222223,66.71111111111111,0)" xlink:href="#Q"/><use transform="matrix(0.022222222222222223,0,0,0.022222222222222223,79.02222222222223,0)" xlink:href="#R"/><use transform="matrix(0.022222222222222223,0,0,0.022222222222222223,96.84444444444445,0)" xlink:href="#S"/><use transform="matrix(0.022222222222222223,0,0,0.022222222222222223,104.35555555555555,0)" xlink:href="#T"/><use transform="matrix(0.022222222222222223,0,0,0.022222222222222223,111.86666666666665,0)" xlink:href="#U"/><use transform="matrix(0.022222222222222223,0,0,0.022222222222222223,125.9111111111111,0)" xlink:href="#V"/><use transform="matrix(0.022222222222222223,0,0,0.022222222222222223,138.44444444444443,0)" xlink:href="#L"/><use transform="matrix(0.022222222222222223,0,0,0.022222222222222223,150.95555555555555,0)" xlink:href="#Q"/><use transform="matrix(0.022222222222222223,0,0,0.022222222222222223,163.26666666666665,0)" xlink:href="#W"/><use transform="matrix(0.022222222222222223,0,0,0.022222222222222223,170.77777777777777,0)" xlink:href="#X"/></g><path fill="#fff" d="M377 13C195 13 58-128 58-366c0-237 139-381 325-381 89 0 159 44 201 91l-50 60c-38-41-87-70-150-70-139 0-231 114-231 297 0 185 88 301 228 301 70 0 123-31 170-82l51 58C544-25 472 13 377 13" id="Y"/><path fill="#fff" d="M250 13C136 13 85-61 85-199v-344h91v333c0 101 30 144 102 144 56 0 95-27 147-92v-385h91V0h-76l-7-85h-3c-51 59-105 98-180 98" id="Z"/><path fill="#fff" d="M92 0v-543h75l8 99h3c50-86 117-137 212-101l-17 80c-18-7-31-9-53-9-45 0-101 32-137 125V0H92" id="aa"/><path fill="#fff" d="M92 0v-543h75l8 78h3c52-51 108-92 182-92 114 0 166 74 166 213V0h-91v-332c0-102-31-145-103-145-56 0-94 28-149 83V0H92" id="ab"/><path fill="#fff" d="M100 0v-733h112c65 181 131 360 193 545h5c59-186 126-364 190-545h112V0h-87c2-212-8-425 12-622h-4C570-437 502-256 436-74h-62c-66-182-134-363-197-548h-4c18 198 9 411 11 622h-84" id="ac"/><path fill="#fff" d="M277 13C141 13 53-90 53-271c-5-249 231-368 388-222-8-95-4-201-5-303h91V0h-74c-4-21-4-46-11-64-43 42-100 77-165 77zm20-76c50 0 94-25 139-75v-285c-123-120-291-42-289 151 0 131 54 209 150 209" id="ad"/><path fill="#fff" d="M241 5C155 32 92-8 92-108v-688h91v694c3 37 15 43 45 37" id="ae"/><g id="d"><use transform="matrix(0.022222222222222223,0,0,0.022222222222222223,0,0)" xlink:href="#T"/><use transform="matrix(0.022222222222222223,0,0,0.022222222222222223,7.511111111111111,0)" xlink:href="#Y"/><use transform="matrix(0.022222222222222223,0,0,0.022222222222222223,21.68888888888889,0)" xlink:href="#Z"/><use transform="matrix(0.022222222222222223,0,0,0.022222222222222223,35.17777777777778,0)" xlink:href="#aa"/><use transform="matrix(0.022222222222222223,0,0,0.022222222222222223,43.8,0)" xlink:href="#aa"/><use transform="matrix(0.022222222222222223,0,0,0.022222222222222223,52.42222222222222,0)" xlink:href="#Q"/><use transform="matrix(0.022222222222222223,0,0,0.022222222222222223,64.73333333333333,0)" xlink:href="#ab"/><use transform="matrix(0.022222222222222223,0,0,0.022222222222222223,78.31111111111112,0)" xlink:href="#N"/><use transform="matrix(0.022222222222222223,0,0,0.022222222222222223,86.6888888888889,0)" xlink:href="#W"/><use transform="matrix(0.022222222222222223,0,0,0.022222222222222223,94.2,0)" xlink:href="#O"/><use transform="matrix(0.022222222222222223,0,0,0.022222222222222223,106.97777777777779,0)" xlink:href="#P"/><use transform="matrix(0.022222222222222223,0,0,0.022222222222222223,113.08888888888889,0)" xlink:href="#Q"/><use transform="matrix(0.022222222222222223,0,0,0.022222222222222223,125.40000000000002,0)" xlink:href="#R"/><use transform="matrix(0.022222222222222223,0,0,0.022222222222222223,143.22222222222223,0)" xlink:href="#ac"/><use transform="matrix(0.022222222222222223,0,0,0.022222222222222223,161.26666666666668,0)" xlink:href="#M"/><use transform="matrix(0.022222222222222223,0,0,0.022222222222222223,174.73333333333335,0)" xlink:href="#ad"/><use transform="matrix(0.022222222222222223,0,0,0.022222222222222223,188.51111111111112,0)" xlink:href="#Q"/><use transform="matrix(0.022222222222222223,0,0,0.022222222222222223,200.82222222222222,0)" xlink:href="#ae"/><use transform="matrix(0.022222222222222223,0,0,0.022222222222222223,207.15555555555557,0)" xlink:href="#I"/><use transform="matrix(0.022222222222222223,0,0,0.022222222222222223,213.33333333333334,0)" xlink:href="#J"/><use transform="matrix(0.022222222222222223,0,0,0.022222222222222223,219.44444444444446,0)" xlink:href="#K"/></g><path fill="#fff" d="M567-281C567-18 341 97 176-56h-3l-8 56H92v-796h91c0 106 2 214-3 316 49-43 110-77 170-77 141 0 217 110 217 276zM183-120C317-1 471-73 472-279c0-120-40-201-143-201-46 0-94 26-146 75v285" id="af"/><g id="e"><use transform="matrix(0.022222222222222223,0,0,0.022222222222222223,0,0)" xlink:href="#Z"/><use transform="matrix(0.022222222222222223,0,0,0.022222222222222223,13.488888888888889,0)" xlink:href="#ab"/><use transform="matrix(0.022222222222222223,0,0,0.022222222222222223,27.066666666666666,0)" xlink:href="#af"/><use transform="matrix(0.022222222222222223,0,0,0.022222222222222223,40.8,0)" xlink:href="#P"/><use transform="matrix(0.022222222222222223,0,0,0.022222222222222223,46.91111111111111,0)" xlink:href="#ab"/><use transform="matrix(0.022222222222222223,0,0,0.022222222222222223,60.488888888888894,0)" xlink:href="#ad"/></g><path fill="#fff" d="M436 229c0-99-2-200 5-292-44 43-101 76-164 76C141 13 53-90 53-271c-5-250 233-370 390-220h3l9-52h72v772h-91zM297-63c50 0 94-25 139-75v-285c-123-120-291-42-289 151 0 131 54 209 150 209" id="ag"/><g id="f"><use transform="matrix(0.022222222222222223,0,0,0.022222222222222223,0,0)" xlink:href="#aa"/><use transform="matrix(0.022222222222222223,0,0,0.022222222222222223,8.622222222222222,0)" xlink:href="#Q"/><use transform="matrix(0.022222222222222223,0,0,0.022222222222222223,20.933333333333334,0)" xlink:href="#ag"/><use transform="matrix(0.022222222222222223,0,0,0.022222222222222223,34.71111111111111,0)" xlink:href="#Z"/><use transform="matrix(0.022222222222222223,0,0,0.022222222222222223,48.19999999999999,0)" xlink:href="#Q"/><use transform="matrix(0.022222222222222223,0,0,0.022222222222222223,60.511111111111106,0)" xlink:href="#K"/><use transform="matrix(0.022222222222222223,0,0,0.022222222222222223,70.91111111111111,0)" xlink:href="#N"/><use transform="matrix(0.022222222222222223,0,0,0.022222222222222223,79.28888888888889,0)" xlink:href="#K"/></g><g id="g"><use transform="matrix(0.022222222222222223,0,0,0.022222222222222223,0,0)" xlink:href="#S"/><use transform="matrix(0.022222222222222223,0,0,0.022222222222222223,7.511111111111111,0)" xlink:href="#aa"/><use transform="matrix(0.022222222222222223,0,0,0.022222222222222223,16.133333333333333,0)" xlink:href="#M"/><use transform="matrix(0.022222222222222223,0,0,0.022222222222222223,29.6,0)" xlink:href="#Z"/><use transform="matrix(0.022222222222222223,0,0,0.022222222222222223,43.08888888888889,0)" xlink:href="#N"/><use transform="matrix(0.022222222222222223,0,0,0.022222222222222223,51.46666666666667,0)" xlink:href="#P"/><use transform="matrix(0.022222222222222223,0,0,0.022222222222222223,57.57777777777778,0)" xlink:href="#ab"/><use transform="matrix(0.022222222222222223,0,0,0.022222222222222223,71.15555555555557,0)" xlink:href="#L"/><use transform="matrix(0.022222222222222223,0,0,0.022222222222222223,83.66666666666667,0)" xlink:href="#I"/><use transform="matrix(0.022222222222222223,0,0,0.022222222222222223,89.84444444444445,0)" xlink:href="#J"/><use transform="matrix(0.022222222222222223,0,0,0.022222222222222223,95.95555555555556,0)" xlink:href="#K"/><use transform="matrix(0.022222222222222223,0,0,0.022222222222222223,106.35555555555555,0)" xlink:href="#X"/></g><path fill="#333" d="M388 13C195 13 58-128 58-366c0-237 142-381 336-381 102 0 169 46 211 91l-50 60c-37-39-84-70-159-70-147 0-243 114-243 297 0 185 87 301 244 301 53 0 104-16 133-43v-192H375v-77h240v308c-47 49-128 85-227 85" id="ah"/><path fill="#333" d="M241 5C155 32 92-8 92-108v-688h91v694c3 37 15 43 45 37" id="ai"/><path fill="#333" d="M303 13C170 13 51-91 51-271c0-181 119-286 252-286s252 105 252 286C555-91 436 13 303 13zm0-76c94 0 158-83 158-208s-64-210-158-210-157 85-157 210S209-63 303-63" id="aj"/><path fill="#333" d="M567-281C567-18 341 97 176-56h-3l-8 56H92v-796h91c0 106 2 214-3 316 49-43 110-77 170-77 141 0 217 110 217 276zM183-120C317-1 471-73 472-279c0-120-40-201-143-201-46 0-94 26-146 75v285" id="ak"/><path fill="#333" d="M217 13C126 13 58-43 58-141c0-118 103-177 334-203 0-70-23-137-112-137-63 0-120 29-163 58l-36-63c50-32 127-71 214-71 132 0 188 89 188 223V0h-75l-8-65h-3c-52 43-113 78-180 78zm26-73c53 0 96-25 149-72v-152c-183 22-245 67-245 137 0 62 42 87 96 87" id="al"/><g id="h"><use transform="matrix(0.022222222222222223,0,0,0.022222222222222223,0,0)" xlink:href="#ah"/><use transform="matrix(0.022222222222222223,0,0,0.022222222222222223,15.311111111111112,0)" xlink:href="#ai"/><use transform="matrix(0.022222222222222223,0,0,0.022222222222222223,21.644444444444446,0)" xlink:href="#aj"/><use transform="matrix(0.022222222222222223,0,0,0.022222222222222223,35.111111111111114,0)" xlink:href="#ak"/><use transform="matrix(0.022222222222222223,0,0,0.022222222222222223,48.84444444444445,0)" xlink:href="#al"/><use transform="matrix(0.022222222222222223,0,0,0.022222222222222223,61.37777777777778,0)" xlink:href="#ai"/></g><path fill="#fff" d="M306 13C162 13 51-91 51-271c0-181 123-286 262-286 71 0 120 30 159 64l-47 61c-32-29-65-49-109-49-98 0-170 85-170 210S214-63 314-63c50 0 94-23 128-54l39 61c-48 44-110 69-175 69" id="am"/><path fill="#fff" d="M92 0v-796h90c1 179-3 364 2 540l233-287h101L336-325 542 0h-99L284-262 182-143V0H92" id="an"/><g id="i"><use transform="matrix(0.022222222222222223,0,0,0.022222222222222223,0,0)" xlink:href="#U"/><use transform="matrix(0.022222222222222223,0,0,0.022222222222222223,14.044444444444444,0)" xlink:href="#V"/><use transform="matrix(0.022222222222222223,0,0,0.022222222222222223,26.577777777777772,0)" xlink:href="#am"/><use transform="matrix(0.022222222222222223,0,0,0.022222222222222223,37.888888888888886,0)" xlink:href="#an"/><use transform="matrix(0.022222222222222223,0,0,0.022222222222222223,50.155555555555544,0)" xlink:href="#V"/><use transform="matrix(0.022222222222222223,0,0,0.022222222222222223,62.68888888888888,0)" xlink:href="#L"/><use transform="matrix(0.022222222222222223,0,0,0.022222222222222223,75.19999999999999,0)" xlink:href="#Q"/></g><g id="j"><use transform="matrix(0.022222222222222223,0,0,0.022222222222222223,0,0)" xlink:href="#ac"/><use transform="matrix(0.022222222222222223,0,0,0.022222222222222223,18.044444444444444,0)" xlink:href="#V"/><use transform="matrix(0.022222222222222223,0,0,0.022222222222222223,30.577777777777772,0)" xlink:href="#H"/></g><path fill="#fff" d="M193-658v272h123c115 0 178-46 178-141 0-97-63-131-178-131H193zM608 0H503L325-311H193V0h-93v-733h230c149 0 256 53 256 206 0 114-66 182-166 206" id="ao"/><g id="k"><use transform="matrix(0.022222222222222223,0,0,0.022222222222222223,0,0)" xlink:href="#ao"/><use transform="matrix(0.022222222222222223,0,0,0.022222222222222223,14.111111111111112,0)" xlink:href="#Q"/><use transform="matrix(0.022222222222222223,0,0,0.022222222222222223,26.422222222222224,0)" xlink:href="#K"/><use transform="matrix(0.022222222222222223,0,0,0.022222222222222223,36.82222222222222,0)" xlink:href="#H"/><use transform="matrix(0.022222222222222223,0,0,0.022222222222222223,50.6,0)" xlink:href="#M"/><use transform="matrix(0.022222222222222223,0,0,0.022222222222222223,64.06666666666666,0)" xlink:href="#ab"/><use transform="matrix(0.022222222222222223,0,0,0.022222222222222223,77.64444444444445,0)" xlink:href="#K"/><use transform="matrix(0.022222222222222223,0,0,0.022222222222222223,88.04444444444445,0)" xlink:href="#Q"/></g><g id="l"><use transform="matrix(0.022222222222222223,0,0,0.022222222222222223,0,0)" xlink:href="#ac"/><use transform="matrix(0.022222222222222223,0,0,0.022222222222222223,18.044444444444444,0)" xlink:href="#V"/><use transform="matrix(0.022222222222222223,0,0,0.022222222222222223,30.577777777777772,0)" xlink:href="#H"/></g><g id="m"><use transform="matrix(0.022222222222222223,0,0,0.022222222222222223,0,0)" xlink:href="#Y"/><use transform="matrix(0.022222222222222223,0,0,0.022222222222222223,14.177777777777779,0)" xlink:href="#V"/><use transform="matrix(0.022222222222222223,0,0,0.022222222222222223,26.711111111111112,0)" xlink:href="#ae"/><use transform="matrix(0.022222222222222223,0,0,0.022222222222222223,33.044444444444444,0)" xlink:href="#ae"/><use transform="matrix(0.022222222222222223,0,0,0.022222222222222223,39.37777777777778,0)" xlink:href="#af"/><use transform="matrix(0.022222222222222223,0,0,0.022222222222222223,53.111111111111114,0)" xlink:href="#V"/><use transform="matrix(0.022222222222222223,0,0,0.022222222222222223,65.64444444444445,0)" xlink:href="#am"/><use transform="matrix(0.022222222222222223,0,0,0.022222222222222223,76.95555555555556,0)" xlink:href="#an"/></g><g id="n"><use transform="matrix(0.022222222222222223,0,0,0.022222222222222223,0,0)" xlink:href="#T"/><use transform="matrix(0.022222222222222223,0,0,0.022222222222222223,7.511111111111111,0)" xlink:href="#U"/><use transform="matrix(0.022222222222222223,0,0,0.022222222222222223,21.555555555555557,0)" xlink:href="#V"/><use transform="matrix(0.022222222222222223,0,0,0.022222222222222223,34.08888888888889,0)" xlink:href="#L"/><use transform="matrix(0.022222222222222223,0,0,0.022222222222222223,46.6,0)" xlink:href="#Q"/><use transform="matrix(0.022222222222222223,0,0,0.022222222222222223,58.91111111111111,0)" xlink:href="#W"/><use transform="matrix(0.022222222222222223,0,0,0.022222222222222223,66.42222222222222,0)" xlink:href="#O"/><use transform="matrix(0.022222222222222223,0,0,0.022222222222222223,79.19999999999999,0)" xlink:href="#P"/><use transform="matrix(0.022222222222222223,0,0,0.022222222222222223,85.3111111111111,0)" xlink:href="#Q"/><use transform="matrix(0.022222222222222223,0,0,0.022222222222222223,97.62222222222222,0)" xlink:href="#R"/><use transform="matrix(0.022222222222222223,0,0,0.022222222222222223,115.44444444444444,0)" xlink:href="#I"/><use transform="matrix(0.022222222222222223,0,0,0.022222222222222223,121.62222222222222,0)" xlink:href="#J"/><use transform="matrix(0.022222222222222223,0,0,0.022222222222222223,127.73333333333333,0)" xlink:href="#K"/></g><g id="o"><use transform="matrix(0.022222222222222223,0,0,0.022222222222222223,0,0)" xlink:href="#am"/><use transform="matrix(0.022222222222222223,0,0,0.022222222222222223,11.311111111111112,0)" xlink:href="#M"/><use transform="matrix(0.022222222222222223,0,0,0.022222222222222223,24.77777777777778,0)" xlink:href="#ab"/><use transform="matrix(0.022222222222222223,0,0,0.022222222222222223,38.355555555555554,0)" xlink:href="#K"/><use transform="matrix(0.022222222222222223,0,0,0.022222222222222223,48.75555555555556,0)" xlink:href="#N"/><use transform="matrix(0.022222222222222223,0,0,0.022222222222222223,57.13333333333333,0)" xlink:href="#aa"/><use transform="matrix(0.022222222222222223,0,0,0.022222222222222223,65.75555555555556,0)" xlink:href="#Z"/><use transform="matrix(0.022222222222222223,0,0,0.022222222222222223,79.24444444444445,0)" xlink:href="#am"/><use transform="matrix(0.022222222222222223,0,0,0.022222222222222223,90.55555555555557,0)" xlink:href="#N"/><use transform="matrix(0.022222222222222223,0,0,0.022222222222222223,98.93333333333335,0)" xlink:href="#M"/><use transform="matrix(0.022222222222222223,0,0,0.022222222222222223,112.40000000000002,0)" xlink:href="#aa"/></g><path fill="#333" d="M502-205c40 0 75-29 75-79-4-98-127-102-174-28 13 83 53 107 99 107zm182-391l-67 76c-92-69-213-47-218 125 93-102 295-67 295 106 0 112-87 179-193 179-114 0-218-77-218-264 0-196 112-285 235-285 76 0 129 29 166 63zM500 55c240 0 435-195 435-435S740-815 500-815C258-815 65-618 65-380 65-140 260 55 500 55zm0-907c260 0 472 212 472 472 0 262-214 472-472 472C240 92 28-120 28-380s212-472 472-472" id="ap"/><use transform="matrix(0.017777777777777778,0,0,0.017777777777777778,0,0)" xlink:href="#ap" id="p"/><path fill="#fff" d="M35 0v-49l286-420H66v-74h370v49L150-74h296V0H35" id="aq"/><g id="q"><use transform="matrix(0.022222222222222223,0,0,0.022222222222222223,0,0)" xlink:href="#P"/><use transform="matrix(0.022222222222222223,0,0,0.022222222222222223,6.111111111111112,0)" xlink:href="#ab"/><use transform="matrix(0.022222222222222223,0,0,0.022222222222222223,19.68888888888889,0)" xlink:href="#P"/><use transform="matrix(0.022222222222222223,0,0,0.022222222222222223,25.8,0)" xlink:href="#N"/><use transform="matrix(0.022222222222222223,0,0,0.022222222222222223,34.17777777777778,0)" xlink:href="#P"/><use transform="matrix(0.022222222222222223,0,0,0.022222222222222223,40.28888888888889,0)" xlink:href="#V"/><use transform="matrix(0.022222222222222223,0,0,0.022222222222222223,52.82222222222222,0)" xlink:href="#ae"/><use transform="matrix(0.022222222222222223,0,0,0.022222222222222223,59.15555555555556,0)" xlink:href="#P"/><use transform="matrix(0.022222222222222223,0,0,0.022222222222222223,65.26666666666667,0)" xlink:href="#aq"/><use transform="matrix(0.022222222222222223,0,0,0.022222222222222223,75.8,0)" xlink:href="#Q"/></g><g id="r"><use transform="matrix(0.022222222222222223,0,0,0.022222222222222223,0,0)" xlink:href="#T"/><use transform="matrix(0.022222222222222223,0,0,0.022222222222222223,7.511111111111111,0)" xlink:href="#U"/><use transform="matrix(0.022222222222222223,0,0,0.022222222222222223,21.555555555555557,0)" xlink:href="#V"/><use transform="matrix(0.022222222222222223,0,0,0.022222222222222223,34.08888888888889,0)" xlink:href="#L"/><use transform="matrix(0.022222222222222223,0,0,0.022222222222222223,46.6,0)" xlink:href="#Q"/><use transform="matrix(0.022222222222222223,0,0,0.022222222222222223,58.91111111111111,0)" xlink:href="#W"/><use transform="matrix(0.022222222222222223,0,0,0.022222222222222223,66.42222222222222,0)" xlink:href="#O"/><use transform="matrix(0.022222222222222223,0,0,0.022222222222222223,79.19999999999999,0)" xlink:href="#P"/><use transform="matrix(0.022222222222222223,0,0,0.022222222222222223,85.3111111111111,0)" xlink:href="#Q"/><use transform="matrix(0.022222222222222223,0,0,0.022222222222222223,97.62222222222222,0)" xlink:href="#R"/><use transform="matrix(0.022222222222222223,0,0,0.022222222222222223,115.44444444444444,0)" xlink:href="#ac"/><use transform="matrix(0.022222222222222223,0,0,0.022222222222222223,133.48888888888888,0)" xlink:href="#M"/><use transform="matrix(0.022222222222222223,0,0,0.022222222222222223,146.95555555555555,0)" xlink:href="#ad"/><use transform="matrix(0.022222222222222223,0,0,0.022222222222222223,160.73333333333332,0)" xlink:href="#Q"/><use transform="matrix(0.022222222222222223,0,0,0.022222222222222223,173.04444444444442,0)" xlink:href="#ae"/><use transform="matrix(0.022222222222222223,0,0,0.022222222222222223,179.37777777777777,0)" xlink:href="#I"/><use transform="matrix(0.022222222222222223,0,0,0.022222222222222223,185.55555555555557,0)" xlink:href="#J"/><use transform="matrix(0.022222222222222223,0,0,0.022222222222222223,191.66666666666669,0)" xlink:href="#K"/></g><path fill="#333" d="M500 92C240 92 28-120 28-380s212-472 472-472 472 212 472 472c0 262-214 472-472 472zm0-37c240 0 435-195 435-435S740-815 500-815C258-815 65-618 65-380 65-140 260 55 500 55zm-92-177c11-173 44-283 152-420H311v-105h387v77C566-424 548-327 537-122H408" id="ar"/><use transform="matrix(0.017777777777777778,0,0,0.017777777777777778,0,0)" xlink:href="#ar" id="s"/><path fill="#333" d="M500 92C240 92 28-120 28-380s212-472 472-472 472 212 472 472c0 262-214 472-472 472zm0-37c240 0 435-195 435-435S740-815 500-815C258-815 65-618 65-380 65-140 260 55 500 55zm-3-165c-116 0-202-59-202-142 0-67 47-106 102-133v-3c-47-30-80-70-80-125 0-91 79-146 181-146 111 0 181 58 181 140 0 55-37 95-76 119v3c55 28 101 68 101 138 0 85-83 149-207 149zm35-318c60-42 57-146-36-145-39 0-69 20-69 60 0 42 44 66 105 85zM408-271c-8 87 184 103 181 8 0-45-49-65-125-92-29 19-56 47-56 84" id="as"/><use transform="matrix(0.017777777777777778,0,0,0.017777777777777778,0,0)" xlink:href="#as" id="t"/><g id="u"><use transform="matrix(0.022222222222222223,0,0,0.022222222222222223,0,0)" xlink:href="#af"/><use transform="matrix(0.022222222222222223,0,0,0.022222222222222223,13.733333333333334,0)" xlink:href="#P"/><use transform="matrix(0.022222222222222223,0,0,0.022222222222222223,19.844444444444445,0)" xlink:href="#ab"/><use transform="matrix(0.022222222222222223,0,0,0.022222222222222223,33.422222222222224,0)" xlink:href="#ad"/></g><path fill="#333" d="M503-406c29 0 65-16 92-53-13-81-53-106-97-106-38 0-74 26-74 81s33 78 79 78zM315-174l67-76c90 72 215 50 216-124-92 102-292 60-292-108 0-110 86-178 191-178 114 0 219 76 219 263 0 197-112 287-234 287-76 0-131-30-167-64zM500 55c240 0 435-195 435-435S740-815 500-815C258-815 65-618 65-380 65-140 260 55 500 55zm0-907c260 0 472 212 472 472 0 262-214 472-472 472C240 92 28-120 28-380s212-472 472-472" id="at"/><use transform="matrix(0.017777777777777778,0,0,0.017777777777777778,0,0)" xlink:href="#at" id="v"/><g id="w"><use transform="matrix(0.022222222222222223,0,0,0.022222222222222223,0,0)" xlink:href="#ac"/><use transform="matrix(0.022222222222222223,0,0,0.022222222222222223,18.044444444444444,0)" xlink:href="#M"/><use transform="matrix(0.022222222222222223,0,0,0.022222222222222223,31.511111111111113,0)" xlink:href="#ad"/><use transform="matrix(0.022222222222222223,0,0,0.022222222222222223,45.28888888888889,0)" xlink:href="#Q"/><use transform="matrix(0.022222222222222223,0,0,0.022222222222222223,57.6,0)" xlink:href="#ae"/><use transform="matrix(0.022222222222222223,0,0,0.022222222222222223,63.93333333333334,0)" xlink:href="#K"/></g><path fill="#333" d="M500 92C240 92 28-120 28-380s212-472 472-472 472 212 472 472c0 262-214 472-472 472zm0-37c240 0 435-195 435-435S740-815 500-815C258-815 65-618 65-380 65-140 260 55 500 55zm-41-177v-396H350v-80c60-12 102-26 141-49h96v525H459" id="au"/><use transform="matrix(0.017777777777777778,0,0,0.017777777777777778,0,0)" xlink:href="#au" id="x"/><path fill="#333" d="M382-340h128c0-68 0-133 4-199h-4c-37 72-83 134-128 199zm247-307v307h67v94h-67v124H510v-124H261v-88l213-313h155zM500 55c240 0 435-195 435-435S740-815 500-815C258-815 65-618 65-380 65-140 260 55 500 55zm0-907c260 0 472 212 472 472 0 262-214 472-472 472C240 92 28-120 28-380s212-472 472-472" id="av"/><use transform="matrix(0.017777777777777778,0,0,0.017777777777777778,0,0)" xlink:href="#av" id="y"/><path fill="#333" d="M500 92C240 92 28-120 28-380s212-472 472-472 472 212 472 472c0 262-214 472-472 472zm0-37c240 0 435-195 435-435S740-815 500-815C258-815 65-618 65-380 65-140 260 55 500 55zm-4-166c-92 0-154-32-199-74l57-81c35 28 78 56 132 56 57 0 94-31 94-83 0-50-38-81-90-81-37 0-56 10-90 31l-57-37 16-267h322v105H464l-8 97c119-41 253 14 251 150 0 116-98 184-211 184" id="aw"/><use transform="matrix(0.017777777777777778,0,0,0.017777777777777778,0,0)" xlink:href="#aw" id="z"/><path fill="#333" d="M500 92C240 92 28-120 28-380s212-472 472-472 472 212 472 472c0 262-214 472-472 472zm0-37c240 0 435-195 435-435S740-815 500-815C258-815 65-618 65-380 65-140 260 55 500 55zM317-122v-74c147-123 246-212 246-286 0-51-27-78-79-78-44 0-79 27-108 53l-70-68c56-57 119-84 193-84 113 0 187 66 187 165 0 91-92 186-187 270 65-7 136-5 207-5v107H317" id="ax"/><use transform="matrix(0.017777777777777778,0,0,0.017777777777777778,0,0)" xlink:href="#ax" id="A"/><path fill="#333" d="M500 92C240 92 28-120 28-380s212-472 472-472 472 212 472 472c0 262-214 472-472 472zm0-37c240 0 435-195 435-435S740-815 500-815C258-815 65-618 65-380 65-140 260 55 500 55zm-11-165c-85 0-158-30-199-76l59-80c34 31 80 56 138 56 50 0 87-24 87-64 0-45-31-72-158-72v-89c105 0 140-27 140-69 0-37-25-58-73-58-40 0-77 17-112 48l-63-77c50-43 110-68 178-68 119 0 197 52 197 147 0 53-35 91-97 115v3c67 18 117 61 117 130 0 98-97 154-214 154" id="ay"/><use transform="matrix(0.017777777777777778,0,0,0.017777777777777778,0,0)" xlink:href="#ay" id="B"/></defs></g></svg>